<svg width="40" height="40" viewBox="0 200 1040 630" xmlns="http://www.w3.org/2000/svg" version="1.0" ><path d="M757 345.5c-1 1.2-1 1.8 0 3 1.6 2 6.4 1.9 8.1-.1 1.1-1.4 1-1.8-.6-3-2.5-1.8-5.9-1.8-7.5.1z"/><path d="M778.6 352.4c-1.9 2.1-3.7 2.7-12.2 3.6-5.4.6-44.1 1.5-85.9 2-93.3 1.1-106.5 1.7-140 6-37.1 4.8-128.2 23.3-155.4 31.5-4.2 1.2-26.4 9.3-49.4 17.9-40.2 15-88.3 32.6-89.3 32.6-.3 0-5.1-4.4-10.7-9.7-17.4-16.5-29.3-23.9-46.4-28.8-16.7-4.9-25.7-5.9-54.3-5.9-30.2-.1-35 .7-41.9 6.9C82.4 418.2 80 437.3 80 513c0 58.8 1.6 77.1 7.9 88.6 3.4 6.4 8 8.9 17.8 9.8 10.3 1 13 2.5 14.4 8.1 1.5 5.9 9.1 16.8 21.3 30.5 11.8 13.2 22 22.4 24 21.7 1.6-.6 4.4 1.3 12.4 8.5 7.2 6.4 13.7 8.5 20.7 6.3 2.7-.8 5.1-1.2 5.4-.9.3.2-.5 2.5-1.7 5-1.9 3.9-2 4.5-.6 5.1 1.3.5 6.3-.6 11.1-2.4 1-.4 1.4 0 1.3 1.3-.1 1-.2 2.5-.1 3.1.3 3 15.2 10 30.3 14.2 14.4 4.1 60.2 12.9 61.3 11.9.7-.7-.3-2.1-2.9-4.1-2.2-1.8-5.6-4.7-7.5-6.5l-3.6-3.3 4 .6c8.8 1.4 13.3 2.7 16.3 4.5 2.8 1.7 3.2 2.5 3.2 6 0 6 2.5 6.7 16.9 4.7 6.7-1 12.1-2.3 12.9-3.1 1.3-1.2.7-1.7-4.3-3.2-5.5-1.8-5.6-1.9-2.9-2.6 1.6-.5 16.4-1.3 32.9-1.8 55.1-1.9 80.9-3 97.5-4.5 94-8.3 193.1-30.7 279-63.1 10.7-4 35.6-14 55.3-22.3l35.7-14.9 52.3.5c66.6.7 108.8-1 117.1-4.8 3.1-1.4 5.2-6.7 6.6-16.4 1.6-10.7 2.9-67.2 3-124.6v-51.7l-10.2-7.7c-5.7-4.3-13-9.1-16.3-10.6-18.8-9-39.4-7.1-51 4.5-6.9 6.9-8.5 11.8-8.5 25.9v10.9l-15.8-15.3c-16.7-16.4-23.1-21.3-29.6-23-3.1-.8-5.9-2.9-11.1-8.4-9.5-9.9-15.2-12.5-31.3-13.9-7.6-.7-10.2-1.9-10.2-5 0-4.1-6.7-8.6-13.1-8.6-1.9 0-4 1-6 2.9-4 3.8-10.3 4.7-18.4 2.6-7.8-2-9.8-4.3-8.9-10.2 1-7.1-3.4-9.8-8-4.9zm-365.8 62.5c11.7 6 12.7 13.6 12.7 94.1 0 74.3.1 73.6-13.1 72.8-8.8-.6-13-2.9-16.2-8.6-4.5-8-5.2-16.3-6.2-70.2-.9-48.1-1.9-65.3-3.9-67.3-1.6-1.6-4.1.1-4.8 3.3-.3 1.8-1.9 4.1-3.7 5.4-7.8 5.9-24.5 12-31.2 11.4-5.4-.4-5.6-3-.7-8 7-7.3 18.1-12.8 34-16.9 9.5-2.4 12.3-4.6 12.3-9.4 0-2.5.8-4 3.1-5.9 3.9-3.3 12-3.6 17.7-.7zm559.9-.1c12.8 5.2 13.4 8.8 14 85.6.6 65.6-.2 77.6-5.1 80.8-2.1 1.4-11.1.8-14.6-1-10.1-5-12.9-25.5-12.9-93.2-.1-50.3 1.6-70.3 6.2-73.2 2-1.3 7.9-.8 12.4 1zM144.5 425c25 2.2 42.3 6.5 52.6 13.1 5.3 3.3 12.4 10.6 15.6 15.9 12.2 19.9 12.5 75.1.6 99.7-3.6 7.4-12.2 16-19.7 19.6-14.2 6.9-26.9 8.7-62.3 8.7H104V424h14.3c7.8 0 19.6.5 26.2 1zm396.9 37.6c2.6 2.5 2.9 5.8 2.3 21.8-.8 17.6-1.2 20.2-3.8 20.9-4.7 1.2-19 39.5-19.4 52-.2 6.5-.4 7-3.3 8.8-3.6 2.1-7.1 8.7-9.7 17.9-7.3 27.1-27.1 47-46.6 47.1-11.3.1-16.9-5.3-16.9-16.2 0-9.3 4.6-14.9 12.2-14.9 5.2 0 9.5-3.2 10.8-8 2.5-9.1 0-19-19.2-78.3-11.9-36.8-14.9-47-13.9-48 .8-.8 5.1-1.2 13.4-1.2 13.4 0 17.3 1.2 22.9 7.2 3.3 3.4 8.1 13.9 9.8 21.3 2.4 10.5 6 20.7 7.9 22.4 1.8 1.6 2 1.6 3.9-.8 1.1-1.5 3.4-7.2 5.2-12.9 7.2-23.1 10.3-29.2 15.8-31.6 2.5-1.1 3.2-2.1 3.2-4.3 0-3.5 3.3-4.6 15.2-4.7 6.6-.1 9 .3 10.2 1.5zm47.1.6c2.9 1.3 3.9 3.9 3.1 7.4-1 3.8 1.9 4.1 6.7.7 9.1-6.5 24.4-9.8 34.3-7.4 2.7.7 6.9 2.7 9.3 4.6 2.4 1.9 5.9 3.7 7.7 4.1 3.5.6 4.8.4 19.4-4.1 11-3.4 23.9-3.8 31.9-1.1 7.5 2.6 14.4 9.5 16.6 16.7 2.8 9.3 3.8 26.8 3.2 57.9-.6 38.8-1.2 40.5-12.3 39.8-8-.5-12.2-3.6-16.3-12.1-3.9-7.8-5.7-16.6-7.1-33.7-1.9-24-4.6-36.6-8.8-40.5-3.8-3.5-6.8-4.2-9.3-1.9-5.7 5.2-6.9 12.2-7.9 47.7-1 31.9-1.7 38-5 39.7-2.9 1.5-15.6 1.2-19.7-.5-4.8-2-7.1-4.1-9.4-8.7-3.2-6.3-4-11.7-4.9-36.1-1.1-27.7-2.2-34.7-6.1-39.1-2.3-2.6-3.4-3.1-7.1-3-9.4.2-14.2 5.3-15.4 16.1-.4 3.7-.1 22.1.6 41s1.1 34.6.8 34.8c-.3.3-6.8-.8-14.6-2.5-7.8-1.6-16.2-3-18.6-3-3.7 0-4.5-.4-5-2.3-1.4-5.2-4.7-95-3.7-100.3 1.1-5.9 4-10.4 8.1-12.5 6.8-3.5 23.5-4.5 29.5-1.7zm318.8 2.4c7.2 2.2 13.2 5.8 20.1 12.3 12.5 11.9 13.5 15.4 14.7 51.1.8 25 1.3 31.4 3.5 46.2.6 4.6.6 4.8-2.2 5.9-1.8.7-7 .9-13.4.7-10.7-.5-16.7-2.3-19.9-6.2-2.1-2.5-6.3-1.9-14.9 1.9-9.7 4.2-17.6 5.6-26 4.4-16-2.3-26.8-13.9-28-30-1.5-21.1 14.2-35.1 41.2-36.5 13.7-.8 17.2-1.8 19.1-5.4 2-3.9 2-13.4-.1-15.4-2.1-2.2-8.8-2-18.2.3-12.8 3.3-29 6.1-34.6 6.1-10.7 0-10.9-3.9-.8-15.5 11.4-12.9 22.2-19.5 35.4-21.5 6.7-1.1 17.3-.3 24.1 1.6zm-615.2-.2c8.6 1.9 17.2 6.2 23.7 12.2 11.5 10.2 13.9 20.7 16.2 70.4.5 12.4 1.2 25.1 1.5 28.3l.5 5.9-15.8-.4c-16.4-.4-20.6-1.4-21.7-5-1-2.9-3.8-2.2-15.3 3.8-9.7 5.1-11.1 5.6-15.4 5.1-6.3-.8-18.7-7-25.1-12.8-7-6.2-10.8-13.3-11.5-21.5-.4-5.7-.1-7.1 2.7-12.8 3.7-7.5 9.6-13.2 17.7-17 8.8-4.2 15.8-5.7 30.2-6.5 16-.8 17.2-1.5 15.2-8.4-2.8-10.1-8.6-14.7-18.5-14.6-5.6 0-8.4 1.2-11.4 5.1-3.2 4-9.9 6.2-17.4 5.6-7.6-.6-12.4-2.9-13.3-6.3-1.7-6.9 9.3-18.6 24.4-25.8 13.7-6.6 21.4-7.8 33.3-5.3zm70-.4c5.1 1.4 10 4.9 12.2 8.7 4.2 7.3 6.7 37 6.7 80.5V582h-39v-50.3c0-54.7.5-61.8 4.6-65.5 2.8-2.5 9.1-3 15.5-1.2zm439.4 3.9c11.9 5.8 22.4 16 28.1 27.6l3.9 7.9.3 16.2.4 16.2-30.4.4c-16.6.2-31.1.8-32 1.2-5.2 2.4 1.9 11.6 11 14.2 4.4 1.3 8.2 1.5 19.6 1 15.3-.7 17.3-.3 20.9 4.5 2.4 3.3 3.5 14.5 1.8 17.7-2.6 4.9-12.1 7.6-31.1 8.7-14.6.9-26.9-.7-34.5-4.4-11.5-5.7-23.3-20.3-27.8-34.6-3.2-10.2-3.1-29.8.2-40.5 6.4-21 17.9-33.7 35.6-39.6 2.6-.9 7.6-1.3 14.5-1.1 10.1.3 11 .5 19.5 4.6zm-267.9 78c-1 1.6-3.6 1.3-4.3-.5-.8-2.2 1.8-3.7 3.6-2 .7.8 1 1.9.7 2.5zm45.4 44c0 2.2-2.3 3.4-3.8 1.9s-.3-3.8 1.9-3.8c1.2 0 1.9.7 1.9 1.9zM238.8 698.7c.5 1.7-2.6 2.9-4 1.5-.6-.6-.7-1.5-.3-2.2.9-1.4 3.7-.9 4.3.7zm11 5.6c.4 2.2-2.7 3.5-3.8 1.6-1-1.5.7-4.2 2.4-3.6.6.2 1.2 1.1 1.4 2z"/><path d="M142.6 456.1c-4.1 3.6-4.9 12.1-4.3 45.4.8 37.7 2.2 46.2 8.2 50.1 3.4 2.2 14.3 3 20 1.4 9.5-2.7 17.5-13.3 20.6-27.5 2.9-13.2.9-44.1-3.6-54.8-1.9-4.6-7.5-9.3-15.4-13-5.1-2.4-8.3-3.2-14.6-3.5-7.4-.4-8.4-.2-10.9 1.9zM887.9 532c-7 2.1-10.9 7.5-10.9 15 0 3.4.6 4.7 3 7 7 6.6 17.8 4.2 21.6-4.7 3.4-7.9.6-15.3-6.4-17.3-4.1-1.1-3.8-1.1-7.3 0zm-614.5 3.9c-4.6 2.1-8.4 7.4-8.4 11.7 0 6.3 5.3 11.4 12 11.4 4.4 0 12.1-5.8 14.8-11.2 2.1-4.2 2.2-4.9 1-7.5-2.7-5.8-11.7-7.9-19.4-4.4zm501.9-41.3c-3.5 1.7-6.9 7.8-7.9 14.1-.5 3.5-.3 4 2.1 5.1 3.8 1.7 17.9 1.5 21.5-.3 3.6-1.8 4.4-4.3 3.1-9.2-1.3-4.7-4.2-8-8.7-9.9-4.2-1.8-6.1-1.7-10.1.2zm21-137c-1 2.6 1.3 3.8 6.3 3.5 2.6-.1 4-3.1 2.2-4.3-2.3-1.4-7.8-.9-8.5.8zM70 572.5c-1.8 2.1-.5 4.7 2.2 4.3 2.6-.3 3.7-3.6 1.6-4.9-1.8-1.2-2.4-1.1-3.8.6zm-5.4 11.1c-1.7 1.6-1.2 4 .9 4.8 1.9.7 4.6-2 3.9-3.9-.8-2.1-3.2-2.6-4.8-.9zm295.5 147.8c-.9 1.1-.8 1.8.4 3 .9.9 2.3 1.6 3.1 1.6 2.4 0 5.4-1.9 5.4-3.4 0-2.7-6.9-3.6-8.9-1.2z"/></svg>