<?xml version="1.0" encoding="UTF-8" standalone="no" ?>
<!DOCTYPE svg PUBLIC "-//W3C//DTD SVG 1.1//EN" "http://www.w3.org/Graphics/SVG/1.1/DTD/svg11.dtd">
<svg xmlns="http://www.w3.org/2000/svg" xmlns:xlink="http://www.w3.org/1999/xlink" version="1.1" width="1000" height="800" viewBox="0 0 1000 800" xml:space="preserve">
<desc>Created with Fabric.js 5.2.4</desc>
<defs>
</defs>
<rect x="0" y="0" width="100%" height="100%" fill="transparent"></rect>
<g transform="matrix(Infinity NaN NaN Infinity 0 0)" id="8b561fe3-b7ef-4b77-b028-0eadad124539"  >
</g>
<g transform="matrix(1 0 0 1 500 400)" id="49ffdd0f-901a-4ceb-8508-03189730510f"  >
<rect style="stroke: none; stroke-width: 1; stroke-dasharray: none; stroke-linecap: butt; stroke-dashoffset: 0; stroke-linejoin: miter; stroke-miterlimit: 4; fill: rgb(255,255,255); fill-rule: nonzero; opacity: 1; visibility: hidden;" vector-effect="non-scaling-stroke"  x="-500" y="-400" rx="0" ry="0" width="1000" height="800" />
</g>
<g transform="matrix(5.67 0 0 5.67 500 400)"  >
<g style="" vector-effect="non-scaling-stroke"   >
		<g transform="matrix(1 0 0 1 1.44 -0.79)"  >
<path style="stroke: none; stroke-width: 1; stroke-dasharray: none; stroke-linecap: butt; stroke-dashoffset: 0; stroke-linejoin: miter; stroke-miterlimit: 4; fill: rgb(0,0,0); fill-rule: nonzero; opacity: 1;" vector-effect="non-scaling-stroke"  transform=" translate(-114.45, -107.67)" d="M 151.3 74.7 C 151.70000000000002 75 152.3 75 152.70000000000002 74.7 C 153.00000000000003 74.3 152.70000000000002 74 152.00000000000003 74 C 151.30000000000004 74 151.00000000000003 74.3 151.30000000000004 74.7 z M 155 75.7 C 155 76.2 146.3 76.5 135.7 76.5 C 118.69999999999999 76.5 114.79999999999998 76.9 101.99999999999999 79.4 C 93.99999999999999 80.9 85.89999999999998 82.80000000000001 83.99999999999999 83.60000000000001 C 82.09999999999998 84.30000000000001 76.19999999999999 86.50000000000001 70.89999999999999 88.50000000000001 L 61.2 92 L 58 89 C 54.2 85.4 49.5 84 41.4 84 C 32.3 84 32.099999999999994 84.5 31.9 102.2 C 31.799999999999997 118.10000000000001 32.5 121 36.5 121 C 38 121 39 121.6 39 122.4 C 39 123.2 40.8 125.80000000000001 43 128.1 C 45.2 130.5 47 132.1 47 131.7 C 47 131.29999999999998 47.9 131.89999999999998 49 133 C 50.2 134.2 51.6 134.7 52.6 134.3 C 53.9 133.8 54.1 134 53.5 135 C 52.9 136 53.1 136.2 54.4 135.7 C 55.3 135.29999999999998 55.9 135.39999999999998 55.5 135.89999999999998 C 55 136.79999999999998 59.3 138.59999999999997 64.1 139.49999999999997 C 65.39999999999999 139.79999999999998 67.89999999999999 140.19999999999996 69.5 140.59999999999997 C 72.3 141.19999999999996 72.4 141.09999999999997 70.5 139.69999999999996 C 68.6 138.19999999999996 68.6 138.19999999999996 71.2 138.69999999999996 C 72.8 138.99999999999997 73.7 139.69999999999996 73.4 140.39999999999995 C 73 141.29999999999995 73.9 141.49999999999994 76.2 141.19999999999996 C 79.4 140.69999999999996 79.4 140.59999999999997 77 139.89999999999995 C 75.6 139.49999999999994 80.4 139.19999999999996 87.7 139.09999999999994 C 109.4 138.89999999999995 134 133.89999999999995 154.5 125.39999999999993 L 165.5 120.79999999999994 L 179.9 120.89999999999993 C 189.1 120.89999999999993 194.8 120.59999999999994 195.70000000000002 119.89999999999993 C 196.70000000000002 118.99999999999993 197.00000000000003 114.79999999999994 197.00000000000003 102.49999999999994 L 197.00000000000003 86.1 L 194.40000000000003 84.1 C 189.30000000000004 80.1 182.00000000000003 81.89999999999999 182.00000000000003 87.19999999999999 L 182.00000000000003 90.29999999999998 L 179.60000000000002 87.89999999999998 C 176.40000000000003 84.69999999999997 174.70000000000002 83.39999999999998 173.8 83.39999999999998 C 173.4 83.49999999999997 172.5 82.69999999999997 171.70000000000002 81.59999999999998 C 170.90000000000003 80.49999999999999 169.00000000000003 79.69999999999997 167.3 79.59999999999998 C 165.60000000000002 79.59999999999998 164.4 79.19999999999997 164.70000000000002 78.69999999999997 C 164.9 78.29999999999997 164.3 77.69999999999997 163.4 77.29999999999997 C 162.4 76.89999999999996 161.5 77.09999999999997 161.3 77.69999999999997 C 161.10000000000002 78.19999999999997 159.8 78.49999999999997 158.4 78.19999999999997 C 156.8 77.89999999999998 156.1 77.29999999999997 156.4 76.39999999999998 C 156.70000000000002 75.59999999999998 156.5 74.99999999999997 156 74.99999999999997 C 155.4 74.99999999999997 155 75.29999999999997 155 75.69999999999997 z M 91.8 87.2 C 92.6 88 93 92.8 93 102.2 C 93 114.7 92.8 116 91.3 116 C 86.89999999999999 115.9 86.5 114.6 86.5 102 C 86.5 95.4 86.2 90 85.8 90 C 85.3 90 85 90.4 85 90.9 C 85 92.10000000000001 79.1 94.4 78.2 93.60000000000001 C 77.2 92.60000000000001 80.9 90.00000000000001 84.2 89.30000000000001 C 85.7 89.00000000000001 86.9 88.50000000000001 86.8 88.10000000000001 C 86.5 85.7 89.7 85.10000000000001 91.8 87.2 z M 190.8 87.2 C 191.60000000000002 88 192 92.8 192 102.2 C 192 114.8 191.8 116 190.2 116 C 186.5 116 186 114 186 99.8 C 186 87.2 186.2 86 187.8 86 C 188.8 86 190.10000000000002 86.5 190.8 87.2 z M 49.2 89 C 54.900000000000006 90.6 57 94 57 101.6 C 57 112.8 53.8 116 42.5 116 L 36 116 L 36 88 L 40.8 88 C 43.4 88 47.199999999999996 88.5 49.199999999999996 89 z M 113.8 98.6 C 113.7 101 113.39999999999999 102.69999999999999 113.1 102.39999999999999 C 112.39999999999999 101.69999999999999 109 111.19999999999999 109.6 112.19999999999999 C 109.89999999999999 112.6 109.69999999999999 112.99999999999999 109.19999999999999 112.99999999999999 C 108.6 112.99999999999999 107.89999999999999 114.19999999999999 107.49999999999999 115.69999999999999 C 106.09999999999998 121.69999999999999 101.29999999999998 125.79999999999998 97.49999999999999 124.39999999999999 C 95.19999999999999 123.49999999999999 95.59999999999998 118.99999999999999 97.89999999999999 118.99999999999999 C 101.1 118.99999999999999 100.99999999999999 116.49999999999999 97.39999999999999 105.99999999999999 C 95.6 100.39999999999999 93.99999999999999 95.69999999999999 93.99999999999999 95.39999999999999 C 93.99999999999999 95.19999999999999 95.29999999999998 94.99999999999999 96.89999999999999 94.99999999999999 C 100.19999999999999 94.99999999999999 101.6 96.29999999999998 102.6 100.49999999999999 C 103.8 105.49999999999999 104.3 105.49999999999999 105.69999999999999 100.69999999999999 C 106.39999999999999 98.1 107.49999999999999 95.99999999999999 108.1 95.99999999999999 C 108.69999999999999 95.99999999999999 108.89999999999999 95.69999999999999 108.69999999999999 95.19999999999999 C 108.39999999999999 94.79999999999998 109.49999999999999 94.49999999999999 111.1 94.39999999999999 C 113.8 94.3 113.89999999999999 94.49999999999999 113.8 98.6 z M 122.2 96.1 C 122 97 122.3 97.1 123.2 96.3 C 125.4 94.6 129.5 94.3 130.9 95.7 C 131.70000000000002 96.60000000000001 132.9 96.8 133.9 96.4 C 137.70000000000002 94.80000000000001 141.1 94.80000000000001 143 96.5 C 144.7 98 145 99.6 145 107.2 C 145 115.10000000000001 144.8 116 143.1 116 C 140.2 116 138.79999999999998 113.5 138.5 107.4 C 138.3 104.30000000000001 137.7 101.30000000000001 137.2 100.80000000000001 C 135.1 98.70000000000002 134 101.30000000000001 134 108.60000000000001 C 134 115.7 133.9 116.00000000000001 131.7 116.00000000000001 C 127.99999999999999 116.00000000000001 126.99999999999999 114.10000000000001 126.99999999999999 107.40000000000002 C 126.99999999999999 100.90000000000002 126.29999999999998 99.60000000000002 123.49999999999999 100.60000000000002 C 122.09999999999998 101.20000000000002 121.89999999999999 102.50000000000003 122.19999999999999 109.00000000000003 L 122.49999999999999 116.70000000000003 L 119.29999999999998 116.00000000000003 C 117.49999999999999 115.60000000000002 115.89999999999998 115.40000000000003 115.69999999999999 115.60000000000002 C 115.49999999999999 115.90000000000002 115.19999999999999 112.60000000000002 115.1 108.30000000000003 C 115 104.10000000000002 114.89999999999999 100.40000000000002 114.8 100.10000000000002 C 114.5 96.80000000000003 115.3 95.10000000000002 117.3 94.80000000000003 C 120.8 94.20000000000003 122.5 94.60000000000002 122.2 96.10000000000002 z M 73.4 97.19999999999999 C 75.5 99.19999999999999 75.9 100.49999999999999 76.30000000000001 107.69999999999999 L 76.70000000000002 115.99999999999999 L 73.30000000000001 115.99999999999999 C 71.50000000000001 115.99999999999999 70.00000000000001 115.49999999999999 70.00000000000001 114.99999999999999 C 70.00000000000001 114.39999999999999 68.90000000000002 114.69999999999999 67.60000000000001 115.59999999999998 C 65.50000000000001 116.89999999999998 64.7 116.99999999999999 62.400000000000006 115.79999999999998 C 54.7 112.09999999999998 57.900000000000006 103.99999999999999 67 103.99999999999999 C 70.2 103.99999999999999 70.3 103.89999999999999 69.4 101.59999999999998 C 68.7 99.79999999999998 65.5 99.39999999999998 64.5 100.99999999999999 C 63.5 102.59999999999998 59 102.19999999999999 59 100.59999999999998 C 59 98.29999999999998 64 94.99999999999999 67.6 94.99999999999999 C 69.6 94.99999999999999 71.8 95.89999999999999 73.39999999999999 97.19999999999999 z M 84 96.89999999999999 C 84.5 97.99999999999999 85 102.69999999999999 85 107.39999999999999 L 85 115.99999999999999 L 78 115.99999999999999 L 78 105.49999999999999 C 78 95 78 95 80.5 95 C 81.9 95 83.4 95.8 84 96.9 z M 162.1 97.89999999999999 C 164.2 100.1 165 101.8 165 104.39999999999999 L 165 107.99999999999999 L 158.9 107.99999999999999 C 153.4 107.99999999999999 152.9 108.19999999999999 154.1 109.59999999999998 C 155 110.69999999999997 156.6 111.09999999999998 159.1 110.79999999999998 C 162.2 110.49999999999999 163 110.79999999999998 163.4 112.49999999999999 C 164.20000000000002 115.39999999999999 162.70000000000002 116.29999999999998 157.1 116.39999999999999 C 153.2 116.49999999999999 151.6 115.99999999999999 149.6 114.1 C 146.4 111.1 145.4 106.3 147 101.6 C 149.3 94.5 156.8 92.69999999999999 162.1 97.89999999999999 z M 181.5 97.49999999999999 C 183.6 99.59999999999998 184 100.79999999999998 184 106.39999999999999 C 184 109.89999999999999 184.3 113.49999999999999 184.6 114.39999999999999 C 185.1 115.6 184.5 115.99999999999999 182.2 115.99999999999999 C 180.5 115.99999999999999 178.79999999999998 115.49999999999999 178.5 114.99999999999999 C 178.1 114.29999999999998 177.3 114.29999999999998 176 114.99999999999999 C 171.1 117.59999999999998 166 115.09999999999998 166 109.99999999999999 C 166 106.49999999999999 169.2 103.99999999999999 173.7 103.99999999999999 C 176.39999999999998 103.99999999999999 177 103.59999999999998 177 101.89999999999999 C 177 100.1 176.6 99.89999999999999 174.3 100.39999999999999 C 165.10000000000002 102.69999999999999 163.9 101.99999999999999 168.5 97.49999999999999 C 171.9 93.99999999999999 178.1 93.99999999999999 181.5 97.49999999999999 z M 112 109.49999999999999 C 112 109.79999999999998 111.8 109.99999999999999 111.5 109.99999999999999 C 111.2 109.99999999999999 111 109.79999999999998 111 109.49999999999999 C 111 109.19999999999999 111.2 108.99999999999999 111.5 108.99999999999999 C 111.8 108.99999999999999 112 109.19999999999999 112 109.49999999999999 z M 120 117.49999999999999 C 120 117.79999999999998 119.8 117.99999999999999 119.5 117.99999999999999 C 119.2 117.99999999999999 119 117.79999999999998 119 117.49999999999999 C 119 117.19999999999999 119.2 116.99999999999999 119.5 116.99999999999999 C 119.8 116.99999999999999 120 117.19999999999999 120 117.49999999999999 z M 60 136.5 C 60 136.8 59.8 137 59.5 137 C 59.2 137 59 136.8 59 136.5 C 59 136.2 59.2 136 59.5 136 C 59.8 136 60 136.2 60 136.5 z M 62 137.5 C 62 137.8 61.8 138 61.5 138 C 61.2 138 61 137.8 61 137.5 C 61 137.2 61.2 137 61.5 137 C 61.8 137 62 137.2 62 137.5 z" stroke-linecap="round" />
</g>
		<g transform="matrix(1 0 0 1 -10 1)"  >
<path style="stroke: none; stroke-width: 1; stroke-dasharray: none; stroke-linecap: butt; stroke-dashoffset: 0; stroke-linejoin: miter; stroke-miterlimit: 4; fill: rgb(0,0,0); fill-rule: nonzero; opacity: 1;" vector-effect="non-scaling-stroke"  transform=" translate(-103, -109.46)" d="M 42.5 94.2 C 42.2 95 42 99 42.2 103.10000000000001 C 42.5 110.00000000000001 42.7 110.50000000000001 44.800000000000004 110.80000000000001 C 48.800000000000004 111.4 51.00000000000001 108.4 51.00000000000001 102.50000000000001 C 51.00000000000001 99.70000000000002 50.400000000000006 96.60000000000001 49.800000000000004 95.70000000000002 C 48.00000000000001 93.40000000000002 43.2 92.40000000000002 42.50000000000001 94.20000000000002 z M 65.1 108.4 C 63.49999999999999 110.30000000000001 65.6 112.7 67.69999999999999 111.4 C 68.69999999999999 110.80000000000001 69.49999999999999 109.7 69.49999999999999 109 C 69.49999999999999 107.3 66.39999999999999 106.9 65.09999999999998 108.4 z M 153.6 101.5 C 152.7 103.9 152.79999999999998 104 155.6 104 C 157.5 104 158.1 103.5 157.79999999999998 102.3 C 157.39999999999998 100 154.39999999999998 99.5 153.6 101.5 z M 172.6 108.7 C 171.79999999999998 110.60000000000001 173.6 112.10000000000001 175.7 111.3 C 176.39999999999998 111 177 109.89999999999999 177 108.89999999999999 C 177 106.49999999999999 173.5 106.3 172.6 108.69999999999999 z M 158.29999999999998 76.7 C 158.7 77 159.29999999999998 77 159.7 76.7 C 160 76.3 159.7 76 159 76 C 158.3 76 158 76.3 158.3 76.7 z M 30 114.5 C 30 114.8 30.2 115 30.5 115 C 30.8 115 31 114.8 31 114.5 C 31 114.2 30.8 114 30.5 114 C 30.2 114 30 114.2 30 114.5 z M 29 116.5 C 29 116.8 29.2 117 29.5 117 C 29.8 117 30 116.8 30 116.5 C 30 116.2 29.8 116 29.5 116 C 29.2 116 29 116.2 29 116.5 z M 81.3 142.7 C 81.7 143 82.3 143 82.7 142.7 C 83 142.29999999999998 82.7 142 82 142 C 81.3 142 81 142.3 81.3 142.7 z" stroke-linecap="round" />
</g>
</g>
</g>
</svg>