<svg xmlns="http://www.w3.org/2000/svg" version="1.0" viewBox="0 0 800 340"><g fill="#FFF" stroke-width="0"><path d="M200 170v85h399V85H200v85zm245-61c0 .5 1.4 1 3 1 1.7 0 3 .3 3 .8 0 .4 1.3 1.3 2.9 2 1.7.7 3.6 2.6 4.3 4.3.7 1.6 1.6 2.9 2 2.9.5 0 .8 1.3.8 3 0 1.6.5 3 1 3 .6 0 1 2.8 1 6.4 0 3.6-.4 6.8-1 7.1-.5.3-1 1.5-1 2.6 0 1-.4 1.9-1 1.9-.5 0-1 .7-1 1.5 0 1.9-3.5 5.5-7.2 7.4-1.6.8-2.8 1.8-2.8 2.3 0 .4-4.5.8-10 .8-6 0-10-.4-10-1s-.7-1-1.5-1c-2 0-8.5-6.5-8.5-8.5 0-.8-.4-1.5-1-1.5-.5 0-1-1.8-1-4s-.4-4-1-4c-.5 0-1-1.8-1-4s.5-4 1-4c.6 0 1-1.7 1-3.8 0-2.6.6-4.2 2-5.2 1.1-.8 2-2.2 2-3.2 0-1.1.7-1.8 1.8-1.8 1 0 2.4-.9 3.2-2 .8-1.2 2.6-2 4.2-2 1.5 0 2.8-.5 2.8-1 0-.6 2.7-1 6-1s6 .4 6 1zm-38 2c0 .5.7 1 1.6 1 2.2 0 4.3 2.9 4.4 5.7 0 1.3.5 2.3 1 2.3.6 0 1 1.8 1 4s-.4 4-1 4c-.5 0-1 .6-1 1.3 0 2.1-2.4 6.7-3.5 6.7-.5 0-2.1.9-3.5 2-1.7 1.4-4.1 2-7.7 2H393v16h-12v-46h13c8 0 13 .4 13 1zm72 22v23.1l-6.7-.3-6.8-.3-.3-22.8-.2-22.7h14v23zm21.1-20.3c.8 1.6 2.2 3.7 3.2 4.7.9 1.1 1.7 2.6 1.7 3.3 0 .7.5 1.3 1 1.3.6 0 1 .7 1 1.6 0 1.5 2.3 4.4 3.4 4.4.3 0 .6-4.1.6-9v-9h14v46h-6.9c-6.7 0-7-.1-8.3-3-.7-1.7-1.6-3-2-3-.5 0-.8-.6-.8-1.3 0-.7-.9-2.3-2-3.5-1.1-1.2-2-2.8-2-3.7 0-.8-.4-1.5-.9-1.5s-1.2-1-1.7-2.3c-.5-1.5-1 1-1.3 7.8l-.6 10-6.7.3-6.8.3V110h6.8c6.5 0 6.9.2 8.3 2.7zM561 115v5h-10v36h-14v-36h-10v-10h34v5zm-304.7.9.6 3 7.1-.3c4.9-.1 7.7-.7 9.1-1.9 1-.9 2.6-1.7 3.4-1.7.8 0 1.5-.5 1.5-1 0-.6.5-1 1-1 .6 0 1 1.1 1 2.4 0 1.9.7 2.6 3 3.1 1.7.4 4.4.4 6.1 0 2.2-.5 3.6-.2 5 1.1 1.1 1 1.9 1.2 1.9.6 0-.7.9-1.2 2-1.2 2.1 0 2.3 1.3 2.4 18.6l.1 6.1 8.9.2c15.6.3 16.6.9 16.6 10.1 0 4.5-.4 7-1.2 7.3-1 .4-1 .7-.1 1.4 1.3.9 1.3 7 0 9-.5.8-.4 1.3.2 1.3.6 0 1.1.9 1.1 2s-.6 2-1.4 2c-1.2 0-1.4 1.1-1 5.2.3 2.9 1 5.8 1.6 6.5.8 1 .8 1.7 0 2.5-.7.7-1.2 2.2-1.2 3.5 0 1.8-.6 2.3-2.6 2.3-1.6 0-2.4.5-2.1 1.2.2.7 1.4 1.2 2.6 1.1 2.9-.4 2.8 3.2-.1 4.2l-2.3.8 2.3.4c1.4.3 2.2 1.2 2.2 2.4 0 2.1-1.5 2.6-2.4.6-.5-1-.7-1-1.2 0-.9 2.1-4.4 1.6-4.4-.6 0-1.1.6-2.1 1.3-2.4.8-.3.9-.8.1-1.6-.7-.8-1.6-.5-3.4 1.4-1.3 1.4-1.8 2.5-1.2 2.5.7 0 1.2.4 1.2 1s-2.8 1-6.5 1H301v3c0 1.6-.6 3.5-1.4 4.2-1.1 1.1-1.1 1.4.2 2.4 2.3 1.7.5 3.4-2.9 2.7-3-.6-3.1-.5-2.7 2.8.3 3.2.1 3.4-2.7 3.4-2.5 0-3 .4-3 2.5 0 2.5 0 2.5-9.3 2.5-5.2 0-9.6-.4-9.9-.8-.3-.5-.9-.3-1.4.4-.6 1-2.7 1.3-8.1 1-4-.2-8.6-.3-10.3-.3-5.9.2-15 0-15.3-.3-.2-.1.1-2.5.5-5.1.9-5.2-.6-19.2-1.9-17.9-.4.5-1.3.3-2-.2-.8-.6-3.6-.8-6.8-.5-12.4 1.2-13 .9-13-8.4 0-4-.7-7.8-2.1-10.8-2.1-4.7-1.9-6.6.7-6.6 1.1 0 1.4-1.8 1.4-9 0-8.9 0-9-2.5-9-2.7 0-3.5-2.6-1.3-4.8.9-.9.9-1.2 0-1.2-.7 0-1.2-.5-1.2-1 0-.6.7-1 1.5-1 1.1 0 1.3-.8.9-3-.6-3 .9-4.3 1.9-1.8.3.7.6-.6.6-2.9.1-2.3.5-4.5 1.1-4.8.5-.3 5.9-.6 12-.7 10.9-.1 11-.1 11-2.4 0-1.9-.5-2.4-2.5-2.4-3.3 0-3.3-2.3 0-5.6 1.7-1.7 2.4-3.2 2-4.4-.3-1-.1-2.1.5-2.5.5-.3 1-2.1 1-3.9 0-2.9.4-3.4 3-4 1.7-.3 3-1 3-1.6 0-2.6 2.7-3.9 8.1-4 5.5 0 5.7.1 6.2 2.9zM381 175c0 .5.7 1 1.5 1 2 0 10.5 8.5 10.5 10.5 0 .8.5 1.5 1 1.5.6 0 1 4 1 10s-.4 10-1 10c-.5 0-1 .7-1 1.5 0 2.6-8.6 10.5-11.5 10.5-1.4 0-2.5.4-2.5 1s-3 1-7 1-7-.4-7-1-1.1-1-2.5-1c-2.9 0-11.5-7.8-11.5-10.4 0-.9-.4-1.6-1-1.6s-1-4-1-10 .4-10 1-10 1-.7 1-1.5c0-2 8.5-10.5 10.5-10.5.8 0 1.5-.5 1.5-1 0-.6 3.7-1 9-1s9 .4 9 1zm46 5v6h-16v6h16v12h-16v16h-12v-46h28v6zm48-5c0 .5.7 1 1.6 1 .8 0 2.2.6 3 1.4 1.6 1.7 1.9 4.6.4 4.6-.5 0-1 .7-1 1.5s-.8 2.4-1.7 3.5c-1.8 2-4.5 2-9-.2-1.7-.8-2.5-.7-3.7.5-2.1 2.1-2 2.7.4 2.7 1.1 0 2 .4 2 1 0 .5.9 1 2 1s2 .4 2 1c0 .5.7 1 1.6 1 .9 0 3.1 1.5 5 3.4 3.1 3.1 3.4 3.9 3.4 9.5 0 8.3-2.7 13.1-7.4 13.1-1.4 0-2.6.4-2.6 1s-3 1-6.9 1c-3.9 0-7.3-.5-7.6-1-.3-.6-1.8-1-3.3-1-3 0-8.2-3.9-8.2-6.1 0-.8.9-2.1 2-2.9 1.1-.8 2-2 2-2.8 0-.7.7-2.1 1.6-2.9 1.5-1.5 1.8-1.5 4.2.1 1.5.9 3.5 2 4.5 2.3.9.3 1.7.9 1.7 1.4 0 1.4 3 1 4.6-.6 1.4-1.3 1.4-1.7 0-3-.8-.8-2.2-1.5-3-1.5-.9 0-1.6-.5-1.6-1 0-.6-.9-1-2-1s-2-.5-2-1c0-.6-.7-1-1.5-1-.9 0-1.9-.8-2.2-1.8-.4-.9-1.5-2.4-2.5-3.3-2.1-1.9-2.5-8.8-.5-12.1.6-1.3 2.8-3.7 4.6-5.5 3.4-3.2 3.8-3.3 11.8-3.3 4.9 0 8.3.4 8.3 1zm36 1c0 1.1.5 2 1 2 .6 0 1 .9 1 1.9 0 1.1.5 2.3 1 2.6.6.3 1 1.7 1 3.1 0 1.3.5 2.4 1 2.4.6 0 1 .9 1 2s.5 2 1 2c.6 0 1 1.3 1 3 0 1.6.5 3 1 3 .6 0 1 .9 1 2s.5 2 1 2c.6 0 1 1.3 1 3 0 1.6.5 3 1 3 .6 0 1 .9 1 2s.5 2 1 2c.6 0 1 1.8 1 4v4h-7c-5.1 0-7-.4-7-1.3 0-.7-.6-2.5-1.2-4-1.2-2.5-1.7-2.7-8-2.7-6.4 0-6.8.1-6.8 2.2-.1 4.5-2.2 5.8-9.4 5.8H481v-3c0-1.7.5-3 1-3 .6 0 1-.9 1-2s.5-2 1-2c.6 0 1-1.4 1-3 0-1.7.5-3 1-3 .6 0 1-.9 1-2s.5-2 1-2c.6 0 1-1.1 1-2.4 0-1.4.5-2.8 1-3.1.6-.3 1-1.5 1-2.6 0-1 .5-1.9 1-1.9.6 0 1-1.1 1-2.4 0-1.4.5-2.8 1-3.1.6-.3 1-1.5 1-2.6 0-1 .5-1.9 1-1.9.6 0 1-1.1 1-2.3 0-3.4.6-3.7 7.7-3.7 5.6 0 6.3.2 6.3 2zm31.8 16.2.2 17.8h14v10h-28v-46.1l6.8.3 6.7.3.3 17.7zM589 180v6h-14v6h14v12h-14v6h14v10h-28v-46h28v6zm-381 12c0 .5-.4 1-1 1-.5 0-1-.5-1-1 0-.6.5-1 1-1 .6 0 1 .4 1 1zm18 36c0 .5-.4 1-1 1-.5 0-1-.5-1-1 0-.6.5-1 1-1 .6 0 1 .4 1 1zm4 0c0 .5-.4 1-1 1-.5 0-1-.5-1-1 0-.6.5-1 1-1 .6 0 1 .4 1 1zm-12 4c0 .5-.4 1-1 1-.5 0-1-.5-1-1 0-.6.5-1 1-1 .6 0 1 .4 1 1zm10 0c0 .5-.4 1-1 1-.5 0-1-.5-1-1 0-.6.5-1 1-1 .6 0 1 .4 1 1zm104 0c0 .5-.4 1-1 1-.5 0-1-.5-1-1 0-.6.5-1 1-1 .6 0 1 .4 1 1z"/><path d="M433.2 124.6c-1.9 2-2.4 3.6-2.3 8.5 0 3.7.5 6.5 1.4 7.3 2.3 2.3 12.7 2.6 12.7.3 0-.6.9-2.3 2-3.7 2.1-2.6 2.7-7 1-7-.5 0-1-.7-1-1.5 0-.9-1.1-2.7-2.5-4-3.2-3.3-8.2-3.3-11.3.1zM393 124c0 4.4 1.2 5 5.3 2.7 1.2-.6 2.4-1.3 2.6-1.4.2-.1-.8-1.3-2.2-2.7-3.9-3.9-5.7-3.4-5.7 1.4zm-143-8c0 .5.5 1 1 1 .6 0 1-.5 1-1 0-.6-.4-1-1-1-.5 0-1 .4-1 1zm-18 20c0 .5.7 1 1.5 1s1.5-.5 1.5-1c0-.6-.7-1-1.5-1s-1.5.4-1.5 1zm133.3 54.5c-3.3 3.5-3.2 11.7.2 15 1.3 1.4 3.1 2.5 3.9 2.5.8 0 1.7.6 2 1.2.5 1 .7 1 1.2 0 .3-.6 1.2-1.2 2.1-1.2 3.1 0 6.3-5.5 6.3-11 0-5.8-3.4-9-9.2-8.9-3.2 0-4.9.6-6.5 2.4zM503 198c0 1.1.5 2 1 2 .6 0 1-.9 1-2s-.4-2-1-2c-.5 0-1 .9-1 2z"/></g><path fill="#FFF" fill-opacity=".8" d="M599.5 170c0 47 .1 66.3.2 42.8.2-23.6.2-62 0-85.5-.1-23.6-.2-4.3-.2 42.7z"/><g fill="#BFBFBF" stroke-width="0"><path d="M433 109c0 .5-1.3 1-2.8 1-1.6 0-3.4.8-4.2 2-.8 1.1-2.2 2-3.2 2-1.1 0-1.8.7-1.8 1.8 0 1-.9 2.4-2 3.2-1.3.9-2 2.6-2 4.5 0 3 .1 3 1.9-1.1 2.5-5.5 8.9-10.7 15-12.3 6.7-1.7 13.7 0 19.1 4.7 5.7 4.8 7.5 9.2 7.5 18.3 0 6.8-.3 8-3 11.9-4.4 6.4-9.5 9.3-16.9 9.8-9.7.6-17.3-3.6-21.5-12.1-1.9-3.9-2.1-4-2.1-1.5 0 1.6.5 2.8 1 2.8.6 0 1 .7 1 1.5 0 2 6.5 8.5 8.5 8.5.8 0 1.5.4 1.5 1s4 1 10 1c5.5 0 10-.4 10-.8 0-.5 1.2-1.5 2.8-2.3 3.7-1.9 7.2-5.5 7.2-7.4 0-.8.5-1.5 1-1.5.6 0 1-.9 1-1.9 0-1.1.5-2.3 1-2.6.6-.3 1-3.5 1-7.1 0-3.6-.4-6.4-1-6.4-.5 0-1-1.4-1-3 0-1.7-.3-3-.8-3-.4 0-1.3-1.3-2-2.9-.7-1.7-2.6-3.6-4.3-4.3-1.6-.7-2.9-1.6-2.9-2 0-.5-1.3-.8-3-.8-1.6 0-3-.5-3-1 0-.6-2.7-1-6-1s-6 .4-6 1zm-52 2.1c0 .5.5.7 1 .4.6-.3 1-.8 1-1.1 0-.2-.4-.4-1-.4-.5 0-1 .5-1 1.1z"/><path d="M403.5 111.1c1.7.4 4.4 2.2 6 3.9 2.6 2.7 3 3.8 2.9 8.8 0 9.3-5.1 14.2-14.7 14.2-5.3 0-5.7.6-5.7 9.6v6.4h-4.9c-3 0-5.1-.5-5.4-1.3-.3-.6-.6-.2-.6 1-.1 2.1.3 2.3 5.9 2.3h6v-16h5.3c3.6 0 6-.6 7.7-2 1.4-1.1 3-2 3.5-2 1.1 0 3.5-4.6 3.5-6.7 0-.7.5-1.3 1-1.3.6 0 1 1.8 1 4s.5 4 1 4c.6 0 1-1.8 1-4s-.4-4-1-4c-.5 0-1-1.8-1-4s-.4-4-1-4c-.5 0-1-1-1-2.3-.1-2.8-2.2-5.7-4.4-5.7-.9 0-1.6-.5-1.6-1 0-.6-1.5-1-3.2-.9l-3.3.1 3 .9zm61.7 21.6.3 22.8 6.8.3 6.7.3V110l-2.2.1c-1.7.1-1.9.2-.5.6 1.5.4 1.7 2.3 1.7 21.9v21.5l-5.2-.3-5.3-.3-.3-20.9c-.2-16.1.1-21.1 1-21.8.9-.5.6-.8-1-.8H465l.2 22.7zm19.8-21.6c0 .5.5.7 1 .4.6-.3 1-.8 1-1.1 0-.2-.4-.4-1-.4-.5 0-1 .5-1 1.1zm11.2.1c.9.7 4.6 5.9 8.3 11.5 3.7 5.7 7.1 10.3 7.6 10.3s.9-4.9.9-10.9c0-7.8.4-11.1 1.3-11.4.6-.3.2-.6-1-.6-2.2-.1-2.3.2-2.3 8.9 0 4.9-.3 9-.6 9-1.1 0-3.4-2.9-3.4-4.4 0-.9-.4-1.6-1-1.6-.5 0-1-.6-1-1.3 0-.7-.8-2.2-1.7-3.3-1-1-2.4-3.1-3.2-4.7-.9-1.6-2.3-2.7-3.5-2.7-1.8 0-1.8.1-.4 1.2z"/><path d="M522.3 110.7c1.6.4 1.7 2.1 1.5 21.6l-.3 21.2-5.5.3-5.5.2-5-8c-2.7-4.5-6.3-10-8-12.3l-3-4.2-.3 12.3-.3 12.2h-4.8c-3 0-5.1-.5-5.4-1.3-.3-.6-.6-.2-.6 1.1-.1 2.2.2 2.3 6.7 2l6.7-.3.6-10c.3-6.8.8-9.3 1.3-7.8.5 1.3 1.2 2.3 1.7 2.3s.9.7.9 1.5c0 .9.9 2.5 2 3.7 1.1 1.2 2 2.8 2 3.5 0 .7.3 1.3.8 1.3.4 0 1.3 1.3 2 3 1.3 2.9 1.6 3 8.3 3h6.9v-46l-2.2.1c-1.8.1-1.9.2-.5.6zm4.7 4.3c0 4.5.2 5 2.3 4.9 1.2 0 1.6-.3 1-.6-.7-.2-1.3-2.2-1.3-4.3 0-2.1.6-4.1 1.3-4.3.6-.3.2-.6-1-.6-2.1-.1-2.3.4-2.3 4.9zm31.3-4.3c1.2.3 1.7 1.5 1.7 4.3s-.5 4-1.7 4.3c-1.4.4-1.2.5.5.6 2 .1 2.2-.3 2.2-4.9 0-4.6-.2-5-2.2-4.9-1.7.1-1.9.2-.5.6zM246 114c0 .5.9 1 2 1s2-.5 2-1c0-.6-.9-1-2-1s-2 .4-2 1zm6.6 2.9c-.3.5-2.5.7-4.8.4-3.3-.5-4-.3-3.6.8.4 1.1-.4 1.3-4 1l-4.5-.3.6 3c.4 2.1.1 3.6-.9 4.7-1.4 1.3-1.4 1.7 0 3.1.9.8 1.6 1.6 1.6 1.7 0 .1-.4 1.7-.9 3.5-.6 2-.6 3 0 2.7.5-.4.9 1.2.9 3.6v4.2l-6.6-.7c-3.6-.4-9.2-.4-12.4 0l-5.8.6-.7 4.2c-.4 2.2-.9 3.5-1.2 2.8-.7-1.9-2.3-1.4-2.3.8 0 1.1.7 2 1.5 2s1.5.4 1.5 1c0 .5-.4 1-1 1-.5 0-1 .9-1 2s-.7 2-1.5 2-1.5.9-1.5 2c0 1.3.7 2 2 2 1.5 0 2-.7 2.1-2.8.1-1.5.7.9 1.4 5.3.6 4.4.8 8.4.3 8.9-.4.6-.8 2.4-.8 4.2 0 1.8-.4 3.4-.9 3.6-1.3.5-2.4 4.8-1.2 4.8.5 0 1.2-.8 1.4-1.8.3-.9.5 1.5.6 5.4.1 5.1.5 7.5 1.6 8.4 1.1.9 1.3 1.6.5 2.4-1.5 1.5-1.2 3.6.6 3.6.8 0 1.2-.5.9-1-.7-1.1-.6-1.2 5.3-1.5 2.9-.1 4.2.2 4.2 1.2 0 .7.5 1.3 1 1.3.6 0 1-.5 1-1 0-1.9 3.2-1 3.7 1 .6 2.2 2.3 2.8 2.3.7 0-.6 1-1.3 2.3-1.3l2.3-.2-.2 12.4c-.3 12.9-.4 12.5 3.9 12.8.6.1 1.5.5 1.9 1 .7 1 3.8-1.7 3.8-3.3 0-.6 1.1-1.1 2.4-1.1 1.4 0 2.8-.5 3.1-1 .7-1.2 5.6-.2 6.8 1.4.6.8 1 .7 1.4-.2.7-1.8 7-1.5 7.7.4.5 1.3.9 1.4 2.2.4 1.1-1 1.8-1 2.6-.2.7.7 2 1.2 3 1.2s2.1.7 2.4 1.5c.9 2.2 2.4 1.8 2.4-.5 0-1.1-.6-2-1.4-2-.8 0-1.8-.5-2.1-1-.4-.6.7-1 2.7-.9 10.8.3 15.2-.8 14.1-3.6-.5-1.5 1.8-4.5 3.6-4.5 1.7 0 1.3-3.7-.4-4.4-1.1-.4-1.4-1.5-1-4.1.3-2.5 0-3.5-.9-3.5-1.5 0-2.5-2.7-1.8-4.8.3-1 .8-.7 1.9.7.8 1.2 2.4 2.1 3.5 2.1 1.2 0 2.9.6 3.7 1.4 2.1 1.9 12.1 3.3 12.1 1.7 0-.6-.9-1.1-2-1.1-1.2 0-3.2-.7-4.5-1.6-1.4-.9-3.2-1.3-4.1-1-.8.3-2.2-.1-3.1-.9-1.4-1.4-1.1-1.5 3.3-1.2 6.2.6 7.7 1 8.6 2.2.4.5 1.7 0 3.1-1.3 1.3-1.2 2.9-2.2 3.5-2.2.7 0 1.2-.5 1.2-1 0-.6-.5-1-1.2-1-.9 0-.9-.3 0-1.2.7-.7 1.2-2.7 1.2-4.5 0-3.6 2.6-5.6 4-3.2.5.7 1.2 1 1.7.6.4-.5.3-1.1-.3-1.5-.6-.4-1.4-2-1.8-3.6-.7-2.7-.8-2.8-2.6-1.1-1.9 1.8-2 1.7-2-.6 0-1.4-.5-3-1.1-3.6-1.6-1.6.7-7.4 2.6-6.7 1.8.7 2.8-1.2 1.6-3.3-.8-1.5-1.2-1.4-2.8 1.5-1 1.7-2.5 3.2-3.3 3.2-1.2-.1-1.1-.3.3-1.4 1-.8 2.1-3 2.4-5 .3-2 1-3.6 1.5-3.6s.7-.4.4-.9c-1-1.5.5-4 2-3.4.8.3 1.4 0 1.4-.6s-.4-1.1-1-1.1c-.5 0-1-1.8-1-4s-.4-4-1-4c-.5 0-1 .8-1 1.7 0 1.2-.5.8-1.5-1.1-1.1-2-1.2-3.3-.5-4 .5-.5 1-1.3 1-1.7 0-.3-4.8-.9-10.6-1.3s-11.2-1-11.8-1.2c-.6-.2-1.3-3-1.5-6.2-.5-9.3-.6-9.7-1.3-10.7-.4-.6.2-1.2 1.4-1.2 2.4-.2 5.5-2.9 4.5-3.9-.4-.4-1.2-.2-2 .4-1.6 1.3-3.3 1.1-7.2-1-1.7-.9-4.2-1.4-5.6-1.1-1.6.3-3-.1-3.8-1.1-1.5-1.8-6.7-2.2-7.3-.6-.2.6-4.4 1.3-9.5 1.6-8.9.5-9.1.5-8.6-1.5.4-1.5.1-2.1-1-2.1-.9 0-1.8.4-2.1.9zm4.1 4.6c2.1.9 4.5 2.3 5.4 3.1 1.5 1.3 2 1.2 5.4-1.1 3.8-2.5 6.3-3 12-2.6 4.9.5 8.4 2.9 10.7 7.6 1.9 4 2 4.8.9 8.6-.7 2.4-2.7 5.7-4.5 7.5-2.6 2.6-3 3.6-2.3 5.2 1.3 2.8.2 5.2-2.3 5.2-1.3 0-2 .7-2 2 0 1.8-1.6 2.5-4.2 2.1-.5 0-.8.8-.8 1.9 0 1.3-.7 2-2 2s-2.4 1-3 2.6c-.9 2.2-1.5 2.5-3.6 2-1.4-.4-3.2-.2-3.9.4-1.7 1.4-4.5.2-4.5-2 0-1.2-.9-2-2.2-2.2-1.3-.2-2.4-1.2-2.8-2.6-.3-1.3-.8-2.3-1.2-2.3-3 .3-3.8-.1-3.8-1.9 0-1.3-.7-2-2-2-2.6 0-3.5-2.2-2-5 .9-1.8.6-2.6-2.3-6.1-1.9-2.2-3.7-5.2-4-6.8-1.6-7.9 4.8-17.1 11.8-17.1 2 0 5.2.7 7.2 1.5zm-21.2 28c7.8 4.6 21.5 19.8 21.5 23.7 0 1.1-2.3 4.9-5.1 8.4-10.7 13.5-22.4 20.7-29.8 18.3-4.3-1.4-6.8-3.4-8.7-7.1-2-3.9-1.7-7.3 1.2-13.9l2.6-5.8-2.6-5.5c-2.9-6.2-3.3-10.4-1.2-14.5 3.8-7.2 13.4-8.8 22.1-3.6zm72.8-2.1c8.4 3.5 10.4 11.4 5.5 21.1l-2.6 5 2.5 4.5c8.2 14.5-3.9 27.5-18.6 20-7.7-3.9-23.1-20.2-23.1-24.4 0-4.6 15.4-21.1 23.3-25.1 5.8-2.8 8.4-3.1 13-1.1zm12.2 8.5c.3.5.1 1.2-.5 1.6-.5.3-1-.1-1-.9 0-1.8.6-2.1 1.5-.7zM322 172c0 .5-.4 1-1 1-.5 0-1-.5-1-1 0-.6.5-1 1-1 .6 0 1 .4 1 1zm-56 1.4c0 .8-.4 1.7-.9 2.1-1.2.7-2.4-1.2-1.6-2.5.9-1.5 2.5-1.2 2.5.4zm6.6 11.7c8.3 6.6 14.1 13.2 17 19.4 2.9 6.1 3 7.7.4 13-3.6 7.5-11.3 9.4-20.4 4.9l-5.3-2.6-5.1 2.6c-11.6 5.9-21.6.7-21.4-11 0-5.1 2.7-10.4 8.3-16.8 5.6-6.3 15.9-14.5 18.3-14.6 1 0 4.7 2.3 8.2 5.1zM237 202.2c0 1.7-6.7 2.2-7.6.6-.4-.6-.3-.8.3-.5.8.5 3.4 0 7.1-1.2.1-.1.2.5.2 1.1zm71 4.4c0 .2-.7.4-1.5.4s-1.5-.4-1.5-1c0-.5.7-.7 1.5-.4.8.4 1.5.8 1.5 1zM243 229c-1.9 1.3-3 1.3-3 0 0-.6 1-1 2.3-1 1.8 0 1.9.2.7 1z"/><path d="M252.5 140c.3.5.8 1 1.1 1 .2 0 .4-.5.4-1 0-.6-.5-1-1.1-1-.5 0-.7.4-.4 1zm139.9-15.8c.1 4 .3 4.3 3.2 4.6 1.9.2 3.6-.3 4.4-1.2 1-1.3 1-1.6-.3-1.6-.9 0-1.9.4-2.2 1-.3.5-1.5 1-2.5 1-1.5 0-2-.9-2.3-4l-.4-4 .1 4.2zm4.6-3.6c0 .7 2.7 3.4 3.4 3.4 1.3 0 .5-2.8-1-3.4-1.9-.7-2.4-.8-2.4 0zm36.9.9c-5 2.7-6.9 12.7-3.5 18.1 1 1.4 3.3 3.2 5.2 4 5.4 2.3 11.2-.7 12.8-6.6l.7-2.5-2 2.5c-1.1 1.4-2.1 3.1-2.1 3.7 0 2.3-10.4 2-12.7-.3-.9-.8-1.4-3.6-1.4-7.3-.1-5.1.3-6.4 2.5-8.6 3.3-3.3 7.9-3.3 11.1 0 1.4 1.3 2.5 3.1 2.5 4 0 .8.5 1.5 1 1.5 2.7 0-.6-6.7-4.1-8.6-3.5-1.8-6.6-1.7-10 .1zM537 138v18h14l-.2-18.3-.2-18.2-.3 17.3-.3 17.3-5.3-.3-5.2-.3-.3-16.8c-.1-10-.6-16.7-1.2-16.7s-1 7-1 18zm-239-10c0 .5.5 1 1 1 .6 0 1-.5 1-1 0-.6-.4-1-1-1-.5 0-1 .4-1 1zm-2.5 1.9c-.3.5.2 1.6 1 2.4.8.9 1.5 2.7 1.5 4.1 0 1.4.4 2.6.9 2.6 1.2 0 .8-8.3-.4-9.2-1.4-1-2.3-1-3 .1zm-64.4 4.7c-1.8 2.1-.6 3 1.4 1.1.8-.9 1.5-1.8 1.5-2.1 0-1.1-1.5-.5-2.9 1zM324 148c0 .5.5 1 1 1 .6 0 1-.5 1-1 0-.6-.4-1-1-1-.5 0-1 .4-1 1zm0 18c0 .5.5 1 1 1 .6 0 1-.5 1-1 0-.6-.4-1-1-1-.5 0-1 .4-1 1zm39 9c0 .5-.7 1-1.5 1-2 0-10.5 8.5-10.5 10.5 0 .8-.4 1.5-1 1.5-.5 0-1 1.7-.9 3.7v3.8l1.4-4.3c4.4-14.2 20.5-20.4 32.7-12.7 2.5 1.5 5.8 4.9 7.4 7.4 2.5 3.9 2.9 5.6 2.9 11.6 0 4.8-.6 8.2-1.8 10.7-9.1 18.2-35.2 16-41.2-3.4l-1.4-4.3v3.7c-.1 2.1.4 3.8.9 3.8.6 0 1 .7 1 1.6 0 2.6 8.6 10.4 11.5 10.4 1.4 0 2.5.4 2.5 1s3 1 7 1 7-.4 7-1 1.1-1 2.5-1c2.9 0 11.5-7.9 11.5-10.5 0-.8.5-1.5 1-1.5.6 0 1-4 1-10s-.4-10-1-10c-.5 0-1-.7-1-1.5 0-2-8.5-10.5-10.5-10.5-.8 0-1.5-.5-1.5-1 0-.6-3.7-1-9-1s-9 .4-9 1zm36 22v23l2.3-.1c1.6-.1 1.8-.2.5-.6-1.6-.4-1.8-2.3-1.8-21.9v-21.5l12.8.3 12.7.3.3 4.2c.2 3.3-.1 4.2-1.5 4.6-1.4.4-1.3.5.5.6 2 .1 2.2-.3 2.2-5.9v-6h-28v23zm55.9-19.7c-1.8 1.8-4 4.2-4.6 5.5-2 3.3-1.6 10.2.5 12.1 1 .9 2.1 2.4 2.5 3.3.3 1 1.3 1.8 2.2 1.8.8 0 1.5.4 1.5 1 0 .5.9 1 2 1s2 .4 2 1c0 .5.7 1 1.6 1 .8 0 2.3.7 3.1 1.6 1.4 1.3 1.4 1.7.2 2.4-.7.5-1 1.2-.7 1.5 1.1 1.1 2.8-.5 2.8-2.5 0-1.2-2.1-3-6.4-5.4-8-4.5-10.6-7.6-10.6-12.8 0-10 9.8-16 20.9-12.8 1.9.5 4.2 1.7 5.2 2.6 1.7 1.5 1.7 1.8.2 5-1.8 3.6-3.6 4.1-7.7 2.3-3.4-1.6-7.6-.4-7.6 2.1 0 1.4 1.9 2.9 6.9 5.4 8.9 4.5 11.1 7.3 11.1 14 0 4.6-.4 5.6-3.2 8.3-6 5.6-13.1 6.7-22.3 3.2-6.9-2.6-8-4.4-5.3-8.7 2.2-3.5 4-3.9 7.8-1.7 2.9 1.7 4 1.8 4 .6 0-.5-.8-1.1-1.7-1.4-1-.3-3-1.4-4.5-2.3-2.4-1.6-2.7-1.6-4.2-.1-.9.8-1.6 2.2-1.6 2.9 0 .8-.9 2-2 2.8-1.1.8-2 2.1-2 2.9 0 2.2 5.2 6.1 8.2 6.1 1.5 0 3 .4 3.3 1 .3.5 3.7 1 7.6 1 3.9 0 6.9-.4 6.9-1s1.2-1 2.6-1c2.7 0 4.5-1.3 5.9-4.5.8-1.7.9-1.6 1.3 1.2.3 2.6.8 3.3 2.5 3.2 1.2 0 1.6-.3 1-.6-.7-.2-1.3-1-1.3-1.7 0-1.6 14.9-38.8 16.2-40.4.6-.6 3-1.2 5.4-1.2 4.1 0 4.4.2 6.3 4.2 2.8 6.2 15.1 37.1 15.1 37.9 0 .4-.8 1-1.7 1.2-1.4.4-1.2.5.5.6 1.9.1 2.2-.4 2.2-3.9 0-2.2-.4-4-1-4-.5 0-1-.9-1-2s-.4-2-1-2c-.5 0-1-1.4-1-3 0-1.7-.4-3-1-3-.5 0-1-.9-1-2s-.4-2-1-2c-.5 0-1-1.4-1-3 0-1.7-.4-3-1-3-.5 0-1-.9-1-2s-.4-2-1-2c-.5 0-1-1.1-1-2.4 0-1.4-.4-2.8-1-3.1-.5-.3-1-1.5-1-2.6 0-1-.4-1.9-1-1.9-.5 0-1-.9-1-2 0-1.9-.5-2.1-6.7-1.8-6.6.3-6.8.4-7.1 3-.2 1.6-.8 2.8-1.3 2.8s-.9.9-.9 1.9c0 1.1-.4 2.3-1 2.6-.5.3-1 1.7-1 3.1 0 1.3-.4 2.4-1 2.4-.5 0-1 .9-1 1.9 0 1.1-.4 2.3-1 2.6-.5.3-1 1.7-1 3.1 0 1.3-.4 2.4-1 2.4-.5 0-1 .9-1 2s-.4 2-1 2c-.5 0-1 1.3-1 3 0 1.6-.4 3-1 3-.5 0-1 .9-1 2s-.4 2-1 2-1-2.9-1-6.6c0-6.2-.2-6.8-3.4-10-1.9-1.9-4.1-3.4-5-3.4-.9 0-1.6-.5-1.6-1 0-.6-.9-1-2-1s-2-.5-2-1c0-.6-.9-1-2-1-2.4 0-2.5-.6-.4-2.7 1.2-1.2 2-1.3 3.7-.5 4.5 2.2 7.2 2.2 9 .2.9-1.1 1.7-2.7 1.7-3.5 0-.8.5-1.5 1-1.5 1.5 0 1.2-2.9-.4-4.6-.8-.8-2.2-1.4-3-1.4-.9 0-1.6-.5-1.6-1 0-.6-3.4-1-8.3-1-8 0-8.4.1-11.8 3.3zM529 197v23l2.3-.1c1.7-.1 1.8-.2.4-.6-1.6-.4-1.7-2.1-1.5-21.6l.3-21.2h10l.3 16.7c.1 10.4.6 16.8 1.2 16.8.7 0 .9-6.4.8-17.8l-.3-17.7-6.7-.3-6.8-.3V197zm32 0v23l2.3-.1c1.7-.1 1.8-.2.4-.6-1.6-.4-1.7-2.1-1.5-21.6l.3-21.2h25l.3 4.2c.2 3.3-.1 4.2-1.5 4.6-1.4.4-1.3.5.5.6 2 .1 2.2-.3 2.2-5.9v-6h-28v23zm-239-21c0 .5.5 1 1 1 .6 0 1-.5 1-1 0-.6-.4-1-1-1-.5 0-1 .4-1 1zm-4 2c0 .5.5 1 1 1 .6 0 1-.5 1-1 0-.6-.4-1-1-1-.5 0-1 .4-1 1z"/><path d="M365 189c-6.2 6.6-4.1 18.1 3.8 20.4 1.3.5 2.2.3 2.2-.3s-.7-1.1-1.5-1.1c-.9 0-2.7-1.1-4-2.5-3.6-3.5-3.6-11.5 0-15 3.2-3.3 9.9-3.5 12.6-.3 1.1 1.1 2.1 1.9 2.4 1.6.3-.3-.6-1.7-1.9-3.1-3.6-3.9-9.8-3.8-13.6.3zm45.3.2.2 3.3 6.7.3c6.3.3 6.8.5 7.4 2.7.3 1.4.3 3.6 0 5-.6 2.2-1.1 2.4-7.4 2.7l-6.7.3-.5 8.3c-.3 4.5-.2 8.2.3 8.2.4 0 .7-3.6.7-8v-8h16v-12h-15.9l-.5-3c-.6-3-.6-3-.3.2zm162.9 0 .3 3.3 6.8.3 6.8.3-.3 4.7-.3 4.7-6.7.3-6.8.3v3.4c0 1.9.5 3.5 1 3.5.6 0 1-1.4 1-3v-3h14v-12h-14v-3c0-1.7-.5-3-1.1-3-.6 0-.9 1.4-.7 3.2zm-70.6 7c-2.1 4.9-2.1 4.8 1.4 4.8 3.4 0 3.9-1.8 1.5-6l-1.4-2.5-1.5 3.7zm2.4 1.8c0 1.1-.4 2-1 2-.5 0-1-.9-1-2s.5-2 1-2c.6 0 1 .9 1 2zm-123.8-.7c-.3 5.4-3.5 10.7-6.6 10.7-.9 0-1.6.4-1.6 1 0 1.3.3 1.3 3.4-.1 3.3-1.5 5.8-7 5.3-11.7l-.4-3.7-.1 3.8zM322 196c0 .5.5 1 1 1 .6 0 1-.5 1-1 0-.6-.4-1-1-1-.5 0-1 .4-1 1zm-2 9.6c0 .7 2.7 3.4 3.4 3.4.3 0 .6-.9.6-2 0-1.3-.7-2-2-2-1.1 0-2 .3-2 .6zM220 208c0 .5.5 1 1 1 .6 0 1-.5 1-1 0-.6-.4-1-1-1-.5 0-1 .4-1 1zm76 2c0 .5.5 1 1 1 .6 0 1-.5 1-1 0-.6-.4-1-1-1-.5 0-1 .4-1 1zm258.3.7c1.2.3 1.7 1.5 1.7 4.3s-.5 4-1.7 4.3c-1.4.4-1.2.5.5.6 2 .1 2.2-.3 2.2-4.9 0-4.6-.2-5-2.2-4.9-1.7.1-1.9.2-.5.6zm32 0c1.2.3 1.7 1.5 1.7 4.3s-.5 4-1.7 4.3c-1.4.4-1.2.5.5.6 2 .1 2.2-.3 2.2-4.9 0-4.6-.2-5-2.2-4.9-1.7.1-1.9.2-.5.6zm-91.2 4.6c-.8 2-2.2 3.8-3 4-1.1.3-.9.5.5.6 2.3.1 4.8-3.6 4.2-6.4-.2-1.3-.7-.8-1.7 1.8zm15.9-1.9c0 .8.5 1.8 1 2.1.6.3 1 1.5 1 2.6 0 1.2.7 1.9 2 1.9h2l-2-2c-1.1-1.1-2-2.6-2-3.4 0-.8-.4-1.8-1-2.1-.5-.3-1 .1-1 .9zM248 230c0 .5.9 1 2 1s2 .5 2 1c0 .6 2.1.9 5.2.7 4-.2 5.4-.7 5.6-2 .2-1-.3-1.7-1.2-1.7-.9 0-1.6.4-1.6 1 0 .5-1.8 1-4 1s-4-.5-4-1c0-.6-.9-1-2-1s-2 .4-2 1zm38 1c0 1.1.5 2 1 2 .6 0 1-.9 1-2s-.4-2-1-2c-.5 0-1 .9-1 2zm-70 1c0 .5.5 1 1 1 .6 0 1-.5 1-1 0-.6-.4-1-1-1-.5 0-1 .4-1 1zm54 0c0 .5.5 1 1 1 .6 0 1-.5 1-1 0-.6-.4-1-1-1-.5 0-1 .4-1 1zm60 0c0 .5.5 1 1 1 .6 0 1-.5 1-1 0-.6-.4-1-1-1-.5 0-1 .4-1 1z"/></g><path fill="gray" d="M434.7 109.8c-.9.4 1 .7 4.3.7s5.2-.3 4.3-.7c-1-.3-2.9-.7-4.3-.7s-3.3.4-4.3.7zm-47.4.9c2.6.2 6.8.2 9.5 0 2.6-.2.4-.3-4.8-.3s-7.4.1-4.7.3zm83 0c.9.2 2.5.2 3.5 0 .9-.3.1-.5-1.8-.5-1.9 0-2.7.2-1.7.5zm18.5 0c1.2.2 3.2.2 4.5 0 1.2-.2.2-.4-2.3-.4s-3.5.2-2.2.4zm27.5 0c.9.2 2.5.2 3.5 0 .9-.3.1-.5-1.8-.5-1.9 0-2.7.2-1.7.5zm21 0c3.7.2 9.7.2 13.5 0 3.7-.2.6-.3-6.8-.3-7.4 0-10.5.1-6.7.3zm-133.3.6c0 .3 1.2 1.2 2.6 2.2 1.5.9 2.3 1.2 2 .6-.7-1.1-4.6-3.5-4.6-2.8zm63.5 20.9v21.3l5 .1 5 .1-4.7-.4-4.8-.4-.3-21-.3-20.9.1 21.2zm45.7-10.3c-.2 9.5-.4 11.2-1.7 10.7-1.2-.4-1.3-.2-.3 1.4 2.2 3.5 2.9.5 2.5-11.6l-.3-11.9-.2 11.4zm10 9.8-.2 21.2-5.7.4-5.8.3 5.8.2c3.9.1 5.9-.2 6.3-1.1.2-.7.3-10.5.1-21.7l-.2-20.5-.3 21.2zm6.1-16.7c0 2.5.2 3.5.4 2.2.2-1.2.2-3.2 0-4.5-.2-1.2-.4-.2-.4 2.3zm-147.9 17c0 11.3.2 15.9.3 10.2.2-5.6.2-14.8 0-20.5-.1-5.6-.3-1-.3 10.3zm104 0c0 11.3.2 15.9.3 10.2.2-5.6.2-14.8 0-20.5-.1-5.6-.3-1-.3 10.3zm-29.9-14c1 1.1 2 2 2.3 2 .3 0-.3-.9-1.3-2s-2-2-2.3-2c-.3 0 .3.9 1.3 2zm-63.5 1.4c0 .2 1.8.6 3.9.8 2.2.2 3.7 0 3.5-.4-.5-.8-7.4-1.1-7.4-.4zm43.7.3c-.3.5 1.2.8 3.3.8 2.1 0 3.6-.3 3.3-.8-.2-.4-1.7-.7-3.3-.7-1.6 0-3.1.3-3.3.7zm99.3 0 4 .4.2 16.7.3 16.7 5.3.3c2.8.2 5.2-.1 5.2-.5s-2.2-.6-5-.5l-5 .4-.2-16.9-.3-16.8-4.3-.1-4.2-.1 4 .4zm16.8 0c1.2.2 3 .2 4 0 .9-.3-.1-.5-2.3-.4-2.2 0-3 .2-1.7.4zm-150.7 3.8c0 1.7-.7 3.8-1.3 4.5-.7.8-.5.8.5-.1 1.3-1.1 1.7-2.6 1.4-4.5l-.4-2.9-.2 3zm11.1.5c0 1.9.2 2.7.5 1.7.2-.9.2-2.5 0-3.5-.3-.9-.5-.1-.5 1.8zm6.4-1.3c-.6 1.4-.5 1.5.5.6.7-.7 1-1.5.7-1.8-.3-.3-.9.2-1.2 1.2zm-1.3 9.8c0 3.8.2 5.3.4 3.2.2-2 .2-5.2 0-7-.2-1.7-.4-.1-.4 3.8zm11.1-5c-.3.8-.4 2-.2 2.7.3.7.7.1 1-1.5.6-2.9.1-3.6-.8-1.2zm20.1 5c0 3.5.3 5.8.7 5.2 1-1.6 1-10.5.1-11-.5-.3-.8 2.3-.8 5.8zm11.8 0c0 3.3.2 4.5.4 2.7.2-1.8.2-4.5 0-6s-.4 0-.4 3.3zm-67.5-3.3c.5.5 1.6.8 2.3.6.8-.3.3-.7-1-1.1-1.7-.4-2.1-.3-1.3.5zm105.8 3.3c3.4 4.5 4.1 4.5 1.2 0-1.3-1.9-2.7-3.5-3.1-3.5-.4 0 .4 1.6 1.9 3.5zm-90.6 1.6c0 .5.5.7 1 .4.6-.3 1-.8 1-1.1 0-.2-.4-.4-1-.4-.5 0-1 .5-1 1.1zm20 1.8c0 1.1.4 2.2.9 2.5.4.3.6-.6.3-1.9-.5-3-1.2-3.3-1.2-.6zm-35.3 1.8c-.4.3-.7 1.1-.7 1.7 0 .7.3.7.8-.1.4-.6 3-1.3 5.7-1.6l5-.3-5.1-.2c-2.8-.1-5.4.1-5.7.5zm111.4 2.8c1.2 2.2 2.6 4.4 3.2 5 1.5 1.6-2-4.8-3.8-7-.9-1.1-.7-.2.6 2zm-74.1-.1c0 .2.8 1 1.8 1.7 1.5 1.3 1.6 1.2.3-.4s-2.1-2.1-2.1-1.3zm15.9 1.3c-1.3 1.6-1.2 1.7.4.4.9-.7 1.7-1.5 1.7-1.7 0-.8-.8-.3-2.1 1.3zm12.7-.2c-.9 2.6-.7 3.2.5 1.2.6-1 .9-2.1.6-2.3-.2-.3-.7.2-1.1 1.1zm-40 .8c.3 1 .9 1.5 1.2 1.2.3-.3 0-1.1-.7-1.8-1-.9-1.1-.8-.5.6zm16.2 1.9c.5.5 1.6.8 2.3.6.8-.3.3-.7-1-1.1-1.7-.4-2.1-.3-1.3.5zm6.7-.2c-1.6.7-1.7.9-.3.9.9.1 2-.4 2.3-.9.7-1.1.7-1.1-2 0zm-20.5 1.7c0 .5 1.2 2 2.8 3.4l2.7 2.4-2.5-3c-1.4-1.7-2.6-3.2-2.7-3.4-.2-.2-.3 0-.3.6zm32.4 3.5-1.9 2.3 2.3-1.9c2.1-1.8 2.7-2.6 1.9-2.6-.2 0-1.2 1-2.3 2.2zm-69.1 4.5c1.5.2 3.9.2 5.5 0 1.5-.2.2-.4-2.8-.4s-4.3.2-2.7.4zm47.2.3c2.7 1.2 4.3 1.2 2.5 0-.8-.5-2.2-.9-3-.9-1 0-.8.3.5.9zm12.5 0c-1.8 1.2-.2 1.2 2.5 0 1.3-.6 1.5-.9.5-.9-.8 0-2.2.4-3 .9zm44.3-.3c1.5.2 3.9.2 5.5 0 1.5-.2.2-.4-2.8-.4s-4.3.2-2.7.4zM365.5 176c-1.3.5-1.4.9-.5.9.8 0 2.4-.4 3.5-.9 1.3-.5 1.4-.9.5-.9-.8 0-2.4.4-3.5.9zm10 0c1.1.5 2.7.9 3.5.9.9 0 .8-.4-.5-.9-1.1-.5-2.7-.9-3.5-.9-.9 0-.8.4.5.9zm84.5 0c-1.8 1.2-.2 1.2 2.5 0 1.3-.6 1.5-.9.5-.9-.8 0-2.2.4-3 .9zm8.5 0c1.1.5 2.9.8 4 .8 1.6 0 1.5-.2-.5-.8-3.4-1.1-6-1.1-3.5 0zm-64.5.7c10.9.7 21.8.7 21.3 0-.2-.4-6.1-.6-13.1-.5-7 .1-10.7.3-8.2.5zm94.9 1c-1.2 1.6-1.2 1.7.1.6.9-.6 3.6-1.3 6-1.6l4.5-.4-4.6-.1c-3.4-.2-5 .3-6 1.5zm31.8-1c-.3.4 1.7.6 4.4.5l4.9-.4.2 16.9.3 16.8 6.3.1 6.2.1-6-.4-6-.4-.2-16.7-.3-16.7-4.7-.3c-2.5-.2-4.8.1-5.1.5zm32 0c-.3.5 5.3.8 12.3.8 7 0 12.6-.3 12.3-.8-.2-.4-5.8-.7-12.3-.7-6.5 0-12.1.3-12.3.7zm-205.5 4c-1.5 1.6-1.9 2.1-.7 1.2 1.1-.9 2.9-2.1 4-2.7 1.1-.6 1.4-1.2.8-1.2-.7 0-2.5 1.2-4.1 2.7zm139.5 1.2c-.4 1.7-.3 2.1.5 1.3.5-.5.8-1.6.6-2.3-.3-.8-.7-.3-1.1 1zm-20.2 1.2c-.4.6-.5 1.2-.2 1.5.2.3.7-.2 1-1.1.7-1.7.1-2-.8-.4zm-25.2 5.4c0 2.7.2 3.8.4 2.2.2-1.5.2-3.7 0-5-.2-1.2-.4 0-.4 2.8zm60.7-3.6c0 .6.4 1.3 1 1.6.6.3.7-.1.4-.9-.7-1.8-1.4-2.1-1.4-.7zm-146.9 2.7c-1.7 1.4-3.1 3-3.1 3.6 0 .6 1.3-.4 3-2.2 2.6-2.8 3.5-3.2 7.4-2.9 2.4.2 4.2.1 3.9-.4-1.1-1.8-8.2-.6-11.2 1.9zm47.6-1.9c1.8.2 5 .2 7 0 2.1-.2.7-.4-3.2-.4-3.8 0-5.5.2-3.8.4zm56.3-.3c0 .2.7.7 1.6 1 .8.3 1.2.2.9-.4-.6-1-2.5-1.4-2.5-.6zm25.7 1.5c-.4 1.7-.3 2.1.5 1.3.5-.5.8-1.6.6-2.3-.3-.8-.7-.3-1.1 1zM572 189c0 2.2.4 4 .8 4s.6-1.6.4-3.4l-.4-3.5 6.3-.4 6.4-.3-6.7-.2-6.8-.2v4zm-193.5-1.2c3 5.7 3.5 6.5 3.5 5.2 0-.8-1-2.6-2.1-4s-1.8-1.9-1.4-1.2zm-27.4.9c-.1.6-.4 2-.7 3-.5 1.7-.5 1.7.6 0 .6-1 .9-2.3.6-3-.3-.9-.5-.9-.5 0zm41 1.3c0 .8.4 2.4.9 3.5.5 1.3.9 1.4.9.5 0-.8-.4-2.4-.9-3.5-.5-1.3-.9-1.4-.9-.5zm121.9-.1c0 .6.4 1.3 1 1.6.6.3.7-.1.4-.9-.7-1.8-1.4-2.1-1.4-.7zm-21.3 2c-.4 1.7-.3 2.1.5 1.3.5-.5.8-1.6.6-2.3-.3-.8-.7-.3-1.1 1zm-28 .2c.7.7 1.5 1 1.8.7.3-.3-.2-.9-1.2-1.2-1.4-.6-1.5-.5-.6.5zm38.5 1c-.7 1-1.2 2.2-1.2 2.6 0 .5.5 0 1.1-1.1.9-1.5 1.3-1.6 2-.5s.9 1.1.9-.3c0-2.5-1.4-2.9-2.8-.7zm-34.5 1c.7.7 1.5 1 1.8.7.3-.3-.2-.9-1.2-1.2-1.4-.6-1.5-.5-.6.5zm117.1 3.4.4 4.4-6.9.3-6.8.3-.3 4.2-.3 4.3 6.8-.2 6.8-.2-6.2-.3-6.3-.4v-6.8l6.8-.3 6.7-.3.3-4.8c.2-2.6-.1-4.7-.5-4.7s-.7 2-.5 4.5zm-225.4-1.1c-.3 1.4-.2 3.1.3 4 .6 1.1.8.3.8-2.4 0-4.6-.2-5-1.1-1.6zm155.6-1.5c0 .6.4 1.3 1 1.6.6.3.7-.1.4-.9-.7-1.8-1.4-2.1-1.4-.7zM349.2 198c0 1.9.2 2.7.5 1.7.2-.9.2-2.5 0-3.5-.3-.9-.5-.1-.5 1.8zm75 0c0 1.9.2 2.7.5 1.7.2-.9.2-2.5 0-3.5-.3-.9-.5-.1-.5 1.8zm49.7-1.2c1.3 1.1 3.3 3 4.3 4.3 1.1 1.3 1.6 1.7 1.2.9-1.2-2.4-3.7-5.1-5.9-6.2-1.5-.7-1.4-.5.4 1zm16.8.1c-.4 1.7-.3 2.1.5 1.3.5-.5.8-1.6.6-2.3-.3-.8-.7-.3-1.1 1zM382.2 198c0 1.4.2 1.9.5 1.2.2-.6.2-1.8 0-2.5-.3-.6-.5-.1-.5 1.3zm124.6.5c.4 2.2.1 2.5-2.8 2.5-2.5 0-3.1-.3-2.6-1.6.3-.8.2-1.2-.4-.9-.6.3-1 1.3-1 2.1 0 1 1.2 1.4 4 1.4 3.6 0 4-.3 4-2.4 0-1.4-.4-2.7-.9-3-.4-.3-.6.6-.3 1.9zm11.2 1.4c0 .6.4 1.3 1 1.6.6.3.7-.1.4-.9-.7-1.8-1.4-2.1-1.4-.7zm-29.3 2c-.4 1.7-.3 2.1.5 1.3.5-.5.8-1.6.6-2.3-.3-.8-.7-.3-1.1 1zm-96.1.6c-.3.9-.6 2.2-.5 2.8 0 .7.5.1 1-1.2s.8-2.6.5-2.8c-.2-.2-.6.3-1 1.2zm71.7.6c2.9 1.5 3.8 2.5 3.5 4.2-.3 1.9-.9 2.2-5 2.2-2.5 0-4.4.3-4.1.7.7 1.3 7.8.9 9.1-.4.7-.7 1.2-2 1.2-2.9 0-1.9-5-5.9-7.2-5.9-.7.1.4 1 2.5 2.1zm-83.2 0c-.1.8-1 2.5-2.1 3.7-1.2 1.2-1.7 2.2-1.2 2.2 1.4 0 4.4-4.9 3.8-6.3-.2-.7-.5-.6-.5.4zm29.6-.4c-.3.5 1.8.7 4.6.5 8.6-.5 9.6-.9 2.5-1.1-3.7 0-6.9.2-7.1.6zm-60.6.8c.1 1.9 1.8 5.1 1.8 3.5 0-.8-.4-2.2-.9-3-.5-.8-.9-1.1-.9-.5zm11.9 1.2c0 .5 1 1.8 2.3 2.9l2.2 1.9-2-2.5c-1.1-1.4-2.1-2.7-2.2-2.9-.2-.2-.3 0-.3.6zm158 .2c0 .6.4 1.3 1 1.6.6.3.7-.1.4-.9-.7-1.8-1.4-2.1-1.4-.7zm-33.3 2c-.4 1.7-.3 2.1.5 1.3.5-.5.8-1.6.6-2.3-.3-.8-.7-.3-1.1 1zm-32 1.2c.7.7 1.5 1 1.8.7.3-.3-.2-.9-1.2-1.2-1.4-.6-1.5-.5-.6.5zm-86.4 2.1c1.6 1 6.4 1 7 0 .3-.4-1.5-.7-3.8-.7-2.4 0-3.9.3-3.2.7zm153.7-.3c0 .6.4 1.3 1 1.6.6.3.7-.1.4-.9-.7-1.8-1.4-2.1-1.4-.7zm-74 2.1c-.6 1.1-.8 2-.6 2 .3 0 1-.9 1.6-2 .6-1.1.8-2 .6-2-.3 0-1 .9-1.6 2zm36.7-.1c-.4 1.7-.3 2.1.5 1.3.5-.5.8-1.6.6-2.3-.3-.8-.7-.3-1.1 1zm-98.3 2.2c-2 2.2-2.3 2.8-.8 1.9 1.8-1.1 5-5 4.1-5-.2 0-1.6 1.4-3.3 3.1zm92.2-1.4c-.6 1.4-.5 1.5.5.6.7-.7 1-1.5.7-1.8-.3-.3-.9.2-1.2 1.2zm25.3-.8c7.2.5 8.5.9 9.2 2.6.5 1.4.8 1.5.8.4.2-3.1-2.1-3.9-10.3-3.7l-8.1.2 8.4.5zM356 214.5c1.3 1.4 2.6 2.5 2.8 2.5.3 0-.5-1.1-1.8-2.5s-2.6-2.5-2.8-2.5c-.3 0 .5 1.1 1.8 2.5zm138.6.2c-.6 1.4-.5 1.5.5.6.7-.7 1-1.5.7-1.8-.3-.3-.9.2-1.2 1.2zm29.4.2c0 .6.4 1.3 1 1.6.6.3.7-.1.4-.9-.7-1.8-1.4-2.1-1.4-.7zm-40.8 2.1c0 1.4.2 1.9.5 1.2.2-.6.2-1.8 0-2.5-.3-.6-.5-.1-.5 1.3zm-32.2.4c0 .2.7.7 1.6 1 .8.3 1.2.2.9-.4-.6-1-2.5-1.4-2.5-.6zm-85 2.6c.8.5 2.4 1 3.4 1 2.6 0 1.8-.6-1.9-1.4-2.2-.5-2.6-.4-1.5.4zm8.5 0c-1.3.5-1.4.9-.5.9.8 0 2.4-.4 3.5-.9 1.3-.5 1.4-.9.5-.9-.8 0-2.4.4-3.5.9zm29.8-.3c.9.2 2.5.2 3.5 0 .9-.3.1-.5-1.8-.5-1.9 0-2.7.2-1.7.5zm53.2.3c1.1.5 2.9.8 4 .8 1.6 0 1.5-.2-.5-.8-3.4-1.1-6-1.1-3.5 0zm8.5 0c-2 .6-2.1.8-.5.8 1.1 0 2.9-.3 4-.8 2.5-1.1-.1-1.1-3.5 0zm20.3-.3c.9.2 2.5.2 3.5 0 .9-.3.1-.5-1.8-.5-1.9 0-2.7.2-1.7.5zm32 0c.9.2 2.5.2 3.5 0 .9-.3.1-.5-1.8-.5-1.9 0-2.7.2-1.7.5zm19.5 0c2.8.2 7.6.2 10.5 0 2.8-.2.5-.3-5.3-.3s-8.1.1-5.2.3zm32 0c2.8.2 7.6.2 10.5 0 2.8-.2.5-.3-5.3-.3s-8.1.1-5.2.3z"/><g fill="#404040" stroke-width="0"><path d="M437.3 110.7c.9.2 2.5.2 3.5 0 .9-.3.1-.5-1.8-.5-1.9 0-2.7.2-1.7.5zm-52.3.9c8.2.8 19.8.8 19.3.1-.2-.4-5.5-.6-11.6-.5-6.2.1-9.6.3-7.7.4zm42 1.9c-1.9 1.4-3.1 2.5-2.6 2.5.4 0 2-.8 3.4-1.9 1.5-1 3.4-2.1 4.2-2.4 1.3-.5 1.3-.5 0-.6-.8 0-3.1 1.1-5 2.4zm20.2-1.1c1.6.8 3.4 1.8 4 2.1.7.4.2-.3-1.2-1.4-1.4-1.1-3.2-2.1-4-2.1-.8 0-.3.7 1.2 1.4zm25-.7 4.8.4.3 20.7.3 20.7-.1-21v-21l-5-.1-5-.1 4.7.4zm18.3 0c2.7.3 5.6 1 6.5 1.6 1.3 1.1 1.3 1 .1-.6-1-1.3-2.6-1.7-6.5-1.5l-5.1.2 5 .3zm27.3 0 4.3.4-.3 20.5c-.2 11.2 0 20.4.5 20.4.4 0 .7-9.5.7-21v-21l-4.7.2-4.8.1 4.3.4zm26.5 0 14.7.4v2.9c0 2.6-.4 2.9-3.7 3.3l-3.8.4 4-.1c3.9-.1 4-.2 4-3.6v-3.5h-15l-15-.1 14.8.3zm-45.3 5.2c.5 1.1 1.5 2.3 2.1 2.7.6.3.3-.5-.6-2-2-3-3-3.5-1.5-.7zm-88.5 7.1c0 3.7.3 6.6.8 6.3.4-.2.7-3.1.7-6.3 0-3.2-.3-6.1-.7-6.3-.5-.3-.8 2.6-.8 6.3zm10.7-4.9c-1.9 3-1.1 3.2 1.1.3 1-1.3 1.4-2.4 1-2.4-.5 0-1.4.9-2.1 2.1zm34.4.1c1 1.4 2.1 2.4 2.3 2.2.3-.3-.6-1.5-1.8-2.7l-2.4-2.2 1.9 2.7zm-61.8-.5c.6.2 1.8.2 2.5 0 .6-.3.1-.5-1.3-.5-1.4 0-1.9.2-1.2.5zm138 0c1.2.2 3 .2 4 0 .9-.3-.1-.5-2.3-.4-2.2 0-3 .2-1.7.4zm-140.6 4.8c-.2 6.9.7 8.1 5 6.8l3.3-1.1-3.5.1-3.5.2-.6-5.5-.6-5.5-.1 5zM434 120c-.9.6-1 1-.3 1 .6 0 1.5-.5 1.8-1 .8-1.2.4-1.2-1.5 0zm8.7.1c.7.7 1.5 1 1.8.7.3-.3-.2-.9-1.2-1.2-1.4-.6-1.5-.5-.6.5zM549 135.7c-.3 9.5-.2 16.9.3 16.4.4-.4.6-8.1.5-17.2l-.3-16.4-.5 17.2zm-45.5-12c3.4 5.3 4.5 6.7 4.5 6 0-1-5.1-8.7-5.7-8.7-.3 0 .3 1.2 1.2 2.7zm-85 .4c-.4.6-.5 1.2-.2 1.5.2.3.7-.2 1-1.1.7-1.7.1-2-.8-.4zm40.3 1.6c.5 2.1.7 2.3 1 .9.2-1 0-2.2-.6-2.8-.6-.6-.7 0-.4 1.9zm-30.2 0c-.6 1.4-.5 1.5.5.6.7-.7 1-1.5.7-1.8-.3-.3-.9.2-1.2 1.2zm19.4-.8c0 .6.4 1.3 1 1.6.6.3.7-.1.4-.9-.7-1.8-1.4-2.1-1.4-.7zm-20.7 7.6c0 2.2.2 3 .4 1.7.2-1.2.2-3 0-4-.3-.9-.5.1-.4 2.3zm68.1 9c0 6.6.1 9.2.3 5.7.2-3.4.2-8.8 0-12-.2-3.1-.3-.3-.3 6.3zm13.6-10c0 1.5 2.9 5.5 4.1 5.5.5 0 .9-.5.9-1.2 0-.6-.3-.8-.7-.5-.3.4-1.5-.5-2.5-2-1-1.6-1.8-2.3-1.8-1.8zM404 136c-.9.6-1 1-.3 1 .6 0 1.5-.5 1.8-1 .8-1.2.4-1.2-1.5 0zm55.2 2c0 1.4.2 1.9.5 1.2.2-.6.2-1.8 0-2.5-.3-.6-.5-.1-.5 1.3zm-67.8.3c-.3.8-.4 4.5-.2 8.3l.3 6.9.5-8.3c.5-8.2.4-9.4-.6-6.9zm57.2.4c-.6 1.4-.5 1.5.5.6.7-.7 1-1.5.7-1.8-.3-.3-.9.2-1.2 1.2zm-30.6.7c0 .8.4 1.7.9 2 .5.4.7-.3.4-1.4-.6-2.3-1.3-2.6-1.3-.6zm12.4 2.5c.7 1.1 4.6 3.5 4.6 2.8 0-.3-1.2-1.2-2.6-2.2-1.5-.9-2.3-1.2-2-.6zm14.6 1.2c-2.2 1.8-2.2 1.9-.3 1 1.2-.6 2.5-1.6 2.8-2.1.9-1.5.3-1.2-2.5 1.1zm62.1.9c1.4 3.1 1.9 3.6 1.9 2.4 0-.6-.7-1.9-1.6-3-1.4-1.8-1.4-1.8-.3.6zm-69.3 1.7c.6.2 1.8.2 2.5 0 .6-.3.1-.5-1.3-.5-1.4 0-1.9.2-1.2.5zm-13.8 2.8c1.3 1.4 2.6 2.5 2.8 2.5.3 0-.5-1.1-1.8-2.5s-2.6-2.5-2.8-2.5c-.3 0 .5 1.1 1.8 2.5zm28.9.2-2.4 2.8 2.8-2.4c2.5-2.3 3.2-3.1 2.4-3.1-.2 0-1.4 1.2-2.8 2.7zm57.1.2c0 .6.4 1.3 1 1.6.6.3.7-.1.4-.9-.7-1.8-1.4-2.1-1.4-.7zm-81.3 3.2c.7.7 1.5 1 1.8.7.3-.3-.2-.9-1.2-1.2-1.4-.6-1.5-.5-.6.5zm19.3-.1c-.9.6-1 1-.3 1 .6 0 1.5-.5 1.8-1 .8-1.2.4-1.2-1.5 0zm-13.7 2.2c.7.4 2.8.8 4.7.8 1.9 0 4-.4 4.7-.8.6-.4-1.5-.7-4.7-.7s-5.3.3-4.7.7zm-65.7 21.7c-1.2.4.1.7 3.4.7s4.6-.3 3.4-.7c-1.1-.4-2.6-.8-3.4-.8-.8 0-2.3.4-3.4.8zm93.9 0c-1.3.5-.3.8 3 .8s4.3-.3 3-.8c-1.1-.4-2.4-.8-3-.8-.5 0-1.9.4-3 .8zm-99.7 1.8c.7.3 1.6.2 1.9-.1.4-.3-.2-.6-1.3-.5-1.1 0-1.4.3-.6.6zm16.2-.3c0 .2.7.7 1.6 1 .8.3 1.2.2.9-.4-.6-1-2.5-1.4-2.5-.6zm21.2 20.3.3 20.8 4.8.3 4.7.3-.2-7.8-.2-7.8-.3 7.2-.4 7.3h-8l.3-20.5c.2-11.3 0-20.5-.5-20.5-.4 0-.6 9.3-.5 20.7zm23.8-20c.5.2 1 1.8 1 3.3 0 2.9 0 2.9-7.2 3.3l-7.3.4 7.5-.1 7.5-.1v-3.4c0-2-.5-3.5-1.3-3.7-.7-.1-.8 0-.2.3zm31.1 2.4c-1.7 1.7-3.1 3.5-3.1 4.1 0 .6.9-.1 2.1-1.6 1.1-1.4 3-3.3 4.2-4.1 1.2-.8 1.6-1.5 1-1.5-.6 0-2.5 1.4-4.2 3.1zm17.9-2.7c0 .2.7.7 1.6 1 .8.3 1.2.2.9-.4-.6-1-2.5-1.4-2.5-.6zm26 1.1c-.7.9-1.1 1.7-.9 2 .3.2 1-.5 1.7-1.5 1.4-2.4 1-2.6-.8-.5zm9.6 0c.4.8.8 1.5 1 1.5.2 0 .4-.7.4-1.5s-.4-1.5-1-1.5c-.5 0-.7.7-.4 1.5zm21.8-.2c-.2.7-.3 10-.2 20.7l.3 19.5h25v-7l-6.5-.1-6.5-.1 6.3.4c6.1.4 6.2.4 6.2 3.3v3h-24v-19.9c0-15 .3-20.1 1.3-20.4.9-.4.9-.6-.1-.6-.7-.1-1.5.5-1.8 1.2zm32 0c-.2.7-.3 10-.2 20.7l.3 19.5h25v-7l-6.5-.1-6.5-.1 6.3.4c6.1.4 6.2.4 6.2 3.3v3h-24v-19.9c0-15 .3-20.1 1.3-20.4.9-.4.9-.6-.1-.6-.7-.1-1.5.5-1.8 1.2zm23.6-.6c.5.2 1 1.8 1 3.3 0 2.8-.1 2.9-6.2 3.3l-6.3.4 6.5-.1 6.5-.1v-3.4c0-2-.5-3.5-1.3-3.7-.7-.1-.8 0-.2.3zM355.8 183c-2.1 2.3-3.8 4.6-3.8 5.2 0 .7 1.1-.4 2.5-2.3s3.6-4.2 4.8-5.1c1.2-1 1.8-1.8 1.3-1.8s-2.6 1.8-4.8 4zm30.2-.7c1.9 2 3.6 3.7 3.8 3.7.9 0-2.9-4.4-5-5.8-1.4-1-1-.2 1.2 2.1zm91.1-1.7c0 1.1.3 1.4.6.6.3-.7.2-1.6-.1-1.9-.3-.4-.6.2-.5 1.3zm33.6 2.5c.4 1.3.8 1.8 1.1 1 .2-.7-.1-1.8-.6-2.3-.8-.8-.9-.4-.5 1.3zm-14.2 1c-.4.6-.5 1.2-.2 1.5.2.3.7-.2 1-1.1.7-1.7.1-2-.8-.4zm-31.7.6c1.2.2 3 .2 4 0 .9-.3-.1-.5-2.3-.4-2.2 0-3 .2-1.7.4zm10.2.2c0 .8-.8 1.1-2 .8-1.1-.3-1.8-.1-1.4.4.3.5 1.1.9 1.9.9 1.6 0 3-1.8 2.1-2.7-.3-.4-.6-.1-.6.6zm-111.1 2.8-2.4 2.8 3-2.5c1.7-1.4 3.2-2.6 3.4-2.8.2-.1 0-.2-.6-.2-.5 0-2 1.2-3.4 2.7zm13.4-1.3c1 .8 2.5 2.3 3.3 3.3 1.4 1.7 1.4 1.6.4-.4-.6-1.3-2-2.7-3.3-3.3-2-1-2.1-1-.4.4zm31.9 2.6c0 1.9.2 2.7.5 1.7.2-.9.2-2.5 0-3.5-.3-.9-.5-.1-.5 1.8zm51.3-2c-.3.5-.2 1.8.4 2.7.7 1.4.9 1.2.8-1-.2-3-.3-3.1-1.2-1.7zm52.2 1.1c.4 1.3.8 1.8 1.1 1 .2-.7-.1-1.8-.6-2.3-.8-.8-.9-.4-.5 1.3z"/><path d="M571.2 189c0 1.9.2 2.7.5 1.7.2-.9.2-2.5 0-3.5-.3-.9-.5-.1-.5 1.8zm-180.6-.7c.3 1 .9 1.5 1.2 1.2.3-.3 0-1.1-.7-1.8-1-.9-1.1-.8-.5.6zm103.9.8c-.4.6-.5 1.2-.2 1.5.2.3.7-.2 1-1.1.7-1.7.1-2-.8-.4zm-143.9 3.4c-.3.9-.6 2.2-.5 2.8 0 .7.5.1 1-1.2s.8-2.6.5-2.8c-.2-.2-.6.3-1 1.2zm152 .2c-.6 1.4-.5 1.5.5.6.7-.7 1-1.5.7-1.8-.3-.3-.9.2-1.2 1.2zm12.1.4c.4 1.3.8 1.8 1.1 1 .2-.7-.1-1.8-.6-2.3-.8-.8-.9-.4-.5 1.3zm-154.1.4c-.9 2.6-.7 3.2.5 1.2.6-1 .9-2.1.6-2.3-.2-.3-.7.2-1.1 1.1zm31.8 3.8c.1 3 .4 5 .8 4.4 1-1.5.9-5.6-.1-8.1-.4-1.1-.7.4-.7 3.7zm59.6-4.7c0 1.5 4.9 6.4 6.4 6.4.6 0 .1-.7-1.1-1.5-1.2-.9-2.9-2.6-3.8-3.8-.8-1.2-1.5-1.7-1.5-1.1zm-69.6 5.4c0 4.5.1 4.9.9 2.7.5-1.6.5-3.8 0-5.4-.8-2.2-.9-1.8-.9 2.7zm34.4-4.3 6.2.4v6.9h-6.5c-3.6 0-6.5.3-6.5.7 0 .5 3.2.6 7.1.5l7-.4-.3-4.1-.3-4.2-6.5-.1h-6.5l6.3.3zm49.2-.3c0 .2.7.7 1.6 1 .8.3 1.2.2.9-.4-.6-1-2.5-1.4-2.5-.6zm26.5.7c-.4.6-.5 1.2-.2 1.5.2.3.7-.2 1-1.1.7-1.7.1-2-.8-.4zm85.5-.4c3.5.2 6.8.9 7.3 1.6.6.8.7.8.4-.3-.3-1.1-2-1.5-7.3-1.6l-6.9-.1 6.5.4zm-72 1.2c0 .5.5 1.3 1 1.6.6.3 1 .2 1-.4 0-.5-.4-1.3-1-1.6-.5-.3-1-.2-1 .4zm-35 .4c0 .3 1.7 1.7 3.7 3.3 2 1.5 3.3 2.3 2.9 1.6-.8-1.3-6.6-5.6-6.6-4.9zm29.7 1.6c-.4 1.7-.3 2.1.5 1.3.5-.5.8-1.6.6-2.3-.3-.8-.7-.3-1.1 1zm16 1.2c.4 1.3.8 1.8 1.1 1 .2-.7-.1-1.8-.6-2.3-.8-.8-.9-.4-.5 1.3zm-8.7 2.3c0 1-1.4 1.6-4.2 1.9l-4.3.4 4.8.1c4.1.2 4.7-.1 4.7-1.8 0-1.1-.2-2-.5-2s-.5.6-.5 1.4zm-157.9.6c0 .8.4 2.2.9 3 1.2 1.8 1.2.2 0-2.5-.6-1.3-.9-1.5-.9-.5zm9.9-.5c0 .5.5 1.7 1 2.5s1 1 1 .5c0-.6-.5-1.7-1-2.5s-1-1.1-1-.5zm219.5.2c-3.3.2-6.3.7-6.7 1.1-.4.4 2.4.6 6.2.4 3.9-.2 7-.8 7-1.3s-.1-.8-.2-.7c-.2.1-3 .3-6.3.5zm-60.8 2.4c.4 1.3.8 1.8 1.1 1 .2-.7-.1-1.8-.6-2.3-.8-.8-.9-.4-.5 1.3zm-40.2 3.7c-.1 2.6-.4 5.6-.9 6.7-.4 1.2-.1 1 .8-.5 1.6-2.6 2.2-9.5.9-10.3-.5-.3-.8 1.6-.8 4.1zm-10.4-2.1c1.2 2 1.2 2.6 0 4.5-1.3 2.1-1.3 2.2.2.9 1-.7 1.7-2.1 1.7-3.1s-.7-2.4-1.7-3.1c-1.5-1.3-1.5-1.2-.2.8zm20.4-.6c-.4.6-.5 1.2-.2 1.5.2.3.7-.2 1-1.1.7-1.7.1-2-.8-.4zm82.7 2.9c0 1.9.2 2.7.5 1.7.2-.9.2-2.5 0-3.5-.3-.9-.5-.1-.5 1.8zm-206.4 1.7c1.3 1.3 2.8 2.3 3.5 2.3.7 0 .3-.6-.8-1.2s-2.7-1.6-3.5-2.2c-.9-.6-.5-.1.8 1.1zm25.8-1c-.6 1.4-.5 1.5.5.6.7-.7 1-1.5.7-1.8-.3-.3-.9.2-1.2 1.2zm130.1.4c.4 1.3.8 1.8 1.1 1 .2-.7-.1-1.8-.6-2.3-.8-.8-.9-.4-.5 1.3zm-168.7-.4c0 1.5 7 9.3 8.3 9.3.7 0 .4-.5-.6-1.1-1-.6-3.1-2.9-4.7-5.1-1.7-2.3-3-3.7-3-3.1zm98.9 1c-1.3 1.6-1.2 1.7.3.5.9-.8 2.3-1 2.9-.6.8.4.9.3.5-.4-1-1.7-2.1-1.5-3.7.5zm-75.4 1.3c-.3.6.1.7.9.4 1.8-.7 2.1-1.4.7-1.4-.6 0-1.3.4-1.6 1zm80.5-.6c0 .2.7.7 1.6 1 .8.3 1.2.2.9-.4-.6-1-2.5-1.4-2.5-.6zm-70.1 4.3-3.4 3.8 3.8-3.4c2-1.9 3.7-3.6 3.7-3.8 0-.8-.8 0-4.1 3.4zm114.4-3c2 .2 5.4.2 7.5 0 2-.2.3-.4-3.8-.4s-5.8.2-3.7.4zm-51.7 1.9c-.7 1.8 1 4.4 2.8 4.4.6 0 .3-.5-.7-1.1-1.2-.7-1.6-1.7-1.2-3 .8-2.3 0-2.6-.9-.3zm13.2-.9c.6.2 1.8.2 2.5 0 .6-.3.1-.5-1.3-.5-1.4 0-1.9.2-1.2.5zm32.8.8c-.9 2.6-.7 3.2.5 1.2.6-1 .9-2.1.6-2.3-.2-.3-.7.2-1.1 1.1zm17.9-.5c.3.5.8 1 1.1 1 .2 0 .4-.5.4-1 0-.6-.5-1-1.1-1-.5 0-.7.4-.4 1zm10.2 1.1c.4 1.3.8 1.8 1.1 1 .2-.7-.1-1.8-.6-2.3-.8-.8-.9-.4-.5 1.3zm-38.2 1c-.4.6-.5 1.2-.2 1.5.2.3.7-.2 1-1.1.7-1.7.1-2-.8-.4zm29.5 1.4c0 2.2 2.6 3.5 7.2 3.5s6.1-1.1 3.6-2.6c-.7-.4-.8-.3-.4.4.5.9-.6 1.2-3.8 1.2-3.2 0-4.8-.5-5.5-1.8-.6-.9-1.1-1.2-1.1-.7zm-21 1.3c0 .7-1.9 1.3-4.7 1.4l-4.8.1 4.4.4c4.1.4 7.3-.9 5.8-2.4-.4-.3-.7-.1-.7.5zM380 218c-.9.6-1 1-.3 1 .6 0 1.5-.5 1.8-1 .8-1.2.4-1.2-1.5 0zm73.8.2c.5.5 1.6.8 2.3.6.8-.3.3-.7-1-1.1-1.7-.4-2.1-.3-1.3.5zm18.2-.2c-.9.6-1 1-.3 1 .6 0 1.5-.5 1.8-1 .8-1.2.4-1.2-1.5 0zm-109.2.7c.7.3 1.6.2 1.9-.1.4-.3-.2-.6-1.3-.5-1.1 0-1.4.3-.6.6zm6.5 1.4c1.6.4 3.8.4 5 0 1.5-.6.6-.8-2.9-.8-4.1 0-4.4.1-2.1.8zm90.1-.4c.2.3 2.1.5 4.1.5 2 0 3.9-.2 4.2-.5.2-.3-1.6-.5-4.2-.5s-4.4.2-4.1.5z"/></g><path d="M430.3 112.6c-14 6.9-16.6 25.9-5 36.1 7.9 6.9 19.5 6.9 27.3.1 4.4-3.9 6.1-7.2 6.9-13.4C461.3 122 452 111 439 111c-3 0-7 .8-8.7 1.6zm16.3 9.8c3.1 3.1 3.4 3.9 3.4 9.6 0 7.4-2.2 11.3-7.5 13-12.8 4.2-21-14.5-10.4-23.5 4.6-3.8 10.1-3.5 14.5.9zm-64.4 9.8.3 20.3 4.2.3 4.2.3.3-7.8.3-7.8 6-.5c10.2-.9 13.5-4.1 13.5-13 0-5.9-.8-7.6-5-10.4-1.9-1.2-4.9-1.6-13.2-1.6H382l.2 20.2zm18.5-12c.9.7 1.3 2.5 1.1 4.7-.3 3.3-.7 3.7-4.6 5.1-3.8 1.3-4.4 1.3-5.2 0-1.4-2.2-1.2-10.7.3-11.4 1.7-.7 6.7.2 8.4 1.6zm67.5 12 .3 20.3 4.3.3 4.2.3V112h-9l.2 20.2zm18 0 .3 20.3 4.3.3 4.2.3v-11.3c0-9.8.9-15.3 2.3-13.8 1.2 1.4 10.8 16.2 13.2 20.3 2.7 4.6 2.9 4.8 6.9 4.5l4.1-.3.3-20.3.2-20.2h-8v12.5c0 7.6-.4 12.5-1 12.5-.5 0-2.2-1.9-3.7-4.3-1.4-2.3-5-7.9-8-12.5l-5.4-8.2H486l.2 20.2zM530 115c0 2.6.4 3 2.8 3 1.5 0 3.7.3 4.9.6 2.2.6 2.3 1 2.5 17.3l.3 16.6h8l.3-16.5c.2-11.6.6-16.6 1.5-17.2.6-.4 2.9-.8 5-.8 3.4 0 3.7-.2 3.7-3v-3h-29v3zm-163.7 62.1c-6.1 1.4-12.7 8.3-14.8 15.4-1.4 5-1.4 6 0 10.8 1.8 6.3 6.1 11.8 11.1 14.2 4.5 2.1 14.1 2.2 18 .2 3.4-1.8 8.6-7.1 10.5-10.7 1.8-3.5 1.6-14.8-.3-18.5-4.9-9.3-14.4-13.7-24.5-11.4zm12.4 9.4c2.6 1.9 5.7 10.6 4.8 13.7-1.9 6.1-3.8 8.7-7.5 10.2-6.3 2.5-11.9.1-14.6-6.2-2.5-6-1.5-11.9 3-17 1.5-1.7 3-2.2 7.1-2.2 2.9 0 6 .6 7.2 1.5zm82.7-9.4c-1.8.5-4.6 2.5-6.3 4.4-6 6.9-3.3 13.4 7.9 19.3 6.3 3.4 8 5.4 6.4 7.9-2 3.2-6.6 3.7-12 1.4-5.2-2.3-6.5-1.9-7.9 2.7-.6 2-.1 2.5 4 4.3 5.6 2.5 15 2.7 19.4.4 3.8-1.9 6.1-6.2 6.1-11.1 0-4.5-4.1-8.7-12.3-12.8-6.2-3-7.5-5-5.1-7.7 1.9-2.2 6.1-2.4 9.9-.7 2.2 1 2.7.9 4-.8.8-1 1.5-2.6 1.5-3.5 0-3-10-5.4-15.6-3.8zm-59.7.6c-.4.3-.7 9.6-.7 20.5V218h8v-6.3c0-10.5.2-10.7 7.6-10.7h6.4v-7h-6.4c-6.7 0-7.6-.6-7.6-5.4 0-3.6 1.9-4.6 9.2-4.6h6.8v-2.9c0-1.7-.6-3.1-1.6-3.5-2.1-.8-20.9-.8-21.7.1zm98.6.5c-.6.7-2.8 5.6-4.9 10.8-2 5.2-4.1 9.9-4.5 10.5-.5.5-.9 1.5-.9 2.2 0 .7-.8 3.2-1.9 5.6-2.6 5.9-4.1 9.7-4.1 10.2 0 .3 2 .5 4.4.5 4.2 0 4.5-.2 5.6-3.4 1.3-4.1 2.4-4.6 9.8-4.6 8.1 0 9.7.7 10.8 4.3.8 2.9 1.3 3.2 5.6 3.5l4.7.3-8.2-20.3-8.2-20.3-3.6-.3c-2.1-.2-4 .2-4.6 1zm6.4 15.6c.7 1.5 1.5 4.2 1.9 6l.7 3.2h-4.7c-5.3 0-5.7-1.1-3-8 1.9-4.7 3.4-5.1 5.1-1.2zm25.6-16.2c-1 .4-1.3 5.5-1.3 20.5V218h24v-3c0-3-.1-3-5.2-3-10.4 0-9.7 1.1-10-17.9l-.3-16.6-3-.2c-1.6-.1-3.6 0-4.2.3zm32 .1c-1 .3-1.3 5.4-1.3 20.4V218h24v-3c0-3-.1-3-5.4-3-7.6 0-10.6-1.3-10.6-4.5 0-5.3 1.5-6.5 8-6.5 6.4 0 7.5-.8 6.6-4.6-.6-2.2-1.1-2.4-7-2.4-6.8 0-7.6-.6-7.6-5.6 0-3.1 3.2-4.4 10.6-4.4 5.3 0 5.4-.1 5.4-2.9 0-1.7-.6-3.1-1.6-3.5-1.9-.7-19.3-.7-21.1.1z"/><path fill="#BFFFFF" d="M244 114c0 .5.5 1 1 1 .6 0 1-.5 1-1 0-.6-.4-1-1-1-.5 0-1 .4-1 1zm8 0c0 .5.9 1 2 1s2-.5 2-1c0-.6-.9-1-2-1s-2 .4-2 1zm-3.5 2c.3.5.8 1 1.1 1 .2 0 .4-.5.4-1 0-.6-.5-1-1.1-1-.5 0-.7.4-.4 1zm-7.5 2c-1.3.8-1.3 1 .2 1 .9 0 2-.5 2.3-1 .8-1.3-.5-1.3-2.5 0zm30.5 0c-.3.6.1.7.9.4 1.8-.7 2.1-1.4.7-1.4-.6 0-1.3.4-1.6 1zm-7.2.7c.9.2 2.3.2 3 0 .6-.3-.1-.5-1.8-.5-1.6 0-2.2.2-1.2.5zm25.5 0c.6.2 1.8.2 2.5 0 .6-.3.1-.5-1.3-.5-1.4 0-1.9.2-1.2.5zm6.2 1.3c0 .5.5 1 1 1 .6 0 1-.5 1-1 0-.6-.4-1-1-1-.5 0-1 .4-1 1zm-.5 8c-.3.5-.2 1 .4 1 .5 0 1.3-.5 1.6-1 .3-.6.2-1-.4-1-.5 0-1.3.4-1.6 1zm-61.3 5c0 1.4.2 1.9.5 1.2.2-.6.2-1.8 0-2.5-.3-.6-.5-.1-.5 1.3zm65.9-.4c0 1.1.3 1.4.6.6.3-.7.2-1.6-.1-1.9-.3-.4-.6.2-.5 1.3zm-4.8 2.9c-.9 2.5.4 2.9 1.7.6.7-1.5.7-2.1 0-2.1-.6 0-1.3.7-1.7 1.5zM232 138c0 .5.5 1 1 1 .6 0 1-.5 1-1 0-.6-.4-1-1-1-.5 0-1 .4-1 1zm2.8 3.9c-.5 3.2.5 4.2 1.6 1.5.3-.9.2-2.3-.3-3.1-.6-1.2-.9-.8-1.3 1.6zm62.2-.1c0 .7.8 1.2 1.7 1 2.4-.4 2.7-2.4.3-2.4-1.1 0-2 .6-2 1.4zm25 4.2c0 .5.7 1 1.6 1 .8 0 1.2-.5.9-1-.3-.6-1-1-1.6-1-.5 0-.9.4-.9 1zm-110.9 2.6c0 1.1.3 1.4.6.6.3-.7.2-1.6-.1-1.9-.3-.4-.6.2-.5 1.3zm106.9.3c0 .6.4 1.3 1 1.6.6.3.7-.1.4-.9-.7-1.8-1.4-2.1-1.4-.7zm4.8 1.3c.7.7 1.2 3.4 1.2 6s.5 4.8 1 4.8c1.6 0 1.2-8.9-.4-10.6-.8-.8-1.8-1.4-2.2-1.4-.5 0-.3.5.4 1.2zm-1.4 15.3c-.4 1.8-.1 3.2 1.2 4.6 2.1 2.4 4.1 1 2.5-1.8-.6-1-1.1-1.2-1.1-.6 0 2.2-2 1.4-2-.7 0-1.1.5-2 1-2 .6 0 1-.5 1-1 0-2.1-2-.9-2.6 1.5zm-110.3 7.1c0 1.1.3 1.4.6.6.3-.7.2-1.6-.1-1.9-.3-.4-.6.2-.5 1.3zm-1.5 18.7c.3 1 .9 1.5 1.2 1.2.3-.3 0-1.1-.7-1.8-1-.9-1.1-.8-.5.6zm-3.6.7c0 .5.5 1 1 1 .6 0 1-.5 1-1 0-.6-.4-1-1-1-.5 0-1 .4-1 1zm114.7-.3c-1.1 1-.8 5.3.3 5.3.6 0 1-1.4 1-3 0-3.1-.2-3.5-1.3-2.3zm-.7 9.8c0 1.8-1.6 2-2.4.2-.3-.6-.3-.2 0 1 .3 1.3.1 2.3-.5 2.3s-1.1.9-1.1 2c0 1.3.7 2 2 2 1.5 0 2-.7 2-2.6 0-1.7.6-2.8 2-3.1 2.4-.6 2.6-1.9.4-2.7-2.2-.9-2.4-.8-2.4.9zm-99 4.3c0 1 6.1 3.3 7.1 2.6 1.1-.7 1.2-3.4.1-3.4-.4 0-1.4.6-2.1 1.2-1.1 1-1.4 1-1.8 0-.5-1.3-3.3-1.7-3.3-.4zm-5.4 2.7c-.3.9 0 1.5.9 1.5 1.6 0 2-1.6.6-2.4-.5-.3-1.1.1-1.5.9zm83.1 1.2c-1.3 1.3-.7 5.3.8 5.3 1 0 1.5-1 1.5-3 0-2.9-.9-3.8-2.3-2.3zm-1.6 9.7c-.9 1.1-.8 1.5.5 2 2 .8 3.9-.7 3-2.3-1-1.5-2.1-1.4-3.5.3zm2.9.6c0 .5-.4 1-1 1-.5 0-1-.5-1-1 0-.6.5-1 1-1 .6 0 1 .4 1 1zm-65 5.2c0 1.9.2 2 1 .8 1.3-1.9 1.3-3 0-3-.5 0-1 1-1 2.2zm58.2 1.4c-.7.8-.8 1.4-.3 1.4 1 0 2.5-1.9 2-2.5-.2-.1-1 .3-1.7 1.1zM224 228c0 .5.5 1 1 1 .6 0 1-.5 1-1 0-.6-.4-1-1-1-.5 0-1 .4-1 1zm4 0c0 .5.5 1 1 1 .6 0 1-.5 1-1 0-.6-.4-1-1-1-.5 0-1 .4-1 1zm33.8.2c.6.6 1.8.8 2.8.6 1.4-.3 1.2-.5-.9-1-1.9-.3-2.5-.2-1.9.4zm-15.6 1.7c-1.2 1-2.2 2.3-2.2 3 0 1.3-.3 1.4 4.5-.4 2.8-1 3.3-1.4 1.8-1.5-3.5 0-2.7-2 .7-2 1.7 0 3 .4 3 1 0 1.5 1.7 1.2 2.4-.5.9-2.3-7.5-2-10.2.4zM234 231c0 1.6.7 2 3.1 2 1.7 0 2.8-.4 2.4-1-.3-.6-1.3-1-2.1-1s-1.4-.5-1.4-1c0-.6-.4-1-1-1-.5 0-1 .9-1 2zm46-.5c0 .8.5 1.5 1 1.5.6 0 1-.7 1-1.5s-.4-1.5-1-1.5c-.5 0-1 .7-1 1.5zm-54 1.5c0 .5.5 1 1 1 .6 0 1-.5 1-1 0-.6-.4-1-1-1-.5 0-1 .4-1 1zm48 0c0 .5.5 1 1.1 1 .5 0 .7-.5.4-1-.3-.6-.8-1-1.1-1-.2 0-.4.4-.4 1z"/><path fill="#FFBFBF" d="M250 113.6c0 1.6 2.7 3 4.5 2.3 1.9-.7 1.9-.8-.2-.8-1.3-.1-2.3-.6-2.3-1.1 0-.6-.4-1-1-1-.5 0-1 .3-1 .6zm-6 2.4c0 .5.9 1 2 1s2-.5 2-1c0-.6-.9-1-2-1s-2 .4-2 1zm30 0c0 .5 1.4 1 3 1 1.7 0 3-.5 3-1 0-.6-1.3-1-3-1-1.6 0-3 .4-3 1zm45 30.6c0 .8.5 1.2 1 .9.6-.3 1-1 1-1.6 0-.5-.4-.9-1-.9-.5 0-1 .7-1 1.6zM208.2 159c0 1.4.2 1.9.5 1.2.2-.6.2-1.8 0-2.5-.3-.6-.5-.1-.5 1.3zm110.8 8.9c0 .6.4 1.3 1 1.6.6.3.7-.1.4-.9-.7-1.8-1.4-2.1-1.4-.7zM208 185c0 1.1.2 2 .4 2s.6-.9.9-2c.3-1.1.1-2-.4-2s-.9.9-.9 2zm114.5 9c-.3.5-.1 1 .4 1 .6 0 1.1-.5 1.1-1 0-.6-.2-1-.4-1-.3 0-.8.4-1.1 1zM232 207.4c0 .9.5 1.6 1 1.6.6 0 1-.4 1-.9 0-.6-.4-1.3-1-1.6-.5-.3-1 .1-1 .9zm64 .6c0 .5.5 1 1 1 .6 0 1-.5 1-1 0-.6-.4-1-1-1-.5 0-1 .4-1 1zm-21.2 22.7c.7.3 1.6.2 1.9-.1.4-.3-.2-.6-1.3-.5-1.1 0-1.4.3-.6.6zm-34.3 1.3c-.3.5-.1 1 .4 1 .6 0 1.1-.5 1.1-1 0-.6-.2-1-.4-1-.3 0-.8.4-1.1 1zm26 0c-.3.5-.1 1 .4 1 .6 0 1.1-.5 1.1-1 0-.6-.2-1-.4-1-.3 0-.8.4-1.1 1z"/><path fill="#BFFFBF" d="M278 114c0 .5.5 1 1 1 .6 0 1-.5 1-1 0-.6-.4-1-1-1-.5 0-1 .4-1 1zm-22.5 5c-.3.5-.1 1 .4 1 .6 0 1.1-.5 1.1-1 0-.6-.2-1-.4-1-.3 0-.8.4-1.1 1zm26.2.1c.7.7 1.5 1 1.8.7.3-.3-.2-.9-1.2-1.2-1.4-.6-1.5-.5-.6.5zm-16.9.6c.6.2 1.8.2 2.5 0 .6-.3.1-.5-1.3-.5-1.4 0-1.9.2-1.2.5zm25.2.5c1.4.5 3.3 1.4 4.4 2 1.2.6 2.2.6 2.9-.1.8-.8.5-1.1-1.1-1.1-1.2 0-2.2-.5-2.2-1 0-.6-1.5-1-3.2-.9-3.2 0-3.3.1-.8 1.1zm4.5 5.8c-.3.5.3 1 1.4 1 1.2 0 2.1-.5 2.1-1 0-.6-.6-1-1.4-1-.8 0-1.8.4-2.1 1zm-.5 4.1c0 .5.5.7 1 .4.6-.3 1-.8 1-1.1 0-.2-.4-.4-1-.4-.5 0-1 .5-1 1.1zm-58.9 3c.1 1.9.4 4.5.9 5.9.5 1.8.7 1 .5-2.7-.1-2.9-.5-5.6-.8-6-.4-.3-.7.9-.6 2.8zm59.9.5c0 .8.5 1.2 1 .9.6-.4.8-1.1.5-1.6-.9-1.4-1.5-1.1-1.5.7zm1.3 3.3c-1.1 1.8-1 2.2.8 3.2 2.1 1.1 4.2.3 2.2-.9-.6-.4-1.2-1.5-1.4-2.5-.4-1.6-.5-1.6-1.6.2zm-66 7.8c.9.2 2.3.2 3 0 .6-.3-.1-.5-1.8-.5-1.6 0-2.2.2-1.2.5zm90.5 1.9c-1.3 1.2-.9 3.4.7 5.1 1.8 1.8 3.3 1 1.8-.9-.6-.7-1.2-2.1-1.4-3.1-.2-1.1-.7-1.5-1.1-1.1zM209 156c0 .5.5 1 1 1 .6 0 1-.5 1-1 0-.6-.4-1-1-1-.5 0-1 .4-1 1zm-3 2c0 .5.5 1 1 1 .6 0 1-.5 1-1 0-.6-.4-1-1-1-.5 0-1 .4-1 1zm4.2 4c0 1.4.2 1.9.5 1.2.2-.6.2-1.8 0-2.5-.3-.6-.5-.1-.5 1.3zm110.2.1c-.3.6-.1 1.6.5 2.2.6.6 1.1 1.9 1.1 2.9s.5 1.8 1 1.8c1.4 0 1.2-3.7-.2-4.4-1-.5-1-.7 0-1.2.6-.3 1.2-1 1.2-1.5 0-1.3-2.7-1.1-3.6.2zm-2.3 9.1c-.1.9.6 2.3 1.4 3.2.8.8 1.2 2.2.9 3-.3.9-.1 1.6.5 1.6s1.1.5 1.1 1.1c0 .8-.5.7-1.5-.1-2.2-1.8-2.7-.8-1.5 2.5 1.5 3.8 3.2 2 3.5-3.7.1-2.4.6-5.2.9-6.3.7-1.8.6-1.8-.4-.3-1.5 2.4-2.9 2.2-4-.5-.6-1.6-.9-1.7-.9-.5zm-54.6 1.8c-.8 1.3.4 3.2 1.6 2.5 1.2-.8 1.2-3.5 0-3.5-.6 0-1.3.4-1.6 1zm-53.8 15c-.3 1.1-.1 2.3.4 2.6.5.3.9-.6.9-2 0-3.1-.6-3.4-1.3-.6zm111 1.7c-1.1 1-.8 2.5.3 1.8.6-.3 1-.1 1 .4 0 .6.5 1.1 1 1.1.6 0 1-.9 1-2 0-1.9-2-2.7-3.3-1.3zM322 200c0 .5.5 1 1 1 .6 0 1-.5 1-1 0-.6-.4-1-1-1-.5 0-1 .4-1 1zm-111 .8c0 1.2 1.9 2.6 2.6 1.9.2-.2-.2-1-1.1-1.7-.9-.8-1.5-.8-1.5-.2zm82 1v1.7c0 .3.3.4.6.2.3-.1 1 .6 1.5 1.5.6 1 1.9 1.8 2.9 1.8 1.1 0 2 .4 2 1 0 .5 1.5 1 3.3.9 2.8 0 2.9-.1 1.1-.9-1.2-.5-2.5-1.3-2.9-1.9-.3-.6-1.7-1.1-3-1.1s-3.1-1-3.9-2.2c-.9-1.2-1.6-1.7-1.6-1zm25 .2c0 .5.5 1 1 1 .6 0 1-.5 1-1 0-.6-.4-1-1-1-.5 0-1 .4-1 1zm-88.3 1.2c.6 1.1 4.3 1 4.3-.1 0-.5-1.1-.8-2.4-.7-1.3 0-2.2.4-1.9.8zm73.5.4c2.6.8 5 1.9 5.3 2.4.3.6 1 1 1.5 1 .9 0 .1-3.9-.9-4.1-.3-.1-2.8-.3-5.6-.4l-5-.4 4.7 1.5zm-88.1 1.3c-1.1.7-1 1 .4 1.9 2 1 5.5.5 5.5-.9 0-.5-.4-.9-.9-.9s-1.5-.2-2.3-.5c-.7-.3-1.9-.1-2.7.4zm19.9 8.8c0 4.2.3 7.3.7 6.9 1-1 1.1-14.6.1-14.6-.4 0-.8 3.4-.8 7.7zm-13-5.7c0 .5.5 1 1 1 .6 0 1-.5 1-1 0-.6-.4-1-1-1-.5 0-1 .4-1 1zm76 12c0 .5.5 1 1 1 .6 0 1-.5 1-1 0-.6-.4-1-1-1-.5 0-1 .4-1 1zm-5.5 6c-.3.5-.1 1 .4 1 .6 0 1.1-.5 1.1-1 0-.6-.2-1-.4-1-.3 0-.8.4-1.1 1zm-41 1c-.4.6.6 1 2.4 1 2.3 0 2.9.4 2.5 1.5-.8 2 2.3 2 4.3-.1.9-.9 2.6-1.4 4-1.1 1.2.2 2.3 0 2.3-.5 0-1.2-6.3-.6-7.2.7-.6.7-1 .6-1.5-.1-1.1-1.6-6.1-2.6-6.8-1.4zm25.1 1.1c.3.5 1.6.9 3 .9 1.7 0 2.4.5 2.4 2 0 1.3.7 2 2 2s2-.7 2-2c0-1.1.5-2 1-2 .6 0 1-.4 1-.9 0-.6-2.7-.9-6-.9s-5.7.5-5.4.9zm-36.6.9c0 1.3 1.1 1.3 3 0 1.2-.8 1.1-1-.7-1-1.3 0-2.3.4-2.3 1zm28.5 1c-.3.5-.1 1 .4 1 .6 0 1.1-.5 1.1-1 0-.6-.2-1-.4-1-.3 0-.8.4-1.1 1zm-6 2c-.3.5.3 1 1.5 1s1.8-.5 1.5-1c-.3-.6-1-1-1.5-1s-1.2.4-1.5 1z"/><path fill="#FFBFFF" d="M242 116c0 .5.5 1 1 1 .6 0 1-.5 1-1 0-.6-.4-1-1-1-.5 0-1 .4-1 1zm56.5 4c.3.5.8 1 1.1 1 .2 0 .4-.5.4-1 0-.6-.5-1-1.1-1-.5 0-.7.4-.4 1zM230 138c0 .5.5 1 1 1 .6 0 1-.5 1-1 0-.6-.4-1-1-1-.5 0-1 .4-1 1zm94.5 26c.3.5.8 1 1.1 1 .2 0 .4-.5.4-1 0-.6-.5-1-1.1-1-.5 0-.7.4-.4 1z"/><path fill="#BFBFFF" d="M292.5 122c.3.5.8 1 1.1 1 .2 0 .4-.5.4-1 0-.6-.5-1-1.1-1-.5 0-.7.4-.4 1zm6 2.3c-.4 1-.5 2.1-.1 2.4 1 1 1.8-.4 1.3-2.4-.4-1.7-.4-1.7-1.2 0zm-2.9 16.6c-.4.7-.5 1.5-.2 1.8.9.9 1.9-.4 1.4-1.8-.4-1.1-.6-1.1-1.2 0zm18.7 3.8c.9.2 2.3.2 3 0 .6-.3-.1-.5-1.8-.5-1.6 0-2.2.2-1.2.5zm7.7 2.9c0 .3.7 1.2 1.5 2 1.6 1.7 1.8 1.4.9-1-.6-1.5-2.4-2.3-2.4-1zm-3.9 3.1c.7 1.2 1.5 2 1.8 1.7.3-.2-.3-1.2-1.3-2.2-1.7-1.6-1.8-1.6-.5.5zm3.9 5.3c0 1.6.5 3 1 3 .6 0 1-1.4 1-3 0-1.7-.4-3-1-3-.5 0-1 1.3-1 3zm-3 9.9c0 .6.5 1.3 1 1.6.6.3 1-.1 1-.9 0-.9-.4-1.6-1-1.6-.5 0-1 .4-1 .9zm.4 4.4c.3 1 .6 2.1.6 2.3 0 1.1 1.9.2 2.4-1.2.4-.9.2-1.3-.5-.8-.6.4-1.6 0-2.1-.7-.8-1.1-.8-1-.4.4zm-3.9 3.7c-.3.5.1 1 1 1 1.1 0 1.4.7 1 2.7-.3 1.6-.2 2.1.1 1.3.4-.8 1.2-1.8 1.7-2.2.6-.4.4-1.2-.6-2.2-1.8-1.9-2.4-2-3.2-.6zM211 175.6c0 .8.5 1.2 1 .9.6-.4.8-1.1.5-1.6-.9-1.4-1.5-1.1-1.5.7zm24.5 26.3c-.3.5-.1 1.2.5 1.6.5.3 1-.1 1-.9 0-1.8-.6-2.1-1.5-.7zM301 204c0 .5.5 1 1.1 1 .5 0 .7-.5.4-1-.3-.6-.8-1-1.1-1-.2 0-.4.4-.4 1zm-8 2c0 .5.5 1 1.1 1 .5 0 .7-.5.4-1-.3-.6-.8-1-1.1-1-.2 0-.4.4-.4 1zm12 0c0 .6.7 1 1.5 1s1.5-.2 1.5-.4-.7-.6-1.5-1c-.8-.3-1.5-.1-1.5.4zm-92 2c1.9 1.3 3 1.3 3 0 0-.6-1-1-2.2-1-1.9 0-2 .2-.8 1zm82.6 3.6c.7 2.9 2.1 4.4 3.9 4.3.6 0 .4-.3-.2-.6-.7-.2-1.3-1.1-1.3-2 0-.8-.7-2.1-1.5-3-1.4-1.4-1.5-1.3-.9 1.3zM252 230c0 .5.5 1 1 1 .6 0 1-.5 1-1 0-.6-.4-1-1-1-.5 0-1 .4-1 1zm11 0c0 .5 1.1 1 2.5 1s2.5-.5 2.5-1c0-.6-1.1-1-2.5-1s-2.5.4-2.5 1z"/><path fill="#FFFFBF" d="M300.2 137.5c0 1.6.2 2.2.5 1.2.2-.9.2-2.3 0-3-.3-.6-.5.1-.5 1.8zm-88.7 7.6c-.4.6-.5 1.2-.2 1.5.2.3.7-.2 1-1.1.7-1.7.1-2-.8-.4zm111.9 29.5c.3.9.6 1.8.6 2 0 .2.5.4 1 .4.6 0 1-.9 1-2 0-1.2-.7-2-1.6-2-1.1 0-1.4.5-1 1.6zm-2.1 4.2c-.8.5-.8 1.2.2 2.5 1.2 1.7 1.3 1.6 1.1-.7 0-1.5-.1-2.6-.1-2.6s-.5.4-1.2.8zm-110.2 24.8c0 1.1.3 1.4.6.6.3-.7.2-1.6-.1-1.9-.3-.4-.6.2-.5 1.3zm99.1 1.3c.2.7.7 1.2 1.1 1.2 1.2-.1.9-1.5-.3-2-.7-.2-1.1.2-.8.8zm-76 7.1c0 1.9.2 2.7.5 1.7.2-.9.2-2.5 0-3.5-.3-.9-.5-.1-.5 1.8zm35.6 18.2c-.4.8.3 1.4 1.9 1.4 1.4.1 2.2-.3 2-1-.5-1.6-3.4-1.9-3.9-.4z"/><path fill="#80BFBF" d="M251.8 120.7c.7.3 1.6.2 1.9-.1.4-.3-.2-.6-1.3-.5-1.1 0-1.4.3-.6.6zm34.2 2.7c0 .2.8 1 1.8 1.7 1.5 1.3 1.6 1.2.3-.4s-2.1-2.1-2.1-1.3zm-23.7 3.1c0 .8.4 1.2.9.9.5-.3.6-1 .3-1.5-.9-1.3-1.2-1.1-1.2.6zm28.9 7c0 1.6.2 2.2.5 1.2.2-.9.2-2.3 0-3-.3-.6-.5.1-.5 1.8zm-54.1 1.1c0 1.1.3 1.4.6.6.3-.7.2-1.6-.1-1.9-.3-.4-.6.2-.5 1.3zm31.5 3c-1.5 1.4-2.5 2.8-2.1 3.2.4.4 1.8-.6 3.1-2.1 1.4-1.6 2.9-2.5 3.6-2.1.7.4.8.3.4-.4-1-1.7-1.7-1.5-5 1.4zm-14.3 3.9c.5 1.3 8.7 1.9 9.9.7.7-.7-1-1.1-4.6-1.4-3.4-.2-5.5.1-5.3.7zm-30 5.2c.9.2 2.3.2 3 0 .6-.3-.1-.5-1.8-.5-1.6 0-2.2.2-1.2.5zm29.1 1.8c-1.1 2.3-1.1 2.4 1.2.8 1.3-.8 2.1-1.9 1.8-2.4-.9-1.5-1.8-1-3 1.6zm29.4-1.8c.7.3 1.6.2 1.9-.1.4-.3-.2-.6-1.3-.5-1.1 0-1.4.3-.6.6zm18.5 0c.9.2 2.5.2 3.5 0 .9-.3.1-.5-1.8-.5-1.9 0-2.7.2-1.7.5zm-86.4 4c-1.3 1.6-1.2 1.7.4.4.9-.7 1.7-1.5 1.7-1.7 0-.8-.8-.3-2.1 1.3zm28.2 1.9c0 1.1.3 1.4.6.6.3-.7.2-1.6-.1-1.9-.3-.4-.6.2-.5 1.3zm15.9-.6c0 .5.4 1 .9 1 .6 0 1.3-.5 1.6-1 .3-.6-.1-1-.9-1-.9 0-1.6.4-1.6 1zm18.5 1c1 1.1 2 1.8 2.3 1.6.5-.6-2.3-3.6-3.4-3.6-.4 0 .1.9 1.1 2zm-29.5 1.1c0 .5.5.7 1 .4.6-.3 1-.8 1-1.1 0-.2-.4-.4-1-.4-.5 0-1 .5-1 1.1zm15.4 2.3c-1 2.2-1 2.3.6 1.4.9-.6 1.7-1.7 1.7-2.4 0-2.1-1.1-1.6-2.3 1zm52.8 2.6c0 1.4.2 1.9.5 1.2.2-.6.2-1.8 0-2.5-.3-.6-.5-.1-.5 1.3zm-48.2 2.9c0 .5.7 1.1 1.4 1.4 1 .4 1.3.1.9-.9-.6-1.5-2.3-1.9-2.3-.5zm-12 1.1c-2.3.7-2.3.8-.3.9 1.2.1 2.5-.4 2.8-.9.3-.6.5-1 .3-.9-.2.1-1.4.5-2.8.9zm5 5c-.9.6-1 1-.3 1 .6 0 1.5-.5 1.8-1 .8-1.2.4-1.2-1.5 0zm17 15.4c0 .2.8 1 1.8 1.7 1.5 1.3 1.6 1.2.3-.4s-2.1-2.1-2.1-1.3zm-25.1 4.3c-1.3 1.6-1.2 1.7.4.4.9-.7 1.7-1.5 1.7-1.7 0-.8-.8-.3-2.1 1.3zm63.3.3c0 1.4.2 1.9.5 1.2.2-.6.2-1.8 0-2.5-.3-.6-.5-.1-.5 1.3zm-28.7 5c1 1.1 2 2 2.3 2 .3 0-.3-.9-1.3-2s-2-2-2.3-2c-.3 0 .3.9 1.3 2zm-62.7 7.7c.7.3 1.6.2 1.9-.1.4-.3-.2-.6-1.3-.5-1.1 0-1.4.3-.6.6zm15.2 19.7c0 .2.8 1 1.8 1.7 1.5 1.3 1.6 1.2.3-.4s-2.1-2.1-2.1-1.3z"/><g fill="#80BF80" stroke-width="0"><path d="M248.8 120.7c.7.3 1.6.2 1.9-.1.4-.3-.2-.6-1.3-.5-1.1 0-1.4.3-.6.6zm-6.9 3-2.4 2.8 2.8-2.4c2.5-2.3 3.2-3.1 2.4-3.1-.2 0-1.4 1.2-2.8 2.7zm13.1-2.3c0 .2.7.7 1.6 1 .8.3 1.2.2.9-.4-.6-1-2.5-1.4-2.5-.6zm26 0c0 .2.7.7 1.6 1 .8.3 1.2.2.9-.4-.6-1-2.5-1.4-2.5-.6zm-21.3 2.7c.7.7 1.5 1 1.8.7.3-.3-.2-.9-1.2-1.2-1.4-.6-1.5-.5-.6.5zm4.8 1.9c-.4.6-1 .8-1.5.5-.4-.3-3.3 2.4-6.4 5.9-5.4 6.2-7.3 9.1-4.1 6.4 5.5-4.6 14.3-13.8 13.3-13.8-.4 0-1 .5-1.3 1zm25.6 5.6c0 1.1.3 1.4.6.6.3-.7.2-1.6-.1-1.9-.3-.4-.6.2-.5 1.3zm-21.7 5.6-1.9 2.3 2.3-1.9c2.1-1.8 2.7-2.6 1.9-2.6-.2 0-1.2 1-2.3 2.2zm5-1.5c.4.8.1 1.3-.7 1.3-.8 0-2.2 1-3.3 2.2-1.9 2.3-1.9 2.3.2.5 1.1-.9 2.5-1.7 3.1-1.7.6 0 3.2 2.6 5.8 5.7 2.7 3.2 4.5 5 4.2 4-.5-1.2-.1-1.7 1.2-1.7 1 0 2.5-.8 3.2-1.8 1.1-1.4 1.1-1.5-.1-.5-2.5 2.2-4.4 1.4-9.4-4-2.6-2.8-4.5-4.6-4.2-4zm16.7.9c0 1.1.3 1.4.6.6.3-.7.2-1.6-.1-1.9-.3-.4-.6.2-.5 1.3zm-51.5 2.7c.3 1 .9 1.5 1.2 1.2.3-.3 0-1.1-.7-1.8-1-.9-1.1-.8-.5.6zm26.3-.3c0 .3-.2 1.3-.4 2.2-.2 1 .1 1.8.5 1.8 1.5 0 1.9-1.5.9-3-.5-.8-.9-1.3-1-1zm-11.9 4.1c.7 1.3 1.9 2.8 2.7 3.2.7.5 1 1.3.7 1.9-.5.7-.2.9.9.5 2.5-.9 1.2 3.1-2.1 6.7-2.3 2.5-2.7 3.6-2.2 5.6.7 2.1.8 2.2.9.4.1-1.1 1.4-3.3 3-4.8 1.6-1.6 2.7-3.5 2.4-4.2-.3-.9.1-1.4 1.2-1.4.9 0 1.4.4 1 .9-.7 1.2 3.4 2.6 4.3 1.6.4-.4.1-1-.7-1.3-.8-.3-2.5-1.6-3.8-2.8-1.3-1.3-2.8-2.4-3.3-2.4s-1.5-1.2-2.2-2.7c-.7-1.4-1.9-2.9-2.6-3.1-1.2-.4-1.2 0-.2 1.9zm-10 2 3.4 3.5 2.2-2.5c2.8-3.2 2.4-3.8-1.1-1.5-2.5 1.6-2.7 1.6-5.3-.7-1.5-1.2-1.1-.7.8 1.2zm29 1.8c0 .7 1.6 2.9 3.5 4.9 2.1 2.2 3.4 4.4 3.1 5.4-.2 1 0 1.8.5 1.8s.9-.9.9-1.9c0-1.1.8-2.2 2-2.4 1.3-.3 1-.4-.7-.3-1.8 0-2.7-.4-2.5-1.2.1-.6-.4-1.1-1-1-.7.2-1.2-.2-1.1-.8.1-.6-.9-2.2-2.2-3.4-1.4-1.3-2.5-1.8-2.5-1.1zm-42 .5c0 .2.7.7 1.6 1 .8.3 1.2.2.9-.4-.6-1-2.5-1.4-2.5-.6z"/><path d="M251.5 149.9c-1.1 1.4-2 2.9-2.1 3.3-.1.5-.2 1.1-.3 1.5-.1.5-.5.3-.9-.3-.4-.7-1.5-.8-2.7-.3-1.9.7-1.9.8.3.8 1.6.1 2.2.7 2.3 2.3.1 2.1.2 2.1.6.3.3-1.1 1.8-3.4 3.4-5 1.5-1.7 2.5-3.5 2.1-4.1-.5-.8-1.4-.3-2.7 1.5zm41.4 0c-2.4 1.6-6.9 5.5-9.9 8.7l-5.5 5.9 6.5-6.2c3.6-3.4 8.5-7.3 11-8.7 2.5-1.4 4-2.6 3.4-2.6-.5 0-3 1.3-5.5 2.9zm14.1-2.5c0 .2.7.7 1.6 1 .8.3 1.2.2.9-.4-.6-1-2.5-1.4-2.5-.6zm-91.6 3.8-1.9 2.3 2.3-1.9c2.1-1.8 2.7-2.6 1.9-2.6-.2 0-1.2 1-2.3 2.2zm18.7-1.9c.2.1 1.5 1.1 2.9 2.2l2.5 2-1.9-2.3c-1.1-1.2-2.4-2.2-2.9-2.2-.6 0-.8.1-.6.3zm79 2.3c1.3 1.7 2.6 3 2.8 2.7.3-.2-.8-1.6-2.4-3.1l-2.8-2.7 2.4 3.1zm-29 0c0 1.1.3 1.4.6.6.3-.7.2-1.6-.1-1.9-.3-.4-.6.2-.5 1.3zm-16.1.2c0 .7.5 1.2 1 1.2.6 0 1 .6 1 1.4 0 .7.7 2 1.6 2.7.9.7 2 2.2 2.3 3.3.8 1.9.8 1.9 1.3-.1.4-1.6-.5-3.1-3.3-5.9-2.2-2.1-3.9-3.3-3.9-2.6zm-23.5 6.2c2.7 2.7 5.1 5 5.4 5 .3 0-1.7-2.3-4.4-5-2.7-2.8-5.1-5-5.4-5-.3 0 1.7 2.2 4.4 5zm-31.9-2.4c-.8 2.1-.7 5.6.2 7.1.4.6.7-1.1.7-3.8 0-2.7-.1-4.9-.1-4.9-.1 0-.5.7-.8 1.6zm53.4.5c0 .6-.6.9-1.4.6-1.6-.6-7.4 5.3-6.9 7 .3.7 2-.4 4.2-2.7 4.2-4.4 6.1-5 6.1-2 0 1.1.5 2 1 2 1.5 0 1.2-2.9-.4-4.6-1.7-1.7-2.6-1.8-2.6-.3zm-1.3 8.7-2.2 2.4 4.3-2.1c4.8-2.4 5-2.7 2.2-2.7-1.1 0-3.1 1.1-4.3 2.4zm49.9-.1c-.6 1.4-.5 1.5.5.6.7-.7 1-1.5.7-1.8-.3-.3-.9.2-1.2 1.2zm-63.1 1.3c1 1.1 2 2 2.3 2 .3 0-.3-.9-1.3-2s-2-2-2.3-2c-.3 0 .3.9 1.3 2zm23.9 1.2-1.9 2.3 2.3-1.9c1.2-1.1 2.2-2.1 2.2-2.3 0-.8-.8-.2-2.6 1.9zm-60.8.1c.3 1 .9 1.5 1.2 1.2.3-.3 0-1.1-.7-1.8-1-.9-1.1-.8-.5.6zm44.2-.1c.5.5 1.6.8 2.3.6.8-.3.3-.7-1-1.1-1.7-.4-2.1-.3-1.3.5zm8.7-.2c-1.6.7-1.7.9-.3.9.9.1 2-.4 2.3-.9.7-1.1.7-1.1-2 0zm-11.4 6.6c0 1.1.3 1.4.6.6.3-.7.2-1.6-.1-1.9-.3-.4-.6.2-.5 1.3zm53.9.1c0 .6.8 1.7 1.8 2.4 1.6 1.3 1.6 1.3.2-.6-.8-1.1-1.6-2.2-1.7-2.4-.2-.2-.3 0-.3.6zm-93.4 2c-.6 1.4-.5 1.5.5.6.7-.7 1-1.5.7-1.8-.3-.3-.9.2-1.2 1.2zm56.4.2c.5 1.1 1.5 2.3 2.1 2.7.6.3.3-.5-.6-2-2-3-3-3.5-1.5-.7zm-19.6 2.3-1.9 2.3 2.3-1.9c2.1-1.8 2.7-2.6 1.9-2.6-.2 0-1.2 1-2.3 2.2zm-38.9.9c-.4.6-.5 1.2-.2 1.5.2.3.7-.2 1-1.1.7-1.7.1-2-.8-.4zm49.3 1.6c.7.3 1.6.2 1.9-.1.4-.3-.2-.6-1.3-.5-1.1 0-1.4.3-.6.6zm13.7 1.3c1 1.1 2 2 2.3 2 .3 0-.3-.9-1.3-2s-2-2-2.3-2c-.3 0 .3.9 1.3 2zm-28.1 1.2-1.9 2.3 2.3-1.9c2.1-1.8 2.7-2.6 1.9-2.6-.2 0-1.2 1-2.3 2.2zm8.6.9-3.5 3 3.8-2.6c3.3-2.4 4.3-3.5 3.4-3.5-.1 0-1.8 1.4-3.7 3.1zm10.5-1.1c1 1.1 2 2 2.3 2 .3 0-.3-.9-1.3-2s-2-2-2.3-2c-.3 0 .3.9 1.3 2zm-56.5 4.9c0 1.7.4 3.2.8 3.5.4.2.6-1.1.4-3-.5-4.2-1.2-4.5-1.2-.5zm61.5-.9c1 1.1 2 2 2.3 2 .3 0-.3-.9-1.3-2s-2-2-2.3-2c-.3 0 .3.9 1.3 2zm9.5 1.5c1.3 1.4 2.6 2.5 2.8 2.5.3 0-.5-1.1-1.8-2.5s-2.6-2.5-2.8-2.5c-.3 0 .5 1.1 1.8 2.5zm-34.6 3.7c-4.4 4.9-6.8 7.8-6.2 7.8.2 0 2.6-2.5 5.2-5.5 5.1-6 5.8-7.5 1-2.3zm30.6-.8c0 .2.8 1 1.8 1.7 1.5 1.3 1.6 1.2.3-.4s-2.1-2.1-2.1-1.3zm-40.1 2.3c-1.3 1.7-1.3 1.7.6.3 1.1-.8 2.2-1.6 2.4-1.7.2-.2 0-.3-.6-.3s-1.7.8-2.4 1.7zm51.8 1.4c1.2 1.2 2.4 2.1 2.7 1.8.2-.2-.8-1.3-2.2-2.3l-2.7-1.9 2.2 2.4zm-76.7-.7c0 .2.8 1 1.8 1.7 1.5 1.3 1.6 1.2.3-.4s-2.1-2.1-2.1-1.3zm69 1.3c0 .6.8 1.7 1.8 2.4 1.6 1.3 1.6 1.3.2-.6-.8-1.1-1.6-2.2-1.7-2.4-.2-.2-.3 0-.3.6zm-60.2 4c.7.3 1.6.2 1.9-.1.4-.3-.2-.6-1.3-.5-1.1 0-1.4.3-.6.6zm4 0c.7.3 1.6.2 1.9-.1.4-.3-.2-.6-1.3-.5-1.1 0-1.4.3-.6.6zm74.5 0c.9.2 2.5.2 3.5 0 .9-.3.1-.5-1.8-.5-1.9 0-2.7.2-1.7.5zm-12.7 4.6c.3 1 .9 1.5 1.2 1.2.3-.3 0-1.1-.7-1.8-1-.9-1.1-.8-.5.6zm-50 1.2c-.9 2.6-.7 3.2.5 1.2.6-1 .9-2.1.6-2.3-.2-.3-.7.2-1.1 1.1zm52 7c-.3.9-.6 2.2-.5 2.8 0 .7.5.1 1-1.2s.8-2.6.5-2.8c-.2-.2-.6.3-1 1.2zm-3.5 7.9-2.4 3.1 2.8-2.7c1.6-1.5 2.7-2.9 2.4-3.1-.2-.3-1.5 1-2.8 2.7zm-45.6.6c1 1.1 2 2 2.3 2 .3 0-.3-.9-1.3-2s-2-2-2.3-2c-.3 0 .3.9 1.3 2zm20-1c-.3.6.1.7.9.4 1.8-.7 2.1-1.4.7-1.4-.6 0-1.3.4-1.6 1zm3.5-.6c0 .3 1.4 1.2 3 2.1 1.7.9 3 1.3 3 1.1 0-.3-1.3-1.2-3-2.1-1.6-.9-3-1.3-3-1.1zm-7 2.6c-.9.6-1 1-.3 1 .6 0 1.5-.5 1.8-1 .8-1.2.4-1.2-1.5 0zm-12.3 2.2c.5 1 7.4 1 9 0 .6-.4-1.3-.7-4.2-.7-2.9 0-5.1.3-4.8.7zm28.6 0c.7.4 2.6.8 4.2.8 1.7 0 3.5-.4 4.2-.8.6-.4-1.3-.7-4.2-.7-2.9 0-4.8.3-4.2.7z"/></g><path fill="#408080" d="M252.8 121.7c.7.3 1.6.2 1.9-.1.4-.3-.2-.6-1.3-.5-1.1 0-1.4.3-.6.6zm23 0c1.2.2 3 .2 4 0 .9-.3-.1-.5-2.3-.4-2.2 0-3 .2-1.7.4zm-16.2 6.1-1.9 2.7 2.4-2.2c1.2-1.2 2.1-2.4 1.8-2.7-.2-.2-1.3.8-2.3 2.2zm29 .5c.3 1 .9 1.5 1.2 1.2.3-.3 0-1.1-.7-1.8-1-.9-1.1-.8-.5.6zm-49.9 1.4c-.9.9-.9 8.1.1 8.6.4.3.7-1.7.7-4.4s0-4.9-.1-4.9c0 0-.4.3-.7.7zm33.3 5c.8.3 2.2 1.1 3 1.7 1.3 1 1.3.9.1-.7-.7-.9-2.1-1.7-3-1.6-1.3 0-1.4.1-.1.6zm-4.6 2.5-1.9 2.3 2.3-1.9c2.1-1.8 2.7-2.6 1.9-2.6-.2 0-1.2 1-2.3 2.2zm-13.4.7c0 .6.4 1.3 1 1.6.6.3.7-.1.4-.9-.7-1.8-1.4-2.1-1.4-.7zm15.9 1.8c-1.2 1.6-1.2 1.7.1.7.8-.6 2.2-1.4 3-1.7 1.3-.5 1.2-.6-.1-.6-.9-.1-2.3.7-3 1.6zm-29.9 1c0 .6.8 1.7 1.8 2.4 1.6 1.3 1.6 1.3.2-.6-.8-1.1-1.6-2.2-1.7-2.4-.2-.2-.3 0-.3.6zm18.3 0c.9.2 2.5.2 3.5 0 .9-.3.1-.5-1.8-.5-1.9 0-2.7.2-1.7.5zm-7.8 1.3c-.3.5.1 1 1 1s1.3-.5 1-1c-.3-.6-.8-1-1-1-.2 0-.7.4-1 1zm25.5.3c0 .2 1.5 1.6 3.3 3.3l3.2 2.9-2.9-3.3c-2.8-3-3.6-3.7-3.6-2.9zm9.9 1.4c-1.3 1.6-1.2 1.7.4.4 1.6-1.3 2.1-2.1 1.3-2.1-.2 0-1 .8-1.7 1.7zm-29.7 1c.2.9.9 1.8 1.6 1.9.7.1.8 0 .2-.3-2.1-1-.9-2.2 2.8-2.6l3.7-.4-4.3-.1c-3.6-.2-4.3.1-4 1.5zm-4 .7c.7.8 1.5 1.2 1.7 1.1.5-.6-1-2.5-2-2.5-.5 0-.4.6.3 1.4zm19.3.7c-1.1 1.6-.1 1.9 1.3.3.7-.8.8-1.4.3-1.4s-1.3.5-1.6 1.1zm-49 1.4c2.3.8 8.3 1 7.9.3-.3-.4-2.4-.8-4.7-.7-2.3 0-3.7.2-3.2.4zm77.3.2c.7.3 1.6.2 1.9-.1.4-.3-.2-.6-1.3-.5-1.1 0-1.4.3-.6.6zm5 0c.7.3 1.6.2 1.9-.1.4-.3-.2-.6-1.3-.5-1.1 0-1.4.3-.6.6zm-52.9 5-3.4 3.8 3.8-3.4c2-1.9 3.7-3.6 3.7-3.8 0-.8-.8 0-4.1 3.4zm13.9-2.1c-.3.3-.3 1.4-.1 2.5.5 1.6.8 1.8 1.4.7.7-1 .9-.9.9.4 0 .9 1.5 2.7 3.3 3.9l3.2 2.3-3.3-3.8c-1.8-2.1-3.1-4.4-2.8-5.2.5-1.3-1.5-2-2.6-.8zm-21.7 2c0 1.1.3 1.4.6.6.3-.7.2-1.6-.1-1.9-.3-.4-.6.2-.5 1.3zm32.4 1.4c1 1.1 2 2 2.3 2 .3 0-.3-.9-1.3-2s-2-2-2.3-2c-.3 0 .3.9 1.3 2zm12.4-.3c-1.3 1.6-1.2 1.7.4.4 1.6-1.3 2.1-2.1 1.3-2.1-.2 0-1 .8-1.7 1.7zm-45.9 3.5c4.1 4.5 5 5.3 5 4.5 0-.2-2.1-2.3-4.7-4.7l-4.8-4.5 4.5 4.7zm19.5-3.4c.4.8-.1 2.3-1.1 3.5-1.8 2.2-1.8 2.2.6 0 2-1.9 2.2-2.5 1.1-3.5-1.1-1.1-1.3-1-.6 0zm-9.8 2.7c-1.5 1.4-2.4 2.5-1.9 2.5s1.9-1.1 3.2-2.5c3-3.2 2.3-3.2-1.3 0zm62.6 2.5c0 2.5.2 3.5.4 2.2.2-1.2.2-3.2 0-4.5-.2-1.2-.4-.2-.4 2.3zm-40.1-1.4c1 1 2 1.6 2.2 1.3.3-.3-.5-1.1-1.7-1.8-2.1-1.3-2.1-1.2-.5.5zm-5.2 3.3c0 1 1.9 2.5 2.5 2 .1-.2-.3-1-1.1-1.7s-1.4-.8-1.4-.3zm-15.2 1.8c.7.3 1.6.2 1.9-.1.4-.3-.2-.6-1.3-.5-1.1 0-1.4.3-.6.6zm9.1 2-2.4 2.8 2.8-2.4c2.5-2.3 3.2-3.1 2.4-3.1-.2 0-1.4 1.2-2.8 2.7zm15-1c-1.3 1.6-1.2 1.7.4.4.9-.7 1.7-1.5 1.7-1.7 0-.8-.8-.3-2.1 1.3zm-64.9 1.2c0 .6.4 1.3 1 1.6.6.3.7-.1.4-.9-.7-1.8-1.4-2.1-1.4-.7zm54.3.6c0 .8.4 1.2.9.9.5-.3.6-1 .3-1.5-.9-1.3-1.2-1.1-1.2.6zm-17.3.9c0 .2.8 1 1.8 1.7 1.5 1.3 1.6 1.2.3-.4s-2.1-2.1-2.1-1.3zm61.6 1.3c-.6 1.4-.5 1.5.5.6.7-.7 1-1.5.7-1.8-.3-.3-.9.2-1.2 1.2zm-40.1 4.4c-.4.6-.5 1.2-.2 1.5.2.3.7-.2 1-1.1.7-1.7.1-2-.8-.4zm-54.4 1.5c0 1.1.3 1.4.6.6.3-.7.2-1.6-.1-1.9-.3-.4-.6.2-.5 1.3zm57.9 5.8c0 .2.8 1 1.8 1.7 1.5 1.3 1.6 1.2.3-.4s-2.1-2.1-2.1-1.3zm-26.6 2.8-1.9 2.3 2.3-1.9c2.1-1.8 2.7-2.6 1.9-2.6-.2 0-1.2 1-2.3 2.2zm11.5.5c-1.3 1.6-1.2 1.7.4.4.9-.7 1.7-1.5 1.7-1.7 0-.8-.8-.3-2.1 1.3zm4.2-1.4c.2.1 1.3.9 2.4 1.7 1.9 1.4 1.9 1.4.6-.3-.7-.9-1.8-1.7-2.4-1.7-.6 0-.8.1-.6.3zm-8.2 4.4c-1.3 1.6-1.2 1.7.4.4.9-.7 1.7-1.5 1.7-1.7 0-.8-.8-.3-2.1 1.3zm58.4 1.8c0 2.2.2 3 .4 1.7.2-1.2.2-3 0-4-.3-.9-.5.1-.4 2.3zm-42.8-.5c1 1.1 2 2 2.3 2 .3 0-.3-.9-1.3-2s-2-2-2.3-2c-.3 0 .3.9 1.3 2zm-29.1 2.2-1.9 2.3 2.3-1.9c2.1-1.8 2.7-2.6 1.9-2.6-.2 0-1.2 1-2.3 2.2zm-30.3.4c0 1.1.3 1.4.6.6.3-.7.2-1.6-.1-1.9-.3-.4-.6.2-.5 1.3zm62.9-.3c0 .2 1.5 1.6 3.3 3.3l3.2 2.9-2.9-3.3c-2.8-3-3.6-3.7-3.6-2.9zm-27.1 3.4c-1.3 1.6-1.2 1.7.4.4.9-.7 1.7-1.5 1.7-1.7 0-.8-.8-.3-2.1 1.3zm-34.9 0c0 .5 1 1.8 2.3 2.9l2.2 1.9-2-2.5c-1.1-1.4-2.1-2.7-2.2-2.9-.2-.2-.3 0-.3.6zm5.7 5.4c.7.7 1.5 1 1.8.7.3-.3-.2-.9-1.2-1.2-1.4-.6-1.5-.5-.6.5zm10.8-.1c-1.6.7-1.7.9-.3.9.9.1 2-.4 2.3-.9.7-1.1.7-1.1-2 0zm66.2.1c.7.7 1.5 1 1.8.7.3-.3-.2-.9-1.2-1.2-1.4-.6-1.5-.5-.6.5zm10.8-.1c-1.6.7-1.7.9-.3.9.9.1 2-.4 2.3-.9.7-1.1.7-1.1-2 0zm-67 5.1c-.4.6-.5 1.2-.2 1.5.2.3.7-.2 1-1.1.7-1.7.1-2-.8-.4zm-2.2 8.4c0 2.2.2 3 .4 1.7.2-1.2.2-3 0-4-.3-.9-.5.1-.4 2.3zm25.5 7.2c.7.3 1.6.2 1.9-.1.4-.3-.2-.6-1.3-.5-1.1 0-1.4.3-.6.6zm6.9 3.4c.7.7 1.5 1 1.8.7.3-.3-.2-.9-1.2-1.2-1.4-.6-1.5-.5-.6.5zm13.3-.1c-.9.6-1 1-.3 1 .6 0 1.5-.5 1.8-1 .8-1.2.4-1.2-1.5 0z"/><path fill="#408040" d="M248.8 121.7c.6.2 1.8.2 2.5 0 .6-.3.1-.5-1.3-.5-1.4 0-1.9.2-1.2.5zm-5.4 1.9c-1.8 1.4-1.8 1.5.4.4 1.2-.6 2.2-1.3 2.2-1.5 0-.8-.5-.6-2.6 1.1zm11.6-.6c.8.5 2 1 2.5 1 .6 0 .3-.5-.5-1s-1.9-1-2.5-1c-.5 0-.3.5.5 1zm24.8-.3c.7.3 1.6.2 1.9-.1.4-.3-.2-.6-1.3-.5-1.1 0-1.4.3-.6.6zm-20.3 2.1c.4.8-1.2 3.4-4.4 7.2-2.8 3.2-5.1 6.6-5.1 7.5 0 .9-1 2.6-2.2 3.6l-2.3 2 2.8-1.7c1.6-1 2.7-2.5 2.7-3.9 0-1.2.9-3 2.1-4.1 1.2-1 3.5-3.6 5.1-5.7 2.5-3.1 2.8-4.1 1.8-5-1-.9-1.1-.9-.5.1zm2 6.2c-5.7 5.8-6.7 7.2-5.6 8.2 1.1 1.1 1.2 1 .6-.1-.5-.9 1.5-3.5 6.1-8.2 3.8-3.8 6.6-6.9 6.3-6.9-.2 0-3.6 3.1-7.4 7zm25-4.6c1 1.4 1.9 2.6 2.2 2.6.7 0-1.7-3.9-2.8-4.6-.6-.3-.3.5.6 2zm2.8 7.6c0 2.5.2 3.5.4 2.2.2-1.2.2-3.2 0-4.5-.2-1.2-.4-.2-.4 2.3zm-23.3 3c-4.5 3.9-3.4 3.9 1.5 0 2.1-1.7 3.4-3 2.9-3-.5.1-2.5 1.4-4.4 3zm10-.2c0 .5 1.8 2.5 4 4.7 4.2 4.1 5.7 3.9 8.1-.9.7-1.3.1-.9-1.5.9l-2.6 3-4-4.2c-2.2-2.3-4-3.9-4-3.5zm-4 2.9c.8.3 2.2 1.1 3 1.7 1.3 1 1.3.9.1-.7-.7-.9-2.1-1.7-3-1.6-1.3 0-1.4.1-.1.6zm-15 5.2c0 .5.7 1.2 1.6 1.5.8.3 1.2.2.9-.3-.3-.5.3-1.2 1.2-1.4 1.1-.3.8-.5-.9-.6-1.6 0-2.8.3-2.8.8zm14 .1c-.8.5-1.2 1.2-.9 1.5.4.3 1.2-.1 1.9-1 1.4-1.7 1.1-1.9-1-.5zm6-.7c0 .2 1.5 1.6 3.3 3.3l3.2 2.9-2.9-3.3c-2.8-3-3.6-3.7-3.6-2.9zm-29.6 3.9-2.9 3.3 3-2.6c1.7-1.5 3.7-2.9 4.5-3.2 1.3-.5 1.3-.6-.1-.6-.8-.1-2.8 1.4-4.5 3.1zm1.1 2.5c-2.2 1.9-3.1 3.1-2 2.5 1.9-.9 7.4-6.3 6.4-6.2-.2.1-2.2 1.7-4.4 3.7zm12.5-3.1c0 2 2.7 3.5 5.2 2.9 1.8-.5 3.2.3 6.3 3.5 3.6 3.7 6.5 5.1 6.5 3.2 0-.5-1-1.7-2.2-2.8l-2.3-1.9 1.9 2.2c3.3 3.9.2 2.5-3.9-1.7-3.3-3.3-4.4-4-6.6-3.5-2 .5-3 .1-3.8-1.2-.6-1-1.1-1.3-1.1-.7zm11.5 2.4c1 1.1 2 2 2.3 2 .3 0-.3-.9-1.3-2s-2-2-2.3-2c-.3 0 .3.9 1.3 2zm6.1.9c3 3.1 5.4 3.5 5.4.8 0-.7-.4-.6-1 .3-.8 1.2-1.4 1-4.2-1.5l-3.3-3 3.1 3.4zM297 149c-.8.5-1 1-.5 1 .6 0 1.7-.5 2.5-1s1.1-1 .5-1c-.5 0-1.7.5-2.5 1zm12 .9c1.4 1.1 3 2.1 3.5 2.1 1.1 0-.7-1.4-4-3.1-1.3-.7-1.2-.3.5 1zm-77.9-.5c.2.2 1.5.9 2.9 1.5 2.4 1.1 2.4 1.1.6-.3-1.6-1.3-4.9-2.4-3.5-1.2zm23.8 1.3c-1.3 1.6-1.2 1.7.4.4 2.6-2.1 2 0-1 3.1-2.7 2.8-5.1 3.9-3.7 1.6.4-.7.3-.8-.4-.4-1.6 1-1.5 2.6.1 2.6 2.2 0 8.2-6.9 7.1-8-.8-.8-1.5-.5-2.5.7zm33.2 4.3c-3.3 2.7-6.3 5.5-6.7 6.1-.6 1 4-2.7 13.5-10.7.2-.2.2-.4-.2-.4-.3 0-3.3 2.2-6.6 5zm-44.6 4c3.8 3.8 7.2 7 7.4 7 .3 0-2.6-3.2-6.4-7-3.8-3.9-7.2-7-7.4-7-.3 0 2.6 3.1 6.4 7zm14.2-2.2c-2 2.1-3.7 4.1-3.7 4.5 0 .3 1.8-1.3 4.1-3.6 2.6-2.7 3.9-3.5 3.4-2.2-.5 1.6-.4 1.8.6.7.9-.8 1-1.5.3-2.2-.7-.7-2.2.3-4.7 2.8zm55.9-2.5c.3 1 .9 1.5 1.2 1.2.3-.3 0-1.1-.7-1.8-1-.9-1.1-.8-.5.6zm-51.5 7.2c-1.7 2-3.1 4-3.1 4.5 0 2 2.7.9 5.6-2.3l2.9-3.2-3.2 2.9c-1.8 1.6-3.6 2.7-3.9 2.3-1-.9 5.4-6.9 6.6-6.2.5.3 1 .1 1-.4 0-2.2-2.9-1-5.9 2.4zm7.9-2.8c0 .5.5 1.5 1 2.3.9 1.3 1 1.3 1 0s.1-1.3 1 0c.5.8 1 1 1 .4 0-1.2-2-3.4-3.2-3.4-.4 0-.8.3-.8.7zm-55.9 3.9c0 1.1.3 1.4.6.6.3-.7.2-1.6-.1-1.9-.3-.4-.6.2-.5 1.3zm99.5.9c-.9 2.6-.7 3.2.5 1.2.6-1 .9-2.1.6-2.3-.2-.3-.7.2-1.1 1.1zm-37.1 4.1c-3.5 4.7-4.2 6.8-2.6 7.8.5.4.7-.2.4-1.2-.2-1 1.1-3.7 3.2-6.5 2-2.6 3.4-4.7 3.1-4.7-.3 0-2.1 2.1-4.1 4.6zm-9.5-1.5c0 .5.5.7 1 .4.6-.3 1-.8 1-1.1 0-.2-.4-.4-1-.4-.5 0-1 .5-1 1.1zm-51 1.5c0 .5.7 1.8 1.5 2.8.8 1.1 1.5 1.6 1.5 1 0-.5-.7-1.8-1.5-2.8-.8-1.1-1.5-1.6-1.5-1zm35-.2c0 .2.8 1 1.8 1.7 1.5 1.3 1.6 1.2.3-.4s-2.1-2.1-2.1-1.3zm60 1.6c-.6 1.1-.8 2-.6 2 .3 0 1-.9 1.6-2 .6-1.1.8-2 .6-2-.3 0-1 .9-1.6 2zm-2 4.4c0 .8.4 1.7.9 2 .5.4.7-.3.4-1.4-.6-2.3-1.3-2.6-1.3-.6zm-32.5 5.6c1 1.1 2 2 2.3 2 .3 0-.3-.9-1.3-2s-2-2-2.3-2c-.3 0 .3.9 1.3 2zm-26.1 1.2-1.9 2.3 2.3-1.9c2.1-1.8 2.7-2.6 1.9-2.6-.2 0-1.2 1-2.3 2.2zm11.5 2.5c-1.3 1.7-1.3 1.7.6.3 1.1-.8 2.2-1.6 2.4-1.7.2-.2 0-.3-.6-.3s-1.7.8-2.4 1.7zm-47.7 1.3c0 1.4.2 1.9.5 1.2.2-.6.2-1.8 0-2.5-.3-.6-.5-.1-.5 1.3zm70.3 4c3.3 3.3 6.2 6 6.4 6 .3 0-2.1-2.7-5.4-6-3.3-3.3-6.2-6-6.4-6-.3 0 2.1 2.7 5.4 6zm-43.5 2.2c-3.6 3.4-4.7 4.7-2.5 3.1 3.8-3 10.4-9.4 9.4-9.3-.2.1-3.3 2.8-6.9 6.2zm16.9-4.5c-1.3 1.6-1.2 1.7.4.4.9-.7 1.7-1.5 1.7-1.7 0-.8-.8-.3-2.1 1.3zm12.6.3c1 1.1 2 2 2.3 2 .3 0-.3-.9-1.3-2s-2-2-2.3-2c-.3 0 .3.9 1.3 2zm-20.6 6.7c-4.5 4.8-10.7 12.2-7.3 8.8 3.7-3.7 13.6-14.5 13.3-14.5-.3 0-2.9 2.6-6 5.7zm29.5 1.3c6.9 7.7 8.5 9.2 4.9 4.5-1.7-2.2-4.6-5.4-6.4-7-2-1.7-1.3-.7 1.5 2.5zm31.6.8c-2.5 2.6-2.8 3.2-1.1 2.1 2.1-1.3 6.1-6 5-5.8-.2 0-2 1.7-3.9 3.7zm-94.5.2c1 1.1 2 2 2.3 2 .3 0-.3-.9-1.3-2s-2-2-2.3-2c-.3 0 .3.9 1.3 2zm15 2c-.3.6.1.7.9.4 1.8-.7 2.1-1.4.7-1.4-.6 0-1.3.4-1.6 1zm-7.7 1.7c1.2.2 3 .2 4 0 .9-.3-.1-.5-2.3-.4-2.2 0-3 .2-1.7.4zm77 0c1.2.2 3 .2 4 0 .9-.3-.1-.5-2.3-.4-2.2 0-3 .2-1.7.4zm-13.8 5.2c0 .6.4 1.3 1 1.6.6.3.7-.1.4-.9-.7-1.8-1.4-2.1-1.4-.7zm-47.4 2.6c-.9 2.6-.7 3.2.5 1.2.6-1 .9-2.1.6-2.3-.2-.3-.7.2-1.1 1.1zm49.7 5.5c0 2.5.2 3.5.4 2.2.2-1.2.2-3.2 0-4.5-.2-1.2-.4-.2-.4 2.3zm-31.8 9c-.3.6.1.7.9.4 1.8-.7 2.1-1.4.7-1.4-.6 0-1.3.4-1.6 1zm11.5-.6c0 .2.7.7 1.6 1 .8.3 1.2.2.9-.4-.6-1-2.5-1.4-2.5-.6zm15.5.6c-.3.6.1.7.9.4 1.8-.7 2.1-1.4.7-1.4-.6 0-1.3.4-1.6 1zm-30.7 1.7c.7.3 1.6.2 1.9-.1.4-.3-.2-.6-1.3-.5-1.1 0-1.4.3-.6.6zm20 0c.7.3 1.6.2 1.9-.1.4-.3-.2-.6-1.3-.5-1.1 0-1.4.3-.6.6zm-25 1c.6.2 1.8.2 2.5 0 .6-.3.1-.5-1.3-.5-1.4 0-1.9.2-1.2.5zm29 0c.7.3 1.6.2 1.9-.1.4-.3-.2-.6-1.3-.5-1.1 0-1.4.3-.6.6z"/><g fill="#008040" stroke-width="0"><path d="M244.2 123.7c-2.5 1.8-5.2 7.3-5.2 10.7 0 2.2 3.5 8.6 5.3 9.8 1.5.9 5.6-2.4 5.7-4.5 0-1 2.3-4.4 5-7.6 2.8-3.2 5-6.1 5-6.4 0-1.2-7.2-3.7-10.4-3.6-1.7 0-4.1.7-5.4 1.6zm28.2-.5c-3.8 1.2-16.9 14.1-16 15.7 1.3 2.1 6.1 1.1 9.6-1.9 4.9-4.2 7-3.8 12.9 2.2l5.2 5.3 2.4-3c5.2-6.3 2.3-16.4-5.3-18.5-4.3-1.1-4.6-1.1-8.8.2z"/><path d="M269 141.5c-.7.9-3.2 2-5.7 2.6l-4.3 1.1 2.4 2.5c1.7 1.7 3.1 2.2 4.8 1.8 1.8-.5 3.2.3 6.3 3.5 5.5 5.6 6.5 5 1.6-1.1-4.5-5.6-4.8-6.4-2.7-7.2.7-.3 3.2 1.4 5.7 3.9 7.4 7.6 8.4 5.1 1.2-3.2-4.8-5.6-7.1-6.5-9.3-3.9zm-21.5 7.5c-4.1 4.3-2.4 4.8 2.2.6 2.4-2.3 3.2-3.6 2.2-3.6-.8 0-2.8 1.3-4.4 3zm-28.3 1c-5.7 3.5-6.5 10.3-2.1 17.8 2.4 4.2 2.4 6.2-.2 10.6-1.3 2.2-2.2 5.6-2.2 8.5-.2 4.2.2 5.4 2.7 8 2.5 2.6 3.7 3.1 7.8 3.1 2.7 0 5.8-.6 7.1-1.3 7.5-4.1 22.7-20.1 22.7-23.8 0-.9-3.9-5.8-8.6-10.8-12.5-13.2-19.9-16.5-27.2-12.1zm77 .2c-4.9 2.4-15.4 12.3-19.6 18.6-3.6 5.3-3.3 6.1 6 16.1 9 9.7 14.3 13.1 20.6 13.1 4.1 0 5.2-.5 8.3-3.5 4.9-4.9 4.6-9.8-.8-17.9l-2-2.8 3.2-6.3c4.5-9.1 3.9-13.1-2.4-17.3-4.3-2.7-7.7-2.7-13.3 0zm-43.1 2.9c-1.8 1.7-3 3.3-2.6 3.7.3.3 2-.8 3.7-2.6 4.2-4.1 3.1-5.2-1.1-1.1zm4.9 4.4c-3.6 3.7-3.5 6.2.1 2.9 2.3-2.1 4.3-5.3 3.7-6-.3-.2-2 1.2-3.8 3.1zm4.9 4.4c-1.7 1.8-2.8 3.5-2.5 3.8.4.4 2.1-.7 3.8-2.5 1.8-1.7 2.9-3.4 2.5-3.8-.3-.3-2 .8-3.8 2.5zm-4.9 24.4c-10.9 8.6-19 19.7-19 26 0 3.3 3.7 8.6 6.8 9.8 3.4 1.3 9.1.5 13.7-2.1 4.4-2.5 5.6-2.5 9.9-.1 10.3 5.8 19.6 2 19.6-8.1 0-5.4-.8-7.2-6.5-14.2-4.2-5.2-16.2-15.6-17.9-15.6-.6 0-3.6 1.9-6.6 4.3z"/></g><path fill="#40BF80" d="m253.9 134.7-2.4 2.8 2.8-2.4c2.5-2.3 3.2-3.1 2.4-3.1-.2 0-1.4 1.2-2.8 2.7zm20.1 4.7c0 .2.8 1 1.8 1.7 1.5 1.3 1.6 1.2.3-.4s-2.1-2.1-2.1-1.3zm-23.4 4.4c-.2.4.4.8 1.4.8 1 0 1.6-.4 1.4-.8-.3-.4-.9-.8-1.4-.8-.5 0-1.1.4-1.4.8zm25.9 6.2c2.1 2.2 4.1 4 4.4 4 .3 0-1.3-1.8-3.4-4-2.1-2.2-4.1-4-4.4-4-.3 0 1.3 1.8 3.4 4zm-26.6.7-2.4 2.8 2.8-2.4c2.5-2.3 3.2-3.1 2.4-3.1-.2 0-1.4 1.2-2.8 2.7zm12 10-2.4 2.8 2.8-2.4c2.5-2.3 3.2-3.1 2.4-3.1-.2 0-1.4 1.2-2.8 2.7z"/></svg>