<svg class="svg-icon" style="width: 1em; height: 1em;vertical-align: middle;fill: currentColor;overflow: hidden;" viewBox="0 0 1024 1024" version="1.1" xmlns="http://www.w3.org/2000/svg"><path d="M873.8 404.4c0-32.4-26.3-58.7-58.7-58.7s-58.7 26.3-58.7 58.7c0 32.4 26.3 58.7 58.7 58.7s58.7-26.3 58.7-58.7z m-78.2 0c0-10.8 8.8-19.6 19.6-19.6s19.6 8.8 19.6 19.6S826 424 815.2 424s-19.6-8.8-19.6-19.6z m-46.7 254.3c-42.7 0-77.4 35-77.4 78.2s34.6 78.2 77.4 78.2c42.7 0 77.4-35 77.4-78.2-0.1-43.2-34.7-78.2-77.4-78.2z m0 117.3c-21.4 0-38.7-17.5-38.7-39.1s17.3-39.1 38.7-39.1c21.4 0 38.7 17.5 38.7 39.1-0.1 21.6-17.4 39.1-38.7 39.1zM543.7 619.6H355.6v39.1h170.1c4.8-13.7 10.8-26.8 18-39.1z m-188.1 88v39.1h156.9c-0.1-3.3-0.5-6.5-0.5-9.8 0-10 0.8-19.7 2-29.3H355.6zM922.9 688H906c-7.4-24.2-20.2-46-36.8-64.1l8.6-15c8-14 3.3-32-10.6-40.1l-33.5-19.6c-13.9-8-31.7-3.2-39.7 10.8l-8.5 14.9c-11.8-2.7-24-4.3-36.6-4.3-12.6 0-24.8 1.6-36.6 4.3l-8.5-14.9c-8-14-25.8-18.8-39.6-10.7l-33.5 19.6c-13.9 8.1-18.6 26-10.6 40.1l8.6 15c-16.6 18.1-29.4 39.9-36.8 64.1H575c-16 0-29 13.1-29 29.3v39.1c0 16.2 13 29.3 29 29.3h16.9c7.4 24.2 20.2 46 36.8 64.1l-8.6 15c-8 14-3.3 32 10.6 40.1l33.5 19.6c13.9 8.1 31.6 3.3 39.6-10.7l8.5-14.9c11.8 2.7 24 4.3 36.6 4.3 12.6 0 24.8-1.6 36.6-4.3l8.5 14.9c8 14 25.7 18.8 39.6 10.7l33.5-19.6c13.9-8.1 18.6-26 10.6-40.1l-8.6-15c16.6-18.1 29.4-39.9 36.8-64.1h16.9c16 0 29-13.1 29-29.3v-39.1c0.1-16.3-12.9-29.4-28.9-29.4z m-9.7 58.7H874c-3 39.5-23.7 73.9-54.2 95.1l19.5 34.2-16.7 9.8-19.6-34.3c-16.4 8-34.8 12.6-54.2 12.6-19.4 0-37.8-4.6-54.2-12.6L675 885.8l-16.7-9.8 19.5-34.2c-30.5-21.2-51.2-55.6-54.2-95.1h-39.2v-19.6h39.2c3-39.5 23.7-73.9 54.2-95.1l-19.5-34.2L675 588l19.6 34.3c16.4-8 34.8-12.6 54.2-12.6 19.4 0 37.8 4.6 54.2 12.6l19.6-34.3 16.7 9.8-19.4 34.2c30.5 21.2 51.2 55.6 54.2 95.1h39.2v19.6z m-0.3-498.7H756.4V130.7c0-21.6-17.5-39.1-39.1-39.1H306.7c-21.6 0-39.1 17.5-39.1 39.1V248H111.1C89.5 248 72 265.5 72 287.1v352c0 21.6 17.5 39.1 39.1 39.1h88V776c0 21.6 17.5 39.1 39.1 39.1h29.3v117.3H617c-16.6-11.1-31.7-24.3-44.9-39.1H306.7V580.4h265.4c13.3-14.8 28.3-28.1 44.9-39.1H238.2c-21.6 0-39.1 17.5-39.1 39.1v58.7h-88v-352h156.4v39.1c0 21.6 17.5 39.1 39.1 39.1h410.7c21.6 0 39.1-17.5 39.1-39.1v-39.1h156.4v284.2c15.3 15.4 28.5 32.9 39.1 52.1V287.1c0.1-21.6-17.4-39.1-39-39.1zM238.2 580.4h29.3V776h-29.3V580.4z m479.1-254.2H306.7V130.7h410.7v195.5z"  /></svg>