<?xml version="1.0" encoding="UTF-8"?>
<!DOCTYPE svg PUBLIC "-//W3C//DTD SVG 1.1//EN" "http://www.w3.org/Graphics/SVG/1.1/DTD/svg11.dtd">
<svg xmlns="http://www.w3.org/2000/svg" version="1.1" width="256px" height="256px" style="shape-rendering:geometricPrecision; text-rendering:geometricPrecision; image-rendering:optimizeQuality; fill-rule:evenodd; clip-rule:evenodd" xmlns:xlink="http://www.w3.org/1999/xlink">
<g><path style="opacity:0.91" fill="#4caf50" d="M 53.5,-0.5 C 85.1667,-0.5 116.833,-0.5 148.5,-0.5C 150.25,0.473169 151.75,1.8065 153,3.5C 153.5,35.1649 153.667,66.8316 153.5,98.5C 168.837,98.3334 184.17,98.5001 199.5,99C 201.049,100.214 202.215,101.714 203,103.5C 203.5,116.496 203.667,129.496 203.5,142.5C 205.527,142.338 207.527,142.505 209.5,143C 210.941,146.724 212.107,150.557 213,154.5C 216.083,155.639 219.083,156.972 222,158.5C 224.5,156.667 227,154.833 229.5,153C 230.833,152.333 232.167,152.333 233.5,153C 238.389,157.386 242.722,162.22 246.5,167.5C 244.287,170.543 242.287,173.71 240.5,177C 241.805,179.776 242.971,182.61 244,185.5C 247.774,186.767 251.608,187.767 255.5,188.5C 255.5,195.5 255.5,202.5 255.5,209.5C 251.608,210.233 247.774,211.233 244,212.5C 242.971,215.39 241.805,218.224 240.5,221C 242.287,224.29 244.287,227.457 246.5,230.5C 242.722,235.78 238.389,240.614 233.5,245C 232.167,245.667 230.833,245.667 229.5,245C 227,243.167 224.5,241.333 222,239.5C 219.345,241.053 216.512,242.22 213.5,243C 212.121,247.158 210.788,251.325 209.5,255.5C 203.167,255.5 196.833,255.5 190.5,255.5C 188.551,251.824 187.217,247.824 186.5,243.5C 183.382,242.441 180.382,241.108 177.5,239.5C 174.457,241.713 171.29,243.713 168,245.5C 162.756,242.262 158.089,238.262 154,233.5C 153.333,231.833 153.333,230.167 154,228.5C 155.733,226.277 157.233,223.944 158.5,221.5C 157.481,218.14 156.481,214.807 155.5,211.5C 151.772,211.156 148.105,210.49 144.5,209.5C 143.534,207.604 143.201,205.604 143.5,203.5C 96.6392,203.371 49.6392,203.204 2.5,203C 1.62656,201.955 0.626561,201.122 -0.5,200.5C -0.5,167.5 -0.5,134.5 -0.5,101.5C 0.682751,100.496 2.01608,99.6622 3.5,99C 18.4963,98.5001 33.4963,98.3334 48.5,98.5C 48.3334,66.8316 48.5,35.1649 49,3.5C 50.3968,1.92975 51.8968,0.596413 53.5,-0.5 Z M 55.5,6.5 C 64.5,6.5 73.5,6.5 82.5,6.5C 82.3335,18.5046 82.5001,30.5046 83,42.5C 83.6739,43.5784 84.6739,44.2451 86,44.5C 91.259,42.7036 96.259,40.3703 101,37.5C 105.387,39.2765 109.554,41.4432 113.5,44C 115.441,44.7429 117.274,44.5762 119,43.5C 119.5,31.1712 119.667,18.8378 119.5,6.5C 128.5,6.5 137.5,6.5 146.5,6.5C 146.5,37.1667 146.5,67.8333 146.5,98.5C 116.167,99.8333 85.8333,99.8333 55.5,98.5C 55.5,67.8333 55.5,37.1667 55.5,6.5 Z M 89.5,6.5 C 97.1667,6.5 104.833,6.5 112.5,6.5C 112.832,15.8571 112.498,25.1904 111.5,34.5C 108.322,32.1609 104.822,30.4943 101,29.5C 97.417,30.8969 93.917,32.5636 90.5,34.5C 89.5017,25.1904 89.1684,15.8571 89.5,6.5 Z M 6.5,105.5 C 15.5,105.5 24.5,105.5 33.5,105.5C 33.1676,117.851 33.501,130.185 34.5,142.5C 35.2935,142.931 36.1268,143.265 37,143.5C 42.2411,141.253 47.2411,138.586 52,135.5C 56.0838,138.126 60.2505,140.626 64.5,143C 66.7008,143.825 68.5341,143.325 70,141.5C 70.4999,129.505 70.6665,117.505 70.5,105.5C 79.5,105.5 88.5,105.5 97.5,105.5C 97.5,135.833 97.5,166.167 97.5,196.5C 66.8333,196.5 36.1667,196.5 5.5,196.5C 5.1749,166.093 5.50823,135.76 6.5,105.5 Z M 40.5,105.5 C 48.1667,105.5 55.8333,105.5 63.5,105.5C 63.8316,114.857 63.4983,124.19 62.5,133.5C 58.9934,131.246 55.3267,129.246 51.5,127.5C 47.8713,129.3 44.3713,131.3 41,133.5C 40.5002,124.173 40.3335,114.839 40.5,105.5 Z M 104.5,105.5 C 113.833,105.5 123.167,105.5 132.5,105.5C 132.333,117.838 132.5,130.171 133,142.5C 133.725,143.059 134.558,143.392 135.5,143.5C 140.622,141.105 145.622,138.438 150.5,135.5C 154.833,138 159.167,140.5 163.5,143C 165.112,143.72 166.612,143.554 168,142.5C 168.5,130.171 168.667,117.838 168.5,105.5C 177.833,105.5 187.167,105.5 196.5,105.5C 196.5,117.833 196.5,130.167 196.5,142.5C 194.08,142.292 191.747,142.626 189.5,143.5C 188.225,147.078 187.225,150.745 186.5,154.5C 183.382,155.559 180.382,156.892 177.5,158.5C 174.457,156.287 171.29,154.287 168,152.5C 162.756,155.738 158.089,159.738 154,164.5C 153.333,166.167 153.333,167.833 154,169.5C 155.733,171.723 157.233,174.056 158.5,176.5C 157.481,179.86 156.481,183.193 155.5,186.5C 151.772,186.844 148.105,187.51 144.5,188.5C 143.52,191.086 143.187,193.753 143.5,196.5C 130.5,196.5 117.5,196.5 104.5,196.5C 104.5,166.167 104.5,135.833 104.5,105.5 Z M 139.5,105.5 C 146.833,105.5 154.167,105.5 161.5,105.5C 161.666,114.839 161.5,124.173 161,133.5C 157.744,131.121 154.244,129.121 150.5,127.5C 146.756,129.121 143.256,131.121 140,133.5C 139.5,124.173 139.334,114.839 139.5,105.5 Z M 194.5,149.5 C 197.833,149.5 201.167,149.5 204.5,149.5C 204.794,153.1 205.46,156.6 206.5,160C 211.982,161.881 217.315,164.047 222.5,166.5C 225.559,165.221 228.392,163.554 231,161.5C 233.281,162.776 235.281,164.443 237,166.5C 236.507,169.137 235.173,171.47 233,173.5C 232.333,175.167 232.333,176.833 233,178.5C 235.321,182.629 237.154,186.963 238.5,191.5C 241.615,193.048 244.949,194.048 248.5,194.5C 249.833,197.5 249.833,200.5 248.5,203.5C 244.949,203.952 241.615,204.952 238.5,206.5C 237.154,211.037 235.321,215.371 233,219.5C 232.333,221.167 232.333,222.833 233,224.5C 235.173,226.53 236.507,228.863 237,231.5C 235.281,233.557 233.281,235.224 231,236.5C 228.392,234.446 225.559,232.779 222.5,231.5C 217.275,233.946 211.942,236.113 206.5,238C 205.46,241.4 204.794,244.9 204.5,248.5C 201.167,248.5 197.833,248.5 194.5,248.5C 194.804,244.785 194.137,241.285 192.5,238C 187.048,236.107 181.715,233.94 176.5,231.5C 173.857,233.13 171.191,234.797 168.5,236.5C 166.016,234.517 163.683,232.35 161.5,230C 164.361,227.781 166.361,224.947 167.5,221.5C 164.783,216.733 162.616,211.733 161,206.5C 158.095,204.907 154.929,203.907 151.5,203.5C 150.213,200.291 150.213,197.125 151.5,194C 154.167,193.667 156.833,193.333 159.5,193C 162.007,187.485 164.673,181.985 167.5,176.5C 166.361,173.053 164.361,170.219 161.5,168C 163.683,165.65 166.016,163.483 168.5,161.5C 171.191,163.203 173.857,164.87 176.5,166.5C 181.715,164.06 187.048,161.893 192.5,160C 194.137,156.715 194.804,153.215 194.5,149.5 Z M 195.5,183.5 C 208.807,182.975 215.307,189.308 215,202.5C 209.707,214.894 201.207,217.728 189.5,211C 183.058,204.423 182.224,197.256 187,189.5C 189.671,187.098 192.505,185.098 195.5,183.5 Z"/></g>
<g><path style="opacity:0.974" fill="#4cae50" d="M 58.5,81.5 C 70.8378,81.3335 83.1712,81.5001 95.5,82C 96.8333,83.6667 96.8333,85.3333 95.5,87C 83.1667,87.6667 70.8333,87.6667 58.5,87C 57.2475,85.1722 57.2475,83.3388 58.5,81.5 Z"/></g>
<g><path style="opacity:0.858" fill="#4caf50" d="M 58.5,88.5 C 70.8378,88.3335 83.1712,88.5001 95.5,89C 96.9348,91.2672 96.6015,93.2672 94.5,95C 83.1667,95.6667 71.8333,95.6667 60.5,95C 57.3312,93.6584 56.6646,91.4918 58.5,88.5 Z"/></g>
<g><path style="opacity:0.913" fill="#4caf50" d="M 193.5,176.5 C 210.397,174.914 220.064,182.414 222.5,199C 220.053,215.774 210.386,223.108 193.5,221C 177.006,213.511 172.839,201.678 181,185.5C 184.299,181.118 188.466,178.118 193.5,176.5 Z M 195.5,183.5 C 192.505,185.098 189.671,187.098 187,189.5C 182.224,197.256 183.058,204.423 189.5,211C 201.207,217.728 209.707,214.894 215,202.5C 215.307,189.308 208.807,182.975 195.5,183.5 Z"/></g>
<g><path style="opacity:0.855" fill="#4baf4f" d="M 10.5,179.5 C 22.1714,179.333 33.8381,179.5 45.5,180C 47.9733,182.08 47.9733,184.246 45.5,186.5C 47.9733,188.754 47.9733,190.92 45.5,193C 33.5,193.667 21.5,193.667 9.5,193C 8.06516,190.733 8.3985,188.733 10.5,187C 7.91418,184.506 7.91418,182.006 10.5,179.5 Z"/></g>
</svg>
