<svg class="svg-icon" style="width: 1em; height: 1em;vertical-align: middle;fill: currentColor;overflow: hidden;" viewBox="0 0 1024 1024" version="1.1" xmlns="http://www.w3.org/2000/svg"><path d="M851.024 64.472c178.368 157.624 227.648 424.96 104.064 639.36-44.288 77.304-108.928 142.264-187.008 187.712a31.992 31.992 0 0 1-43.776-11.52 32.04 32.04 0 0 1 11.52-43.784c68.48-39.8 125.12-96.64 163.776-164.216 112.576-195.392 61.056-440.64-110.976-575.744l11.2 124.728a32.048 32.048 0 0 1-28.992 34.752c-1.024 0.128-1.92 0.128-2.944 0.128a31.936 31.936 0 0 1-31.808-29.12l-17.28-192c-0.064-0.576 0.192-1.024 0.192-1.6-0.064-0.448-0.32-0.824-0.32-1.28 0-1.28 0.704-2.304 0.896-3.52 0.384-3.072 0.896-5.88 2.048-8.64 0.576-1.344 1.28-2.488 2.048-3.776 1.6-2.68 3.392-4.992 5.632-7.104 1.024-0.96 2.048-1.784 3.2-2.624 2.304-1.6 4.736-2.808 7.424-3.84 1.728-0.64 3.328-1.216 5.184-1.536 0.96-0.192 1.792-0.768 2.752-0.824 1.536-0.136 2.944 0.376 4.416 0.504h207.68c17.664 0 32 14.336 32 32s-14.336 32-32 31.944h-108.928zM304.976 990.48c0 0.504 0.256 0.896 0.256 1.4 0 1.728-0.768 3.264-0.96 4.928-0.32 2.12-0.512 4.16-1.216 6.144-0.768 1.992-1.92 3.712-3.072 5.512-1.024 1.664-1.92 3.32-3.264 4.8-1.408 1.6-3.136 2.68-4.864 3.968-1.6 1.144-3.072 2.36-4.864 3.256-1.92 0.96-4.032 1.352-6.144 1.856-1.664 0.392-3.008 1.28-4.736 1.408-1.024 0.128-1.92 0.128-2.88 0.128H63.952c-17.664 0-32-14.328-32-32 0-17.664 14.336-32 32-32h109.76C-5.36 802.328-54.96 534.544 68.816 319.888c44.288-77.24 108.928-142.2 187.008-187.648a32.176 32.176 0 0 1 43.84 11.52 32.04 32.04 0 0 1-11.52 43.784c-68.48 39.808-125.12 96.64-163.776 164.216C11.792 547.152 63.312 792.4 235.344 927.52l-11.2-124.736a32.048 32.048 0 0 1 28.992-34.752c17.344-1.8 33.152 11.328 34.752 28.984l17.28 192c0 0.52-0.192 0.96-0.192 1.48z m206.976-798.6c176.448 0 320 143.552 320 320 0 176.456-143.552 320-320 320s-320-143.544-320-320c0-176.448 143.552-320 320-320z m0 288c52.928 0 96 43.072 96 96 0 41.672-26.816 76.872-64 90.12v37.88c0 17.672-14.336 32-32 32s-32-14.328-32-32v-32h-32c-17.664 0-32-14.328-32-32 0-17.664 14.336-32 32-32h64c17.6 0 32-14.328 32-32 0-17.664-14.4-32-32-32-52.928 0-96-43.072-96-96 0-41.664 26.816-76.864 64-90.112v-37.888c0-17.664 14.336-32 32-32s32 14.336 32 32v32h32c17.664 0 32 14.336 32 32 0 17.672-14.336 32-32 32h-64c-17.6 0-32 14.336-32 32 0 17.672 14.4 32 32 32z m0 288c141.184 0 256-114.808 256-256 0-141.184-114.816-256-256-256s-256 114.816-256 256c0 141.192 114.816 256 256 256z" fill="#20A0FF" /></svg>