<svg class="svg-icon" style="width: 1.0029296875em; height: 1em;vertical-align: middle;fill: currentColor;overflow: hidden;" viewBox="0 0 1027 1024" version="1.1" xmlns="http://www.w3.org/2000/svg"><path d="M791.893333 768h-23.893333c-10.24 0-17.066667-6.826667-17.066667-17.066667s6.826667-17.066667 17.066667-17.066666h23.893333c109.226667 0 197.973333-88.746667 197.973334-197.973334S901.12 341.333333 791.893333 341.333333c-10.24 0-20.48-6.826667-20.48-13.653333-20.48-136.533333-139.946667-242.346667-279.893333-242.346667C334.506667 85.333333 204.8 211.626667 204.8 368.64c0 13.653333 0 23.893333 3.413333 40.96 0 3.413333 0 10.24-3.413333 13.653333s-10.24 6.826667-13.653333 6.826667h-3.413334C102.4 426.666667 34.133333 494.933333 34.133333 580.266667s68.266667 153.6 153.6 153.6h34.133334c10.24 0 17.066667 6.826667 17.066666 17.066666s-6.826667 17.066667-17.066666 17.066667h-34.133334C85.333333 768 0 682.666667 0 580.266667c0-98.986667 75.093333-177.493333 174.08-187.733334v-27.306666c0-174.08 143.36-317.44 317.44-317.44 153.6 0 283.306667 109.226667 314.026667 256 122.88 6.826667 221.866667 105.813333 221.866666 228.693333-3.413333 133.12-109.226667 235.52-235.52 235.52zM563.2 972.8c-3.413333 0-10.24 0-13.653333-3.413333l-68.266667-68.266667c-6.826667-6.826667-6.826667-17.066667 0-23.893333l68.266667-68.266667c6.826667-6.826667 17.066667-6.826667 23.893333 0s6.826667 17.066667 0 23.893333L518.826667 887.466667l54.613333 54.613333c6.826667 6.826667 6.826667 17.066667 0 23.893333 0 6.826667-6.826667 6.826667-10.24 6.826667z" fill="" /><path d="M563.2 904.533333c-10.24 0-17.066667-6.826667-17.066667-17.066666s6.826667-17.066667 17.066667-17.066667c64.853333 0 119.466667-54.613333 119.466667-119.466667s-54.613333-119.466667-119.466667-119.466666c-10.24 0-17.066667-6.826667-17.066667-17.066667s6.826667-17.066667 17.066667-17.066667c85.333333 0 153.6 68.266667 153.6 153.6s-68.266667 153.6-153.6 153.6z" fill="" /><path d="M563.2 904.533333H512c-10.24 0-17.066667-6.826667-17.066667-17.066666s6.826667-17.066667 17.066667-17.066667h51.2c10.24 0 17.066667 6.826667 17.066667 17.066667s-6.826667 17.066667-17.066667 17.066666zM426.666667 699.733333c-3.413333 0-10.24 0-13.653334-3.413333-6.826667-6.826667-6.826667-17.066667 0-23.893333l54.613334-54.613334-54.613334-54.613333c-6.826667-6.826667-6.826667-17.066667 0-23.893333s17.066667-6.826667 23.893334 0l68.266666 68.266666c6.826667 6.826667 6.826667 17.066667 0 23.893334l-68.266666 68.266666h-10.24z" fill="" /><path d="M426.666667 904.533333C341.333333 904.533333 273.066667 836.266667 273.066667 750.933333s68.266667-153.6 153.6-153.6c10.24 0 17.066667 6.826667 17.066666 17.066667s-6.826667 17.066667-17.066666 17.066667C361.813333 631.466667 307.2 686.08 307.2 750.933333s54.613333 119.466667 119.466667 119.466667c10.24 0 17.066667 6.826667 17.066666 17.066667s-6.826667 17.066667-17.066666 17.066666z" fill="" /><path d="M477.866667 631.466667h-51.2c-10.24 0-17.066667-6.826667-17.066667-17.066667s6.826667-17.066667 17.066667-17.066667H477.866667c10.24 0 17.066667 6.826667 17.066666 17.066667s-6.826667 17.066667-17.066666 17.066667z" fill="" /></svg>