<svg xmlns="http://www.w3.org/2000/svg" version="1.0" viewBox="1350 1500 1924 1100"><path d="M2276.4 1714.6c-16.6 4.1-34.1 17.9-42.5 33.6-1.6 2.9-4.3 6.5-5.9 8-3.5 3.3-8 3.6-17.5 1.3-25.6-6.2-52 .3-68.7 16.8-10.1 10.1-15.7 21.5-19.5 39.9l-1.8 8.8h-11c-33.1 0-57.3 9.8-74.2 30-6 7.2-12.4 19.5-14.4 28-1.7 6.8-1.7 24.5 0 32.5 1.1 5.3 5.3 20.2 6.7 23.9.4 1-1.1 1.5-6.3 2-36.5 3.6-69 21.5-90.2 49.7-13.5 17.9-21.1 36.3-24.4 59.6l-1.3 8.8-7.5 1.2c-51.8 8.6-93.9 50.8-103 103.3-1.8 10.7-1.6 32.6.5 43.4.9 4.8 1.6 8.9 1.4 9-.2.2-4.8 1-10.3 1.9-70.6 11.3-115.7 82.7-95.8 151.7 8.6 30.1 32.5 58.8 61 73.4 2.6 1.3 63.3 38.9 134.8 83.5l130 81.1h663l131-81.6c72.1-44.9 133.5-82.8 136.5-84.4 9.3-4.7 20.1-12.9 28.7-21.7 22-22.4 34.3-52.2 34.3-83.4 0-32.5-12-61.2-35.4-84.5-18.8-18.9-39.2-29.5-65.2-33.9-5.4-.9-10-1.8-10.2-2-.2-.1.5-4.3 1.4-9.1 2.3-11.8 2.3-34.8 0-45.9-6.8-31.9-23.6-58.6-49-77.7-14.7-11.1-39-21.2-56.1-23.3-5.2-.7-5.5-.9-5.5-3.5 0-9.7-5.8-31.3-11.7-43.8-18.1-38.3-59.5-67.8-99.5-70.9-4.3-.3-7.8-.7-7.8-.9 0-.1.9-4 2-8.6 3-11.9 3.7-29.1 1.6-39.9-3.7-19.8-10-32.5-22-44.5-6.5-6.5-9.8-8.9-16.6-12.2-12.7-6.1-21.9-7.6-41.6-6.9l-16.1.6-1.2-9.2c-3.3-25.1-15.2-43.7-33.6-52.8-12.1-5.9-19.7-7.2-39.5-6.5-12.1.4-19.4 1.2-27.3 3l-10.8 2.4-.9-2.2c-6-15.5-8.5-20.4-14.3-28.1-11.1-14.8-28.7-22-47.5-19.4-10.1 1.4-20.3 5-35.5 12.5-7.1 3.5-13.6 6.4-14.4 6.4-.8 0-8.3-3.4-16.6-7.5-20.6-10.3-28.2-12.6-42.7-13.1-8-.2-13.4.1-17.6 1.2zm82.3 243.5c4.3.6 12 2.4 17.1 4 23.6 7.6 35.7 15.5 50.9 33.4 3.7 4.3 3.3 4.3 21.3-.1 10.3-2.5 13.2-2.8 28-2.8 13.6.1 17.8.4 24.2 2.2 30.8 8.5 49.4 24.1 56.2 47.1 2.3 7.8 2.1 21.7-.3 28.7-7.9 22.3-36.1 41.2-66.6 44.6-15.9 1.8-42-1.1-70-7.7-22-5.2-49.4-7.8-81-7.8-27 0-38.4 1.3-75.5 9.1-27.1 5.6-27.7 5.7-44 5.7-19-.1-24.2-1.1-38.5-7.9-16.2-7.7-31.4-21.5-37.6-34.2-3.3-6.6-3.4-7.2-3.4-18.9 0-10.8.3-12.5 2.6-17.5 6.6-13.9 19.1-26.1 34.4-33.5 17-8.3 32.4-10.4 57.5-8 24.5 2.3 21.9 2.9 31.3-7 8.8-9.3 17.6-15.7 28.3-20.5 18.5-8.4 44-11.8 65.1-8.9zm-318.2 18.4c3.5 9.9 11.4 32.2 17.6 49.5l11.4 31.5.5 211.5c.6 242.3-.6 216.6 10.4 227.6 11.1 11.1-20.1 9.9 265.6 10.2 276.9.3 254.4.8 264.3-6.4 5.7-4.1 9.9-9.7 12.9-17.3l2.3-5.6.5-206 .5-206 11.9-30.5c6.6-16.8 15.2-40.9 19.1-53.5l7.2-23 7.9.3c15.4.5 33.7 6.4 48.4 15.3 11.5 7.1 28.7 24.4 35.2 35.5 8.5 14.4 13.5 30.3 15.3 48.1.6 6.1-.4 9.4-53 179l-53.7 172.8 2.4 2c1.3 1.1 4.9 2.9 8.1 4 5 1.7 5.9 1.7 7.1.5.8-.8 24.8-77.5 53.3-170.4l51.8-168.8 6.5.6c19.9 2.1 45.3 15.5 61 32.2 28.7 30.7 36.7 76.2 20.3 115-1.9 4.5-30.5 47.7-83.3 125.9-44.2 65.4-80.5 120.2-80.8 121.6-.3 2.1.5 3.3 4.2 6.3 2.5 2.1 5.3 3.6 6.3 3.4 1.1-.2 35-48.9 86.3-124l84.5-123.7h4.5c6.4-.1 21.3 3.2 29.5 6.4 26 10.3 47.7 31.9 57.8 57.5 5.3 13.5 6.1 18.4 6.2 36.5 0 14.7-.3 18.2-2.3 25.5-2.9 10.8-10.6 26.6-17 35-10.8 14.3-14.1 16.5-117.2 81.7-53.6 33.8-115.2 72.8-136.9 86.5l-39.5 24.9-330-.3-330.1-.3-137.5-87c-128.4-81.2-138-87.5-145.6-95-12.9-12.8-20.4-25.6-26.1-44-2.5-8.4-2.7-10.2-2.7-27s.2-18.6 2.8-27c7.3-24.2 21.6-43.7 41.5-56.9 13.1-8.8 29.1-14.8 42.4-16.1 3.4-.3 7.2-.8 8.3-1 1.9-.4 13.3 15.8 86.9 123.4 46.6 68.2 85.4 124.2 86.3 124.6 1.7.6 8.6-3.7 10.7-6.8 1.1-1.5 1.1-2.5.3-4.1-.6-1.2-36.8-55.1-80.5-119.8-43.6-64.8-80.9-121-82.8-125-1.9-4-4.6-11.8-6-17.2-15.1-59.5 23.3-119.6 83.6-131.1 4.5-.8 8.6-1.2 9-.8.4.5 24.1 76.8 52.6 169.7 35 114 52.3 169.2 53.5 169.9 2 1.3 14.4-3.6 15.8-6.3.7-1.2-13.4-47.8-52.6-174l-53.5-172.3 1.1-9.9c2.5-22.5 10.8-41.5 25.9-59.5 17.6-21 50.9-36.6 76.5-36l6.8.2 6.3 18zm333 130.6c25.2 2.5 64.3 10.9 68 14.5 1.7 1.7 2.2 13.9.6 14.8-.5.3-6.6-1-13.6-2.9-33-9-57.7-11.9-96-11.2-34.4.6-53.4 3.3-84.2 11.9-6.2 1.7-11.6 2.9-11.9 2.5-.3-.3-.9-3.5-1.1-7.1l-.6-6.6 4.5-2c14.2-6.3 54.1-13.6 84.3-15.4 8.8-.5 38.5.4 50 1.5zm-14 21c8.2.5 19.4 1.6 24.8 2.4 18.9 2.9 46.1 9.6 52.7 13 3.4 1.8 5.3 6.7 4.5 12.1-.3 2.2-1.4 29.3-2.5 60.4-1.1 31.1-2.3 58.4-2.6 60.8-.9 7-3 7.2-15.8 1.8-10.9-4.7-27.2-9.4-40.6-11.8-12.2-2.1-65.3-1.8-80.5.6-22.2 3.4-39 8.8-48.6 15.7-1.7 1.2-3.3 1.8-3.6 1.5-.7-.7-10.2-122.4-10.3-131.7 0-5 .4-7 1.8-8.2 4.3-3.8 40.4-12.3 65.2-15.1 22.1-2.6 35-2.9 55.5-1.5zm0 142.9c37.6 2.4 65.5 10.4 69.5 20 1.2 2.8 1.1 3.7-.1 5.9-7.4 13.2-58 22.4-106.7 19.3-28.5-1.7-47.2-5.5-60.2-12-12.6-6.3-14-12.7-4.2-19.2 9.7-6.4 35.2-12.3 60.8-13.9 18.8-1.2 23.2-1.2 40.9-.1zM1904 2701.7c-27.5 2.9-53.2 17-70.6 38.7-25 31.2-29.4 75.7-11.2 112 5.4 10.9 8.9 15.7 18.2 25.4 13.2 13.8 29.3 23.1 48.9 28.4 11 3 39.5 3.3 49.7.5 44.9-12.4 75.1-47.8 78.9-93 2.6-30.9-7.9-59.9-29.8-81.8-22.1-22-53.7-33.4-84.1-30.2zm28.5 36c13.7 3.4 27.7 13 36 24.8 10.3 14.3 13.9 26.8 13.3 45.5-.7 20-6 32.1-20.3 46.6-12.7 12.9-28.1 19.4-45.6 19.4-18.1 0-33.3-6.4-46.5-19.5-6.4-6.4-9-9.9-12.6-17.2-6.3-12.5-8.2-21.4-7.6-35.6.4-8.3 1.2-13.3 3.1-19.2 11.3-34.4 45.5-53.6 80.2-44.8zm288.2-35.5c-1.7 1.3-23.7 42.8-23.7 44.7 0 .6 1.7 1.1 3.8 1.1 2.2 0 7.3.3 11.5.6l7.7.7V2909h42v-208h-19.8c-14.3 0-20.3.3-21.5 1.2zm281.3-.3c-7.3 1.4-9.1 3.5-26.6 30.2-32.9 50.3-36.9 56.3-37.9 56.1-.6-.1-1.1-15.5-1.3-43.2l-.2-43h-20.3c-11.1 0-20.7.4-21.3.8-1 .6-23.4 44.4-23.4 45.7 0 .3 5.2.5 11.5.5h11.5v160h43v-86.5l2.4 2.5c1.3 1.4 8.9 14.2 16.9 28.5 24.7 44.3 29.1 51.8 31.7 53.7 2.3 1.7 4.5 1.8 26.7 1.6l24.1-.3-4-7c-2.3-3.9-15.3-25.9-29.1-48.9-13.7-23.1-25.6-43.4-26.3-45.3-.9-1.9-1.2-4.5-.8-6.1.4-1.5 7.5-13.5 15.9-26.7 22.5-35.5 45.5-72.4 45.5-73 0-.7-33.9-.4-38 .4zm133.4.5c-22.1 3.6-41.8 13.8-57.4 29.6-13.1 13.3-21.9 28.6-26.8 46.9-2.2 8.4-2.5 11.6-2.6 25.6 0 11.3.5 18.1 1.6 23 8.9 38.9 36.1 67.6 74.4 78.7 7 2 10.1 2.3 26.9 2.3 16.8 0 19.9-.3 27-2.3 16.2-4.6 35.2-15.9 46.1-27.4 11.9-12.4 21.6-29.7 26.2-46.6 2.3-8.7 2.6-11.5 2.6-26.7 0-15.3-.3-18-2.7-26.9-12-44.7-50-75.3-95.7-77.1-7-.3-14.6.1-19.6.9zm30.1 34.8c17.7 3.8 35.2 17.9 43.9 35.2 15.9 31.6 5.8 71.9-22.8 90.5-11.7 7.6-28.6 12-41.5 10.6-23.5-2.4-44-17.5-54.1-39.9-4.8-10.6-6.3-18.4-5.7-31.6.7-19.8 7.8-35.5 22-48.7 16.3-15.2 36.5-20.8 58.2-16.1zm123-35.2c-1.3.5-6.2 8.8-13.2 22.4-6.2 11.9-11.3 22-11.3 22.5s4.2 1 9.4 1.3c5.8.2 10 .9 11 1.7 1.4 1.2 1.6 9.1 1.6 80.2v78.9h44l.2-43.5.3-43.5 23 40.2c12.7 22.1 24.2 41.5 25.6 43.1l2.5 3 25.2.5c18.5.4 25.2.2 25.2-.6 0-1.2-23.5-41.1-47.5-80.7-11.7-19.4-12.7-21.3-12.2-25 .3-2.9 3.4-8.6 11-20.6 5.8-9.1 19.4-30.7 30.1-48l19.6-31.4-22.2-.3c-20.1-.2-22.5-.1-24.7 1.6-1.3.9-6.8 8.7-12.3 17.2-19.1 30.1-42.3 65-43 65-.5 0-.8-19.1-.8-42.5V2701l-19.7.1c-10.9 0-20.7.4-21.8.9zm180.2-.3c-1.1.3-5.7 8.2-12.7 22.4-6.1 12-11 22.3-11 22.9 0 .6 3.8 1 9.5 1 15.1 0 13.5-9.8 13.5 82.5v78.5h42v-208l-19.7.1c-10.9.1-20.6.3-21.6.6zm-1189.7 1.7c-1.4.8-3.5 2.8-4.8 4.5l-2.3 3.1h-33.7c-24.7 0-34.3.4-36.1 1.3-2.3 1.1-5.5 9.2-12.5 31.4l-.7 2.3h35.1l.2 81.2.3 81.3 20.8.3 20.7.2v-164h15.5c17.1 0 20.2-.8 22.3-5.5.7-1.5 3.3-9.8 5.8-18.4 2.4-8.6 4.7-16.4 5-17.4.5-1.6-.7-1.7-16.3-1.7-12.2.1-17.5.4-19.3 1.4zm271.2.1c-1.7 1.3-23.2 41.8-23.2 43.9 0 .2 5.2.7 11.5 1.1l11.5.7V2909h41.7l.7-15.4c.4-8.4.4-20.8 0-27.3-1.2-21-2-20.3 23.5-20.3 21.1 0 26.6-.8 36.9-5.5 6.6-3 16-11.9 19.6-18.4 8.6-15.8 10.8-55.3 4.5-78.2-5.7-20.4-18.9-33.5-39.6-39.1-7.1-1.9-11.2-2.1-46.3-2.5-34.7-.4-38.7-.3-40.8 1.2zm65.8 37.9c20.5 3.7 27.4 12.9 27.3 36.6-.1 17.4-3.8 25.7-14 31.2-5.8 3.2-12.4 4.5-26.6 5.3l-10.8.7.3-36.6c.3-31.3.5-36.8 1.8-37.6 2.1-1.4 13.2-1.2 22 .4z"/></svg>